<svg width="60" height="61" fill="none" xmlns="http://www.w3.org/2000/svg"><path d="M23.911 22.345 25.197 27c1.213 4.389 1.819 6.583 3.601 7.581 1.783.999 4.045.41 8.57-.765l4.8-1.248c4.526-1.176 6.788-1.764 7.817-3.493 1.03-1.728.423-3.923-.79-8.312l-1.286-4.655c-1.212-4.389-1.818-6.583-3.6-7.581-1.783-.999-4.046-.41-8.571.765l-4.8 1.248c-4.525 1.176-6.787 1.764-7.817 3.493-1.029 1.728-.422 3.923.79 8.312Z" fill="#91202B"/><path d="M5.694 13.636a1.875 1.875 0 0 1 2.308-1.306l4.259 1.182c2.292.636 4.106 2.403 4.74 4.694l5.377 19.465.395 1.366a7.404 7.404 0 0 1 3.806 3.168l.774-.239 22.176-5.763a1.875 1.875 0 0 1 .943 3.63L28.38 45.574l-.822.254c-.017 3.177-2.209 6.08-5.526 6.941-3.976 1.034-8.063-1.255-9.129-5.111-1.065-3.857 1.295-7.82 5.27-8.854.198-.051.395-.095.592-.13l-5.378-19.47c-.271-.98-1.064-1.783-2.128-2.078L7 15.944a1.875 1.875 0 0 1-1.305-2.308Z" fill="#91202B"/></svg>