<svg width="61" height="61" fill="none" xmlns="http://www.w3.org/2000/svg"><path fill-rule="evenodd" clip-rule="evenodd" d="M30.666 40.519c9.665 0 17.5-7.835 17.5-17.5s-7.834-17.5-17.5-17.5c-9.665 0-17.5 7.835-17.5 17.5s7.835 17.5 17.5 17.5Zm0-25c-.71 0-1.185.852-2.135 2.556l-.245.44c-.27.485-.405.727-.616.887-.21.16-.472.219-.997.338l-.477.108c-1.845.417-2.767.626-2.986 1.331-.22.706.409 1.441 1.667 2.912l.325.38c.357.418.536.627.616.886.08.258.054.537 0 1.095l-.05.507c-.19 1.963-.285 2.944.29 3.38.574.436 1.438.038 3.165-.757l.447-.206c.49-.226.736-.339.996-.339s.506.113.997.34l.447.205c1.727.795 2.59 1.193 3.165.757.575-.436.48-1.417.29-3.38l-.05-.507c-.054-.558-.08-.837 0-1.095.08-.259.259-.468.616-.886l.325-.38c1.258-1.47 1.887-2.206 1.667-2.912-.219-.705-1.141-.914-2.986-1.331l-.477-.108c-.525-.119-.787-.178-.997-.338-.21-.16-.346-.402-.616-.886l-.245-.441c-.95-1.704-1.425-2.556-2.136-2.556Z" fill="#91202B"/><path d="m11.904 33.005-3.757 3.89c-1.35 1.399-2.026 2.098-2.26 2.69-.532 1.349-.076 2.845 1.083 3.555.509.311 1.426.408 3.261.602 1.036.11 1.554.165 1.988.331a3.582 3.582 0 0 1 2.087 2.16c.16.45.213.986.32 2.06.187 1.9.28 2.85.581 3.376.686 1.2 2.13 1.672 3.434 1.12.571-.241 1.247-.94 2.597-2.339l6.205-6.424c-6.744-1.027-12.446-5.223-15.539-11.021ZM33.89 44.026l6.205 6.424c1.35 1.399 2.026 2.098 2.597 2.34 1.303.55 2.748.079 3.434-1.121.3-.527.394-1.477.582-3.377.106-1.073.159-1.61.32-2.058a3.582 3.582 0 0 1 2.086-2.16c.434-.167.952-.222 1.988-.331 1.835-.195 2.752-.292 3.261-.603 1.16-.71 1.615-2.206 1.082-3.555-.233-.592-.908-1.291-2.259-2.69l-3.757-3.89c-3.093 5.798-8.795 9.994-15.539 11.02Z" fill="#91202B"/></svg>