<svg width="222" height="55" fill="none" xmlns="http://www.w3.org/2000/svg"><path d="M34.056 2.021c-1.813-.47-3.67-.661-5.484-1.045h-3.478c-1.579.277-3.18.512-4.737.875A26.737 26.737 0 0 0 .192 25.323a5.588 5.588 0 0 1-.192.81v3.479c.087.272.15.55.192.832a25.82 25.82 0 0 0 16.41 22.107 25.393 25.393 0 0 0 27.035-3.862 25.84 25.84 0 0 0 9.837-23.6A26.822 26.822 0 0 0 34.056 2.084m13.828 33.822a21.338 21.338 0 0 1-19.675 14.425c-9.388.554-16.515-3.65-21.231-11.843a5.378 5.378 0 0 1-.918-2.283 21.638 21.638 0 0 0 6.402 7.02 19.674 19.674 0 0 0 30.45-12.312c.15-.747.17-1.515.299-2.24.128-.726-.171-.876-.811-.876H28.017c-.661 0-.832.256-.917.875a11.438 11.438 0 0 1-8.386 9.816A11.438 11.438 0 0 1 4.396 26.73a22.534 22.534 0 1 1 43.573 9.176M183.234 23.36c-1.259-3.82-2.518-7.66-3.82-11.48a3.391 3.391 0 0 0-3.969-2.54 3.968 3.968 0 0 0-2.859 3.073c-3.073 9.368-6.21 18.735-9.304 28.103a1.042 1.042 0 0 1-1.152.854h-6.7c-.982 0-1.217-.3-1.217-1.238V12.669a5.15 5.15 0 0 0-.149-1.622 2.134 2.134 0 0 0-3.521-.746 2.625 2.625 0 0 0-.576 1.899V42.82c0 1.963.704 2.71 2.646 2.71h11.245c1.707 0 2.241-.406 2.774-2.006.897-2.732 1.814-5.463 2.689-8.216a1.003 1.003 0 0 1 1.131-.853h11.139a.98.98 0 0 1 1.067.81c.341 1.132.746 2.263 1.109 3.394.64 1.899 1.259 3.819 1.899 5.74a2.138 2.138 0 0 0 1.942 1.45 2.004 2.004 0 0 0 1.963-1.109 2.648 2.648 0 0 0 0-2.134l-6.401-19.205m-3.03 6.957h-8.216c-.469 0-.917 0-.683-.683l4.546-13.742s.106-.17.298-.427c1.281 3.841 2.497 7.511 3.713 11.203.32.918.598 1.835.939 2.753.342.917.149.917-.597.917M94.914 25.985H82.794c-1.537 0-2.475.853-2.475 2.133s.96 2.134 2.496 2.134h7.895c2.369 0 2.369 0 1.558 2.262a14.061 14.061 0 1 1-17.07-18.287 13.764 13.764 0 0 1 13.997 3.82c1.131 1.13 2.24 1.194 3.201.234a2.132 2.132 0 0 0-.235-3.264 17.561 17.561 0 0 0-15.726-5.335 18.266 18.266 0 0 0-14.766 23.771 18.523 18.523 0 0 0 23.835 11.523A18.074 18.074 0 0 0 97.24 28.46c0-1.58-.726-2.369-2.369-2.412M221.238 11.901a4.234 4.234 0 0 0 0-.747 1.987 1.987 0 0 0-2.006-1.75c-1.408 0-2.134.747-2.134 2.39V35.48c0 .406.192.854-.235 1.238-.106-.107-.234-.192-.32-.3L206.77 23.36l-9.389-12.569a2.389 2.389 0 0 0-3.222-.832 2.477 2.477 0 0 0-.832 2.326v30.62a11.34 11.34 0 0 0 0 1.196 1.876 1.876 0 0 0 1.28 1.6c1.665.598 2.86-.32 2.86-2.326V19.903a3.085 3.085 0 0 1 .128-1.366c.398.224.724.557.939.96l18.692 25.052c.252.396.616.708 1.046.896 1.643.662 2.923-.299 2.923-2.134v-31.41M143.48 34.03l-7.148-21.66c-.662-1.984-1.772-2.923-3.393-2.944-1.622-.022-2.774.896-3.457 2.86-.448 1.258-.832 2.517-1.259 3.797l-8.813 26.482a2.145 2.145 0 0 0 .032 1.939 2.144 2.144 0 0 0 1.59 1.112 2.13 2.13 0 0 0 2.169-1.002c.146-.242.243-.51.285-.79.896-2.753 1.814-5.484 2.646-8.237.234-.704.533-.982 1.28-.96H138.231a1.15 1.15 0 0 1 1.323.938c.917 2.881 1.899 5.762 2.838 8.536.512 1.536 1.579 2.134 2.816 1.75 1.238-.384 1.686-1.537 1.195-3.03-.981-2.945-1.942-5.89-2.923-8.813m-6.572-3.585h-8.109c-.405 0-.982.128-.725-.64l4.609-14.041h.277c.875 2.667 1.771 5.313 2.646 7.98.661 1.942 1.28 3.905 1.963 5.826.278.768.107.939-.661.939M106.074 13.928h8.002a2.13 2.13 0 0 0 2.261-1.152c.769-1.558-.213-3.009-2.133-3.009h-10.947c-1.878 0-2.561.726-2.561 2.668v30.663c0 1.835.726 2.582 2.54 2.582h10.818c1.558 0 2.475-.811 2.475-2.134s-1.002-2.134-2.539-2.134h-8.108c-.747 0-.982-.213-.982-.981v-9.197c0-.854.235-1.11 1.088-1.089h8.216a2.136 2.136 0 0 0 2.133-1.323 2.128 2.128 0 0 0-.295-2.005 2.127 2.127 0 0 0-1.838-.854h-8.344c-.683 0-1.024-.107-1.024-.918V14.975c0-.896.32-1.088 1.131-1.067" fill="#213B7B"/></svg>