<svg width="161" height="39" fill="none" xmlns="http://www.w3.org/2000/svg"><g clip-path="url(#a)"><path d="M13.5 8.4V4.413L.336.119l-.34-.11V39h8.33V27.178H6.77v10.3H1.557V2.118l10.376 3.385V8.4h-5.33v13.916h6.853l.044-12.39h5.354v27.549h-5.228V27.174h-1.557v11.822h8.33V8.4H13.5Zm-1.588 12.39H8.18V9.926h3.766l-.034 10.866ZM36.769 22.34H31.22v-4.367h-2.426V29.6h2.426v-5.117h5.548V29.6h2.426V17.973h-2.426v4.366Z" fill="#91202B"/><mask id="b" style="mask-type:luminance" maskUnits="userSpaceOnUse" x="-16" y="-75" width="193" height="189"><path d="M176.675-74.69H-15.679v188.38h192.354V-74.69Z" fill="#fff"/></mask><g mask="url(#b)" fill="#91202B"><path d="M52.977 19.432a6.006 6.006 0 0 0-1.992-1.253 7.238 7.238 0 0 0-4.98 0 5.872 5.872 0 0 0-1.992 1.253 5.801 5.801 0 0 0-1.334 1.907 6.064 6.064 0 0 0-.475 2.433c-.008.833.147 1.66.458 2.435a5.692 5.692 0 0 0 1.306 1.95 5.96 5.96 0 0 0 1.992 1.29 7.199 7.199 0 0 0 5.038 0 5.898 5.898 0 0 0 1.985-1.29 5.893 5.893 0 0 0 1.307-1.95 6.256 6.256 0 0 0 .468-2.436c.01-.833-.15-1.66-.468-2.432a5.698 5.698 0 0 0-1.324-1.92m-1.255 6.33a3.49 3.49 0 0 1-1.296 1.362 3.994 3.994 0 0 1-3.868 0 3.516 3.516 0 0 1-1.306-1.362 4.358 4.358 0 0 1 0-3.954 3.54 3.54 0 0 1 1.306-1.363 3.683 3.683 0 0 1 1.934-.498 3.728 3.728 0 0 1 1.95.498c.55.329.997.8 1.29 1.363.314.612.471 1.29.458 1.976a4.073 4.073 0 0 1-.468 1.978ZM65.75 23.812a4.533 4.533 0 0 0-1.105-.489 3.097 3.097 0 0 0 1.276-.9c.343-.431.523-.966.508-1.512a2.58 2.58 0 0 0-.508-1.645 3.054 3.054 0 0 0-1.412-.97 6.119 6.119 0 0 0-2.083-.332h-3.96v11.63h4.207a7.064 7.064 0 0 0 2.325-.35 3.195 3.195 0 0 0 1.55-1.08c.388-.55.582-1.209.553-1.877a2.734 2.734 0 0 0-.334-1.421 2.806 2.806 0 0 0-1.023-1.06M62.2 19.857c.448-.024.892.099 1.262.348.156.12.28.274.361.45.082.177.118.37.107.564.006.264-.068.525-.214.748a1.325 1.325 0 0 1-.6.481c-.29.118-.603.174-.916.166h-1.307v-2.757h1.306Zm2.127 7.13c-.192.26-.461.455-.77.559a3.29 3.29 0 0 1-1.103.172h-1.56v-3.356h1.56c.285-.002.57.029.848.093.244.056.475.157.679.3.193.132.35.309.458.514.114.23.17.483.163.738.014.348-.084.691-.282.98M81.07 19.432a5.982 5.982 0 0 0-1.995-1.253 7.227 7.227 0 0 0-4.978 0 5.918 5.918 0 0 0-1.995 1.253 5.897 5.897 0 0 0-1.323 1.92 6.12 6.12 0 0 0-.475 2.433c-.009.833.148 1.66.462 2.436a5.684 5.684 0 0 0 1.302 1.95c.57.556 1.249.995 1.995 1.29a7.2 7.2 0 0 0 5.039 0 5.897 5.897 0 0 0 1.985-1.29 5.893 5.893 0 0 0 1.306-1.95 6.254 6.254 0 0 0 .465-2.436 6.178 6.178 0 0 0-.465-2.432 5.696 5.696 0 0 0-1.323-1.921Zm-1.256 6.33a3.475 3.475 0 0 1-1.3 1.362 3.752 3.752 0 0 1-2.888.415 3.704 3.704 0 0 1-1.33-.656 3.618 3.618 0 0 1-.955-1.121 4.358 4.358 0 0 1 0-3.954c.25-.424.581-.794.977-1.092a3.876 3.876 0 0 1 4.214-.27c.55.327.997.8 1.29 1.362.313.613.47 1.291.457 1.977a4.074 4.074 0 0 1-.465 1.977ZM88.12 17.973h-1.56V29.6H94.109v-2.01H88.9v-3.174h4.868V22.44h-4.868V19.98h5.208v-2.007H88.12ZM115.304 19.432a5.983 5.983 0 0 0-1.995-1.253 7.227 7.227 0 0 0-4.977 0 5.908 5.908 0 0 0-1.995 1.253 5.9 5.9 0 0 0-1.324 1.92 6.142 6.142 0 0 0-.475 2.433c-.008.833.148 1.66.459 2.436.294.73.739 1.394 1.306 1.95.57.556 1.248.995 1.995 1.29a7.199 7.199 0 0 0 5.038 0 5.877 5.877 0 0 0 3.291-3.24 6.228 6.228 0 0 0 .465-2.436 6.176 6.176 0 0 0-.448-2.446 5.688 5.688 0 0 0-1.323-1.92m-1.255 6.33a3.474 3.474 0 0 1-1.3 1.362 3.752 3.752 0 0 1-2.888.415 3.702 3.702 0 0 1-1.331-.657 3.622 3.622 0 0 1-.955-1.12 4.364 4.364 0 0 1-.475-1.977c0-.687.163-1.363.475-1.977.25-.424.582-.795.978-1.092a3.872 3.872 0 0 1 4.213-.27c.551.327.997.799 1.29 1.361.313.613.471 1.292.458 1.978a4.08 4.08 0 0 1-.465 1.977ZM130.396 17.973h-2.884l-4.224 4.719v-4.719h-2.494V29.6h2.494v-5.264l4.411 5.264h2.951l-5.174-6.18 4.92-5.447ZM142.319 22.34h-5.544v-4.367h-2.43V29.6h2.43v-5.117h5.544V29.6h2.429V17.973h-2.429v4.366ZM160.532 21.34a5.705 5.705 0 0 0-1.324-1.921 6.009 6.009 0 0 0-1.995-1.253 7.227 7.227 0 0 0-4.977 0 5.92 5.92 0 0 0-1.995 1.253 5.852 5.852 0 0 0-1.323 1.92 6.107 6.107 0 0 0-.475 2.433c-.009.833.147 1.66.458 2.435.295.731.739 1.395 1.306 1.95.57.557 1.248.996 1.995 1.29a7.202 7.202 0 0 0 5.039 0 5.898 5.898 0 0 0 1.984-1.29 5.895 5.895 0 0 0 1.307-1.95 6.321 6.321 0 0 0 .464-2.435 6.23 6.23 0 0 0-.464-2.433Zm-2.579 4.409a3.479 3.479 0 0 1-1.299 1.362 3.996 3.996 0 0 1-3.868 0 3.545 3.545 0 0 1-1.307-1.362 4.364 4.364 0 0 1-.475-1.977c0-.686.163-1.363.475-1.977a3.505 3.505 0 0 1 1.348-1.387 3.598 3.598 0 0 1 1.893-.474 3.72 3.72 0 0 1 1.951.498c.549.33.996.8 1.289 1.363.314.613.471 1.291.458 1.977a4.116 4.116 0 0 1-.465 1.977Z"/></g></g><defs><clipPath id="a"><path fill="#fff" d="M0 0h161v39H0z"/></clipPath></defs></svg>