<svg width="161" height="40" fill="none" xmlns="http://www.w3.org/2000/svg"><g clip-path="url(#a)"><path d="M13.5 8.919V4.93L.336.638l-.34-.11v38.99h8.33V27.697H6.77v10.3H1.557V2.637L11.933 6.02V8.92h-5.33v13.916h6.853l.044-12.391h5.354v27.55h-5.228V27.692h-1.557v11.822h8.33V8.92H13.5Zm-1.588 12.39H8.18V10.444h3.766l-.034 10.865ZM36.769 22.858H31.22v-4.366h-2.426v11.626h2.426v-5.117h5.548v5.117h2.426V18.492h-2.426v4.366Z" fill="#D9D9D9"/><mask id="b" style="mask-type:luminance" maskUnits="userSpaceOnUse" x="-16" y="-75" width="193" height="190"><path d="M176.675-74.172H-15.679V114.21h192.354v-188.38Z" fill="#fff"/></mask><g mask="url(#b)" fill="#D9D9D9"><path d="M52.977 19.95a6.005 6.005 0 0 0-1.992-1.252 7.238 7.238 0 0 0-4.98 0 5.87 5.87 0 0 0-1.992 1.253 5.8 5.8 0 0 0-1.334 1.907 6.063 6.063 0 0 0-.475 2.432c-.008.833.147 1.66.458 2.436a5.69 5.69 0 0 0 1.306 1.95 5.958 5.958 0 0 0 1.992 1.29 7.2 7.2 0 0 0 5.038 0 5.898 5.898 0 0 0 1.985-1.29 5.893 5.893 0 0 0 1.307-1.95 6.255 6.255 0 0 0 .468-2.436c.01-.833-.15-1.66-.468-2.432a5.697 5.697 0 0 0-1.324-1.92m-1.255 6.33a3.49 3.49 0 0 1-1.296 1.361 3.994 3.994 0 0 1-3.868 0 3.516 3.516 0 0 1-1.306-1.362 4.358 4.358 0 0 1 0-3.954 3.54 3.54 0 0 1 1.306-1.362 3.683 3.683 0 0 1 1.934-.499 3.728 3.728 0 0 1 1.95.499c.55.328.997.8 1.29 1.362.314.613.471 1.292.458 1.977a4.074 4.074 0 0 1-.468 1.977ZM65.75 24.33a4.525 4.525 0 0 0-1.105-.489 3.097 3.097 0 0 0 1.276-.9c.343-.431.523-.965.508-1.512a2.58 2.58 0 0 0-.508-1.645 3.054 3.054 0 0 0-1.412-.97 6.123 6.123 0 0 0-2.083-.332h-3.96v11.63h4.207a7.058 7.058 0 0 0 2.325-.35 3.195 3.195 0 0 0 1.55-1.08c.388-.55.582-1.209.553-1.877a2.734 2.734 0 0 0-.334-1.421 2.806 2.806 0 0 0-1.023-1.06M62.2 20.375c.448-.024.892.1 1.262.348.156.12.28.274.361.45.082.177.118.37.107.564.006.265-.068.525-.214.748a1.325 1.325 0 0 1-.6.482c-.29.117-.603.173-.916.166h-1.307v-2.758h1.306Zm2.127 7.13c-.192.26-.461.455-.77.559a3.29 3.29 0 0 1-1.103.172h-1.56v-3.356h1.56c.285-.002.57.029.848.093.244.056.475.157.679.3.193.132.35.309.458.514.114.23.17.483.163.738.014.348-.084.691-.282.98M81.07 19.95a5.982 5.982 0 0 0-1.995-1.252 7.227 7.227 0 0 0-4.978 0 5.92 5.92 0 0 0-1.995 1.252 5.897 5.897 0 0 0-1.323 1.92 6.12 6.12 0 0 0-.475 2.433c-.009.834.148 1.66.462 2.436a5.684 5.684 0 0 0 1.302 1.95c.57.557 1.249.995 1.995 1.29a7.2 7.2 0 0 0 5.039 0 5.897 5.897 0 0 0 1.985-1.29 5.893 5.893 0 0 0 1.306-1.95 6.254 6.254 0 0 0 .465-2.436 6.178 6.178 0 0 0-.465-2.432 5.697 5.697 0 0 0-1.323-1.92Zm-1.256 6.33a3.475 3.475 0 0 1-1.3 1.363 3.752 3.752 0 0 1-2.888.415 3.704 3.704 0 0 1-1.33-.657 3.618 3.618 0 0 1-.955-1.12 4.358 4.358 0 0 1 0-3.955c.25-.423.581-.794.977-1.092a3.832 3.832 0 0 1 1.33-.642 3.878 3.878 0 0 1 2.884.372c.55.328.997.8 1.29 1.362.313.613.47 1.292.457 1.977a4.073 4.073 0 0 1-.465 1.977ZM88.12 18.492h-1.56v11.626H94.109v-2.01H88.9v-3.173h4.868v-1.977h-4.868v-2.46h5.208v-2.006H88.12ZM115.304 19.95a5.983 5.983 0 0 0-1.995-1.252 7.227 7.227 0 0 0-4.977 0 5.91 5.91 0 0 0-1.995 1.252 5.9 5.9 0 0 0-1.324 1.92 6.142 6.142 0 0 0-.475 2.433c-.008.833.148 1.66.459 2.436.294.73.739 1.394 1.306 1.95.57.557 1.248.995 1.995 1.29a7.199 7.199 0 0 0 5.038 0 5.877 5.877 0 0 0 3.291-3.24 6.228 6.228 0 0 0 .465-2.436 6.176 6.176 0 0 0-.448-2.445 5.689 5.689 0 0 0-1.323-1.921m-1.255 6.33a3.474 3.474 0 0 1-1.3 1.362 3.752 3.752 0 0 1-2.888.415 3.702 3.702 0 0 1-1.331-.656 3.622 3.622 0 0 1-.955-1.121 4.364 4.364 0 0 1-.475-1.977c0-.686.163-1.363.475-1.977.25-.423.582-.794.978-1.092a3.874 3.874 0 0 1 4.213-.27c.551.327.997.8 1.29 1.362.313.613.471 1.291.458 1.977a4.08 4.08 0 0 1-.465 1.977ZM130.396 18.492h-2.884l-4.224 4.718v-4.718h-2.494v11.626h2.494v-5.263l4.411 5.263h2.951l-5.174-6.18 4.92-5.446ZM142.319 22.858h-5.544v-4.366h-2.43v11.626h2.43v-5.117h5.544v5.117h2.429V18.492h-2.429v4.366ZM160.532 21.858a5.706 5.706 0 0 0-1.324-1.92 6.009 6.009 0 0 0-1.995-1.254 7.227 7.227 0 0 0-4.977 0 5.92 5.92 0 0 0-1.995 1.253 5.852 5.852 0 0 0-1.323 1.92 6.107 6.107 0 0 0-.475 2.433c-.009.833.147 1.66.458 2.436.295.73.739 1.394 1.306 1.95.57.557 1.248.995 1.995 1.29a7.202 7.202 0 0 0 5.039 0 5.898 5.898 0 0 0 1.984-1.29 5.894 5.894 0 0 0 1.307-1.95 6.321 6.321 0 0 0 .464-2.436 6.23 6.23 0 0 0-.464-2.432Zm-2.579 4.41a3.479 3.479 0 0 1-1.299 1.361 3.995 3.995 0 0 1-3.868 0 3.545 3.545 0 0 1-1.307-1.362 4.364 4.364 0 0 1-.475-1.977c0-.686.163-1.363.475-1.977a3.504 3.504 0 0 1 1.348-1.386 3.597 3.597 0 0 1 1.893-.475 3.719 3.719 0 0 1 1.951.499c.549.328.996.8 1.289 1.362.314.613.471 1.291.458 1.977a4.116 4.116 0 0 1-.465 1.977Z"/></g></g><defs><clipPath id="a"><path fill="#fff" transform="translate(0 .519)" d="M0 0h161v39H0z"/></clipPath></defs></svg>