<svg width="20" height="21" fill="none" xmlns="http://www.w3.org/2000/svg"><path fill-rule="evenodd" clip-rule="evenodd" d="M1.172 3.19C0 4.362 0 6.247 0 10.02c0 3.77 0 5.656 1.172 6.828C2.343 18.019 4.229 18.019 8 18.019h4c3.771 0 5.657 0 6.828-1.172C20 15.675 20 13.79 20 10.019c0-3.772 0-5.657-1.172-6.829C17.657 2.02 15.771 2.02 12 2.02H8c-3.771 0-5.657 0-6.828 1.171Zm15.404 2.348a.75.75 0 0 1-.096 1.057l-2.196 1.83c-.887.739-1.605 1.337-2.24 1.745-.66.425-1.303.693-2.044.693-.741 0-1.384-.268-2.045-.693-.634-.408-1.352-1.006-2.239-1.745L3.52 6.595a.75.75 0 1 1 .96-1.153l2.159 1.8c.933.777 1.58 1.315 2.128 1.667.529.34.888.454 1.233.454.345 0 .704-.114 1.233-.454.547-.352 1.195-.89 2.128-1.668l2.159-1.799a.75.75 0 0 1 1.056.096Z" fill="#91202B"/></svg>