<svg width="61" height="61" fill="none" xmlns="http://www.w3.org/2000/svg"><path d="M35.334 7.394c4.766 0 8.153.004 10.722.349 2.516.338 3.965.972 5.023 2.03 1.058 1.058 1.692 2.508 2.03 5.023.346 2.569.35 5.956.35 10.723a1.875 1.875 0 0 0 3.75 0v-.141c0-4.595 0-8.234-.383-11.082-.394-2.931-1.225-5.303-3.096-7.174-1.87-1.871-4.243-2.702-7.174-3.096-2.848-.383-6.487-.382-11.081-.382h-.142a1.875 1.875 0 0 0 0 3.75ZM25.192 3.644h.142a1.875 1.875 0 0 1 0 3.75c-4.768 0-8.154.004-10.723.349-2.516.338-3.965.972-5.023 2.03-1.058 1.058-1.692 2.508-2.03 5.023-.346 2.569-.35 5.956-.35 10.723a1.875 1.875 0 0 1-3.75 0v-.141c0-4.595 0-8.234.383-11.082.394-2.931 1.225-5.303 3.096-7.174C8.807 5.25 11.18 4.42 14.11 4.026c2.848-.383 6.487-.382 11.081-.382Z" fill="#91202B"/><path d="M14.152 14.337c-1.318 1.318-1.318 3.439-1.318 7.682 0 2.828 0 4.242.878 5.12.879.88 2.293.88 5.122.88h3c2.828 0 4.242 0 5.12-.88.88-.878.88-2.292.88-5.12v-3c0-2.829 0-4.243-.88-5.122-.878-.878-2.292-.878-5.12-.878-4.243 0-6.364 0-7.682 1.318ZM14.152 46.7c-1.318-1.318-1.318-3.439-1.318-7.681 0-2.829 0-4.243.878-5.122.879-.878 2.293-.878 5.122-.878h3c2.828 0 4.242 0 5.12.878.88.879.88 2.293.88 5.122v3c0 2.828 0 4.242-.88 5.12-.878.88-2.292.88-5.12.88-4.243 0-6.364 0-7.682-1.319ZM32.834 19.019c0-2.829 0-4.243.878-5.122.879-.878 2.293-.878 5.121-.878 4.243 0 6.364 0 7.683 1.318 1.318 1.318 1.318 3.439 1.318 7.682 0 2.828 0 4.242-.88 5.12-.878.88-2.292.88-5.12.88h-3c-2.829 0-4.243 0-5.122-.88-.879-.878-.879-2.292-.879-5.12v-3ZM33.712 47.14c-.879-.879-.879-2.293-.879-5.121v-3c0-2.829 0-4.243.88-5.122.878-.878 2.292-.878 5.12-.878h3c2.829 0 4.243 0 5.122.878.879.879.879 2.293.879 5.122 0 4.242 0 6.364-1.319 7.681-1.318 1.319-3.439 1.319-7.681 1.319-2.829 0-4.243 0-5.122-.88Z" fill="#91202B"/><path d="M55.334 33.644c1.035 0 1.874.839 1.874 1.875v.14c0 4.595 0 8.234-.382 11.082-.394 2.931-1.225 5.303-3.096 7.174-1.87 1.871-4.243 2.702-7.174 3.096-2.848.383-6.487.383-11.081.383h-.142a1.875 1.875 0 0 1 0-3.75c4.767 0 8.154-.004 10.723-.35 2.516-.338 3.965-.972 5.023-2.03 1.058-1.058 1.692-2.507 2.03-5.023.346-2.569.35-5.955.35-10.722 0-1.036.839-1.875 1.874-1.875ZM7.208 35.519a1.875 1.875 0 1 0-3.75 0v.14c0 4.595 0 8.234.383 11.082.394 2.931 1.225 5.303 3.096 7.174 1.87 1.871 4.243 2.702 7.174 3.096 2.848.383 6.487.383 11.081.383h.142a1.875 1.875 0 0 0 0-3.75c-4.768 0-8.154-.004-10.723-.35-2.516-.338-3.965-.972-5.023-2.03-1.058-1.058-1.692-2.507-2.03-5.023-.346-2.569-.35-5.955-.35-10.722Z" fill="#91202B"/></svg>