<svg width="1109" height="498" fill="none" xmlns="http://www.w3.org/2000/svg"><mask id="a" style="mask-type:luminance" maskUnits="userSpaceOnUse" x="92" y="0" width="902" height="498"><path d="M993.255.795H92.027v496.724h901.228V.795Z" fill="#fff"/></mask><g mask="url(#a)"><path d="M984.588 253.421c-1.552 0-1.535-1.204.122-5.895 1.988-5.615 1.901-6.034-1.604-8.719-2.703-2.041-3.68-4.256-3.68-8.389 0-3.087.785-6.4 1.744-7.359a3.904 3.904 0 0 0 .649-4.315 3.9 3.9 0 0 0-3.753-2.225c-3.488 0-9.383-6.836-9.383-10.969a2.635 2.635 0 0 1 2.302-2.86c3.314 0 2.826-4.238-.61-5.319a11.318 11.318 0 0 0-4.22-.628 16.232 16.232 0 0 1-5.354-.837c-3.017-.837-3.854-1.884-3.279-4.081.576-2.197 0-2.947-1.744-2.947a2.454 2.454 0 0 0-2.476 2.424c0 4.708-5.406 1.36-9.225-5.738a119.256 119.256 0 0 0-6.47-10.76c-2.86-3.976-2.163-10.463 1.133-10.463 1.43 0 1.744-1.744 1.116-6.523-.767-5.667-.575-6.278 1.43-4.621 2.006 1.657 2.337 1.011 2.529-4.29.349-8.72 4.063-15.26 8.632-15.26 3.488 0 3.593-.296 2.128-5.563-.837-3.069-1.744-6.975-2.128-8.719-.383-1.744-1.342-5.337-2.249-8.092a78.621 78.621 0 0 1-2.041-16.166c-.261-6.976-1.116-11.44-2.249-11.807-2.477-.837-2.32-3.488.209-3.488 2.965 0 8.72-6.679 7.481-8.615-1.238-1.935-12.207-2.493-13.48-.383-.645 1.029-1.378 1.098-1.988.157-1.465-2.285-7.865-3.924-7.865-2.006 0 .89-1.483 1.64-3.296 1.64a7.097 7.097 0 0 0-5.11 2.51c-1.744 2.32-1.918 2.338-2.808 0-.61-1.569.122-3.069 2.023-4.08 5.633-3.017 6.505-6.976 3.017-13.864-2.284-4.5-3.906-6.017-5.79-5.459-3.645 1.099-8.283-2.72-7.08-5.807 1.203-3.087 3.052-3.244 4.447-.96a6.505 6.505 0 0 0 4.709 1.535c2.86 0 3.749-.82 3.801-3.487.169-2.336.978-4.58 2.337-6.488 1.744-2.39 2.86-2.686 4.918-1.378 2.058 1.308 3.488.733 7.185-3.104 2.511-2.633 4.43-5.232 4.238-5.93-.192-.697.383-1.133 1.221-1.133.837 0 1.534-1.029 1.534-2.25 0-1.22-.872-1.918-2.546-1.29-1.674.628-2.197.401-1.447-.802.749-1.203.226-1.866-.907-1.918-3.785-.21-9.505-1.483-10.307-2.302-.453-.454.192-1.483 1.448-2.285 1.255-.802 1.744-1.866.715-2.598a4.846 4.846 0 0 1-1.744-3.07c-.558-6.976-.401-6.87-4.831-3.75a34.41 34.41 0 0 1-7.604 4.012c-1.935.61-3.034 1.9-2.598 3.07a4.959 4.959 0 0 1-1.604 4.429c-3.314 3.296-3.017 4.133 1.43 4.133 2.284 0 3.854.89 3.854 2.162 0 1.744-1.936 1.988-9.261 1.326-8.144-.75-9.12-.54-8.266 1.744.733 1.883.331 2.302-1.482 1.587a2.475 2.475 0 0 0-3.401 1.517c-.523 1.343-1.604 2.04-2.424 1.534-.82-.505-2.633.105-4.046 1.326a45.148 45.148 0 0 1-7.202 4.552c-14.126 7.115-20.073 11.84-24.276 19.305-1.517 2.703-2.459 4.918-2.058 4.918.402 0-1.273 2.127-3.679 4.69-5.11 5.477-4.465 9.14 1.587 9.14 5.388 0 8.841 3.679 6.295 6.748a4.917 4.917 0 0 1-4.621 1.395 3.698 3.698 0 0 0-3.784.785 3.492 3.492 0 0 1-3.576.924c-1.918-.505-3.208.645-4.464 3.976a11.67 11.67 0 0 1-5.528 6.104c-3.593 1.36-6.348 6.33-5.807 10.464.662 5.354-11.284 9.138-13.185 4.185-.593-1.552-3.034-2.302-7.481-2.302-5.511 0-7.29.802-10.586 4.726-2.197 2.599-3.976 5.581-3.976 6.627 0 3.052-6.976 8.72-9.487 7.813a22 22 0 0 0-8.72.558c-5.964 1.36-6.382 1.238-5.528-1.447 1.029-3.279-.366-3.61-5.999-1.465-3.156 1.203-3.941 2.65-4.325 8.057-.523 7.307-2.825 8.719-4.482 2.773-.575-2.128-1.133-2.983-1.221-1.936-.209 2.685-2.877 2.406-3.487-.349-.419-1.883-1.587-1.744-6.976 1.029-3.488 1.744-6.365 3.697-6.278 4.185a11.313 11.313 0 0 1-1.064 3.75c-.698 1.552-.61 3.278.157 3.819a16.316 16.316 0 0 1 3.191 5.075c1.605 3.645 1.43 4.168-1.569 4.987-3 .82-2.947 1.169-1.047 2.39 3.785 2.441-.523 5.615-4.952 3.644-4.43-1.97-7.325-1.011-7.325 2.512 0 3.226-4.621 4.865-8.144 2.895-2.058-1.151-2.372-.576-1.936 3.644a69.758 69.758 0 0 0 1.081 7.22c.681 2.669-3.836 2.825-9.8.384-2.634-1.081-4.238-2.895-4.238-4.796 0-1.901-.75-2.773-2.145-2.232-2.564.994-4.726-1.744-2.477-3.209 2.25-1.465 1.884-3.854-.697-3.854a1.426 1.426 0 0 1-1.376-.62 1.437 1.437 0 0 1-.054-1.508c.453-1.22-1.116-3.487-3.715-5.353-4.098-2.913-4.743-2.983-6.54-.803-1.325 1.605-3.487 2.128-6.26 1.552-5.023-.994-6.662.89-4.412 5.11 1.395 2.599.959 3.401-2.913 5.406-5.807 3-13.044 3.017-16.027 0a10.22 10.22 0 0 0-6.295-2.302c-4.639 0-11.946 4.308-10.69 6.313.453.75 0 1.361-.837 1.361a3.484 3.484 0 0 1-2.564-2.302c-1.116-2.93-6.243-2.965-9.156 0a4.664 4.664 0 0 1-1.987 1.272 4.66 4.66 0 0 1-2.355.14c-1.256-.471-2.546.506-3.139 2.372a4.514 4.514 0 0 1-4.186 3.191 7.526 7.526 0 0 0-5.231 2.686c-1.134 1.5-2.058 1.866-2.076.837-.017-1.029 3.052-5.144 6.854-9.156 3.802-4.011 6.976-8.022 6.976-8.894 0-.872 2.424-4.15 5.371-7.254 6.051-6.383 6.54-8.458 2.668-11.423-2.18-1.744-2.284-2.302-.61-3.488s.854-2.319-3.209-5.406c-5.842-4.465-12.626-5.232-13.951-1.744-1.326 3.488-4.046 2.808-4.046-.785 0-1.744-.855-3.069-1.919-3.087a9.689 9.689 0 0 1-4.22-1.534c-1.849-1.204-1.918-1.744-.314-2.791 1.605-1.046 1.605-1.621 0-3.016-3.488-2.843-10.812 5.022-9.993 10.62.559 3.784.123 4.412-2.929 4.412-1.954 0-3.488.523-3.488 1.169 0 1.552-7.604 4.97-11.057 4.97-1.517 0-2.755-.68-2.755-1.535 0-2.406-4.168-1.744-5.232.767-.523 1.378-2.825 2.32-5.685 2.32-5.703 0-15.591 4.342-14.388 6.313.489.767-.122 1.744-1.325 2.215-1.203.471-2.058 2.842-1.831 6.975.279 4.622-.331 6.488-2.511 7.639-2.18 1.151-2.878 1.029-2.878-.436 0-1.465-3.121-2.04-10.568-2.215l-10.464-.261-.941 5.615c-.663 4.063-.279 6.121 1.36 7.342a5.88 5.88 0 0 1 2.284 3.924 6.317 6.317 0 0 0 1.744 3.871c1.204 1.221 1.204 2.546 0 4.831a19.568 19.568 0 0 0-1.744 7.726 28.286 28.286 0 0 1-1.482 8.493c-.942 2.493-.942 4.22 0 4.795a3.212 3.212 0 0 1 1.482 2.355c0 1.744-4.551 1.988-4.726.296a52.361 52.361 0 0 0-1.587-7.29 9.646 9.646 0 0 1 1.535-5.231c1.186-2.145 1.326-3.209.314-2.581-1.011.627-1.744-.471-1.744-3.035 0-2.563.959-4.325 3.052-4.883 4.168-1.081 3.872-2.982-.576-4.098a6.559 6.559 0 0 1-4.638-4.761c-.541-2.128-2.041-3.854-3.349-3.854-1.308 0-2.023-.558-1.604-1.221.418-.662-.506-1.325-2.041-1.43-2.04-.157-2.581.593-2.023 2.756.559 2.162 0 2.947-1.743 2.947-1.361 0-2.477-.68-2.477-1.535 0-.854-1.029-1.517-2.302-1.517-3.191 0-2.877 4.011.489 6.418 3.836 2.772 5.441 7.394 2.546 7.394-1.256 0-2.267-.576-2.267-1.291s-1.744-2.092-3.942-3.086c-3.243-1.483-3.889-2.721-3.488-6.784a18.192 18.192 0 0 1 2.808-8.04c2.337-2.982 2.32-2.982-.802-.383a11.244 11.244 0 0 1-5.058 2.703c-3.609 0-5.667 3.488-5.057 8.719a9.464 9.464 0 0 1-2.529 8.58c-4.691 5.006-6.975 11.999-4.569 13.568a9.902 9.902 0 0 0 4.395 1.291c3.331 0 9.103 6.975 9.103 11.039a11.057 11.057 0 0 1-2.668 6.261c-2.424 2.685-2.441 3.121-.227 4.743a12.38 12.38 0 0 1 3.593 5.389l1.133 3.592-3.435-2.964a11.132 11.132 0 0 0-4.744-3.227c-2.092 0-1.953-6.644.192-8.719 2.616-2.634.314-9.139-3.61-10.167-3.923-1.029-5.842.366-6.26 5.51-.419 5.145-6.645 10.83-15.696 14.824-6.226 2.773-7.429 2.842-12.085.889-4.657-1.953-7.081-4.813-7.081-8.719 0-.96.907-.838 2.302.331 1.396 1.168 2.302 1.343 2.302.663 0-.681.872 0 1.936 1.395 1.744 2.476 2.285 2.494 6.976.192 2.738-1.361 4.97-3.14 4.97-3.942s1.744-2.11 3.802-2.895c2.058-.784 3.488-2.284 2.999-3.61a2.564 2.564 0 0 1 1.744-3.139c1.831-.715 2.285-2.04 1.587-4.813-.61-2.424.192-6.208 2.145-10.254a38.476 38.476 0 0 0 3.105-7.778 8.07 8.07 0 0 1 2.441-3.802 7.178 7.178 0 0 0 1.744-6.418c-.575-2.877.453-5.423 3.68-9.295 5.65-6.714 5.859-11.876.54-13.951-2.162-.82-4.098-1.5-4.272-1.5-.175 0-3.645 3.104-7.674 6.976-4.028 3.871-8.719 6.975-10.289 6.975-2.127 0-2.999 1.064-2.999 3.645a14.785 14.785 0 0 1-3.07 7.517c-3.365 4.29-4.063 8.806-1.36 8.806 1.221 0 1.186.646-.122 2.233a6.473 6.473 0 0 0-.82 5.441c1.099 3.488-1.447 7.673-4.604 7.673-1.046 0-2.336-2.058-2.825-4.552a17.44 17.44 0 0 0-3.906-7.551c-1.64-1.639-2.651-3.348-2.215-3.767 1.5-1.517-1.081-6.452-6.453-12.207-5.685-6.156-9.94-6.645-9.94-1.151 0 3.488-2.162 5.232-7.22 5.702-2.999.314-3.4-.156-2.633-3.208.767-3.052.436-3.488-3.872-3.262a8.943 8.943 0 0 1-7.237-2.424 5.833 5.833 0 0 0-2.65-1.783 5.814 5.814 0 0 0-3.192-.117 5.238 5.238 0 0 1-5.371-1.587c-1.744-2.041-1.57-2.93.732-5.494 2.651-2.93 2.633-3.034-.471-3.034a5.464 5.464 0 0 0-2.234.323 5.477 5.477 0 0 0-1.916 1.194c-.541.889-2.302.244-4.221-1.535-3.819-3.488-16.271-4.639-25.862-2.249-5.389 1.342-8.72-2.198-7.918-8.197.75-5.022 5.633-7.534 9.104-4.656 1.482 1.238 2.337.645 3.488-2.459 2.092-5.528 1.988-6.488-.89-7.604-1.552-.593-3.488.436-5.406 2.808a12.208 12.208 0 0 1-6.348 4.238 4.761 4.761 0 0 0-3.976 3.488 8.23 8.23 0 0 1-7.726 6.975c-3.278 0-5.79-2.459-3.383-3.33.82-.28.628-1.622-.436-3.052s-5.232-2.948-10.464-3.593c-8.51-1.064-8.58-1.046-10.184 3.488-2.982 8.58-10.202 3.401-9.818-6.976.157-4.15-.332-5.075-2.459-4.673-1.64.331-2.634 1.953-2.634 4.342a13.008 13.008 0 0 1-1.238 5.72 3.648 3.648 0 0 1-3.788 1.807 3.648 3.648 0 0 1-2.978-2.958c-.436-1.744-1.552-3.087-2.459-3.087s-1.029-.628.174-1.831a11.267 11.267 0 0 0 1.849-6.644c0-5.232 4.429-10.359 10.359-12.208a4.865 4.865 0 0 0 3.644-4.778c.227-4.412.332-4.831 2.529-10.115 2.32-5.563 4.935-6.976 4.918-2.529 0 13.69 4.935 29.246 10.551 32.908 3.087 2.023 4.743 2.145 9.487.733a19.841 19.841 0 0 0 7.359-3.662c2.337-2.826 2.738-34.879.471-39.117-.994-1.9-2.441-3.488-3.174-3.488-1.744 0-.087-6.574 1.988-7.934 1.029-.68.855-1.884-.471-3.488-1.325-1.605-2.389-2.128-2.807-1.744-.419.383-2.634-.576-4.918-2.198a11.495 11.495 0 0 0-9.679-2.075c-4.674.75-5.703 1.657-6.575 5.703-1.203 5.528-2.947 6.975-8.336 7.115-4.499.087-7.464 2.232-11.196 8.04-1.482 2.336-3.488 4.22-4.656 4.22-4.046 0-10.219 3.958-10.237 6.54 0 1.656-1.186 2.685-3.087 2.685-1.901 0-2.895.837-2.668 1.884.227 1.046-1.151 2.11-2.999 2.389-3.488.523-6.017 5.232-4.378 7.865 1.64 2.633-3.976 6.278-10.568 6.278a119.022 119.022 0 0 1-26.089-4.22c-1.884-.593-2.529-.314-1.831.802.697 1.116.226 1.744-.785 1.744-1.011 0-1.517 1.866-.837 6.139 1.064 6.609-.89 8.248-3.645 3.104-3.104-5.808-6.976-6.505-14.911-2.721a32.976 32.976 0 0 0-9.382 6.139c-2.511 3.383-5.11 3.488-3.837.209.803-2.11.454-2.215-2.354-.697-1.744.959-3.313 2.424-3.313 3.226s-.925 1.482-2.058 1.482c-1.134 0-2.825 1.744-3.802 3.854-.977 2.11-2.79 3.837-4.081 3.837-2.685 0-3.156 3.906-.662 5.458a3.764 3.764 0 0 1 .906 3.924c-.418 1.587-.122 3.279.628 3.75 2.564 1.569 1.517 8.109-1.43 9.051a16.93 16.93 0 0 0-5.877 4.325c-3.645 4.098-7.446 15.468-5.982 17.84.681 1.116-.645 1.744-3.801 1.744-3.488 0-5.04-.82-5.633-3.069-1.081-4.099-2.163-3.889-7.203 1.377l-4.272 4.465 5.755 5.232c4.83 4.429 5.563 5.946 4.691 9.434a8.423 8.423 0 0 1-4.935 5.616c-3.663 1.395-3.732 1.744-1.483 4.9 3.104 4.43 3.035 5.092-.907 8.72a13.707 13.707 0 0 0-3.644 7.656c-.314 3.958.261 4.726 4.185 5.58 3.924.855 4.412 1.57 3.662 4.534a13.507 13.507 0 0 0 1.395 7.9c3.488 6.558 3.035 14.458-.767 15.469-1.744.436-3.069 1.395-3.069 2.145s-.994 1.36-2.232 1.36a4.503 4.503 0 0 0-3.488 2.111c-1.587 2.738-8.127 4.795-8.127 2.563 0-2.232-7.604-5.022-10.621-3.854-2.145.82-2.127 1.099.262 2.424 2.686 1.517 3.767 5.964 1.448 5.964-2.32 0-9.435-3.819-9.435-5.04 0-.68-.698-.819-1.535-.296a6.4 6.4 0 0 0-1.552 4.709c0 3.383-.314 3.575-3.069 1.848-2.459-1.552-3.697-1.535-6.261 0s-3.627 1.517-6.976-2.005l-3.697-3.994.924 18.852c.785 16.114 1.343 19.183 3.82 20.927a7.135 7.135 0 0 1 2.912 5.092c0 3.802 3.959 11.632 6.261 12.4.941.331 2.092 3.941 2.546 8.022.697 6.138 1.622 7.865 5.232 9.923 4.394 2.511 5.144 5.144 4.447 15.782-.14 2.233.471 4.517 1.377 5.075.907.558 1.622 4.063 1.622 7.778 0 7.115 2.546 9.94 8.947 9.94 2.284 0 3.243-1.412 3.993-5.755 2.546-14.84 2.163-14.213 8.72-14.213 3.575 0 6.016-.715 6.016-1.743 0-1.029-.418-1.361-.959-.82-.54.54-2.302.244-3.941-.628-2.459-1.308-2.633-1.988-1.011-3.924a11.202 11.202 0 0 0 1.604-6.819c-.314-4.168 1.221-5.353 6.121-4.673a16.231 16.231 0 0 0 5.232-1.988c3.61-1.866 4.918-1.744 10.464.54 6.138 2.581 16.358 2.25 12.085-.401-2.668-1.657-2.372-7.15.401-7.15a2.2 2.2 0 0 0 2.337-1.901 25.71 25.71 0 0 1 .889-5.232c.593-2.232-.261-4.342-2.703-6.627-3.383-3.139-3.488-3.487-.819-4.917 2.145-1.204 2.371-2.023 1.011-3.663-1.36-1.639-1.168-2.93.698-5.58 1.325-1.919 2.424-2.721 2.424-1.744 0 3.139 6.156.209 6.975-3.349.681-2.703 2.285-3.644 7.255-4.325 6.522-.872 9.156.681 7.656 4.57-1.238 3.226.732 6.696 3.226 5.737a5.527 5.527 0 0 0 2.756-4.098c.383-2.651 1.656-3.296 6.975-3.488 3.593-.174 6.523.366 6.523 1.203 0 .837 2.511 1.186 6.051.68 5.371-.749 6.087-.47 6.522 2.547.349 2.546 1.361 3.278 3.942 2.929 3.261-.453 4.15.872 3.575 5.372-.122 1.011 1.081 2.546 2.685 3.488 2.372 1.255 2.826 2.929 2.407 8.894-.384 5.598-.139 6.714 1.064 4.638 2.145-3.679 4.464-1.9 4.464 3.401 0 3.331.89 4.587 3.715 5.232a12.21 12.21 0 0 0 5.982 0 4.233 4.233 0 0 1 4.359 2.128 9.748 9.748 0 0 0 5.232 3.487 4.796 4.796 0 0 1 3.575 4.395c.663 4.813 3.244 8.022 5.685 7.08 1.029-.401 3.366.994 5.232 3.105 1.866 2.11 4.5 3.575 5.93 3.278 2.685-.54 2.685-.819.837-14.248-.68-5.022-.471-5.79 1.151-4.22 3.4 3.261 7.551 2.372 7.132-1.535-.418-3.906 5.232-5.633 9.313-2.424 2.25 1.744 2.372 1.744.837-.261-1.936-2.494-1.081-10.237 1.291-11.702.784-.471 2.65.227 4.15 1.569a9.327 9.327 0 0 0 4.901 2.459 69.85 69.85 0 0 1 11.387 3c15.87 5.232 29.647 7.621 34.687 6.156 3.697-1.064 5.232-.715 7.621 1.744a10.306 10.306 0 0 0 5.982 2.982c2.424 0 2.912.959 2.633 5.232a14.917 14.917 0 0 1-1.447 6.4c-2.459 2.459-.925 5.232 2.895 5.232 2.912 0 3.767.628 3.121 2.319-.505 1.256 0 2.32.977 2.355a11.618 11.618 0 0 1 4.935 2.354c2.407 1.744 2.634 2.581 1.029 3.488-1.604.907-1.43 1.517.767 2.441 5.232 2.198 11.074 2.285 13.167.192 1.517-1.517 3.802-1.744 8.162-.907 5.232 1.012 5.598 1.326 2.598 2.285-4.36 1.395-4.325 2.424.227 7.342 2.023 2.18 3.366 4.272 2.965 4.673-.401.402.366 4.36 1.744 8.825a75.375 75.375 0 0 1 2.424 17.805c0 7.586.488 9.697 2.302 9.697a2.305 2.305 0 0 0 2.284-2.302c0-3.907 4.412-2.547 6.819 2.11 2.407 4.656 7.342 6.975 9.94 4.325 1.169-1.169 3.192-.907 6.976.924 4.412 2.093 5.389 3.488 5.389 7.202 0 2.878.785 4.622 2.092 4.622 1.308 0 2.704 2.249 3.488 5.005 1.204 4.238 2.215 5.057 6.732 5.476a14.841 14.841 0 0 1 8.877 4.238c1.953 2.075 4.028 3.487 4.603 3.121a33.012 33.012 0 0 1 6.575-1.5c8.109-1.29 10.464-2.528 9.592-4.9-.576-1.517.436-2.075 3.488-1.953 4.4-.367 8.72-1.39 12.817-3.035 6.47-2.476 8.807-2.79 9.976-1.377.837 1.011 3.784 1.621 6.539 1.36 3.715-.366 5.232.227 5.982 2.302 1.483 4.185 5.354 8.214 6.976 7.237a3.176 3.176 0 0 1 3.261.576 20.142 20.142 0 0 0 6.801 2.389c4.029.767 5.72.192 8.947-3.052 2.842-2.843 3.488-4.447 2.337-5.615-2.86-2.878-1.744-9.854 2.18-14.597a16.875 16.875 0 0 0 3.941-8.162c0-2.947.314-3.121 1.168-.942 1.169 2.948 11.126 8.842 14.911 8.842 3.784 0 11.457 4.5 11.457 6.784 0 3.192 8.528 11.632 11.755 11.615a19.996 19.996 0 0 0 7.219-2.302c6.505-3.384 17.44-3.017 19.323.645a3.787 3.787 0 0 0 4.744 2.093c2.075-.541 4.272.348 6.295 2.528 2.599 2.773 4.622 3.296 11.964 3.017 4.848-.174 9.539.122 10.463.663.924.541 2.79-.384 4.29-2.023a16.195 16.195 0 0 1 7.761-3.959c3.488-.662 5.231-1.988 5.912-4.482.488-1.935 3.348-4.987 6.348-6.766 4.917-2.877 5.894-2.982 9.643-1.046 3.488 1.744 4.657 1.744 6.854.174 2.198-1.569 3.889-1.5 9.452.488l6.802 2.442 4.272-4.552c3.767-4.028 4.29-5.807 4.43-14.945.087-5.755.959-11.231 1.953-12.208 2.93-2.912 2.18-10.149-1.238-12.294-4.43-2.756-3.819-5.232 2.284-9.226 2.93-1.901 5.354-4.15 5.354-5.005 0-1.744 1.936-2.04 18.451-3.191 10.777-.733 11.771-.541 15.695 3.121 2.285 2.145 4.866 3.907 5.755 3.907a1.533 1.533 0 0 1 1.587 1.465c0 .802 1.744 3.383 3.976 5.737l3.994 4.29-3.593.959c-3.487.89-3.487.994-.523 2.041 3.488 1.221 4.866 2.023 10.342 5.912 4.412 3.121 9.975 4.534 11.039 2.79.418-.645 3.366-.924 6.575-.61 3.208.313 7.603.645 9.818.732 2.843.14 4.761 1.622 6.697 5.232 3.086 5.755 7.882 7.656 11.108 4.429a7.416 7.416 0 0 1 3.488-2.214c.698 0 1.744-1.605 2.145-3.488a10.464 10.464 0 0 1 4.709-5.598c2.093-1.116 3.697-2.459 3.488-2.965-.384-1.395 4.028-7.848 5.371-7.848.645 0 1.151 1.657 1.151 3.663a8.128 8.128 0 0 0 2.337 5.563c1.744 1.5 1.901 2.424.523 4.098-1.378 1.674-1.308 3.122.192 6.313 5.075 10.708 5.127 10.934 3.226 13.236a4.064 4.064 0 0 0-.314 5.232c2.145 4.029.436 9.522-3.069 9.766-1.587.105-3.488.279-4.447.384-.959.105-2.476 1.971-3.61 4.15-1.744 3.488-1.744 4.378.68 7.325a45.736 45.736 0 0 1 5.354 11.266c2.511 7.551 2.494 7.987-.174 9.94-2.669 1.953-2.668 2.041.366 2.041 2.511 0 3.366-1.273 4.168-6.226l.977-6.226 6.504.889c5.407.715 7.168.279 10.551-2.773 5.232-4.76 10.76-17.195 9.592-21.816a8.593 8.593 0 0 1 .296-5.511c1.919-3.104 2.337-8.196 3.07-37.599.68-27.781.68-27.903-3.488-36.03a65.66 65.66 0 0 0-6.697-10.969c-3.279-3.488-6.452-13.951-5.232-17.038.576-1.5-1.116-4.43-4.569-7.865-3.017-3.017-5.458-5.982-5.424-6.61 0-1.046-4.708-2.546-13.951-4.429-4.238-.855-9.103 2.947-6.121 4.795 2.441 1.5 1.936 5.407-.698 5.407a2.32 2.32 0 0 0-2.302 2.319 2.3 2.3 0 1 1-4.604 0c0-3.261-3.069-2.877-3.121.384 0 2.162-.785 1.848-3.75-1.535-2.058-2.319-4.115-3.488-4.656-2.668-.541.82-2.965 1.5-5.459 1.5-3.487 0-4.516-.698-4.516-2.965a5.061 5.061 0 0 1 1.552-3.924 6.625 6.625 0 0 0 1.534-4.796 17.816 17.816 0 0 1 1.744-6.975c.942-1.744 1.64-7.691 1.552-13.202-.087-5.511.593-10.917 1.5-11.998.907-1.081 1.744-5.406 1.919-9.609.174-4.203.784-8.162 1.43-8.807.645-.645.715-3.488.191-6.261-1.116-5.929 1.186-10.149 9.801-18.05 3.872-3.487 6.261-4.743 7.447-3.749 1.186.994 1.744.645 1.552-1.186a5.34 5.34 0 0 1 3.069-4.342c5.72-2.93 7.831-5.337 8.72-10.045.82-4.133 2.947-5.476 7.516-4.761.628.104 1.151-.924 1.151-2.285 0-1.744.942-2.249 3.069-1.744 1.744.454 3.488.157 3.977-.645.488-.802 2.215-1.029 3.836-.523 1.919.61 2.93.209 2.93-1.203 0-1.413 1.744-3.628 3.837-5.459 2.093-1.831 3.854-4.133 3.854-5.11 0-.976-1.238-.68-2.982.89-2.825 2.581-3.035 2.494-5.145-1.744a47.751 47.751 0 0 1-3.087-13.289c-.488-4.9-1.743-9.888-2.65-11.056-1.866-2.267-.663-11.493 1.517-11.493.663 0 1.604-1.378 2.04-3.069a3.927 3.927 0 0 1 3.244-3.052 2.393 2.393 0 0 0 2.442-2.302c0-3.348 2.546-2.843 5.231 1.046a9.466 9.466 0 0 0 4.866 3.732c2.023.297 2.319-.54 1.587-4.325a58.244 58.244 0 0 1-.959-9.574 13.584 13.584 0 0 0-3.052-8.196c-3.488-3.82-3.785-6.191-.942-9.958 2.843-3.767 5.232-3.296 5.232 1.325a12.027 12.027 0 0 0 4.482 8.075c7.69 6.975 8.615 8.719 6.383 12.329-1.64 2.616-1.518 4.36.697 10.324 1.884 5.11 2.18 7.726 1.029 9.121-1.151 1.395-1.134 2.25 0 2.93a4.929 4.929 0 0 1 1.605 3.784 6.974 6.974 0 0 0 2.302 4.709c2.842 2.354 3.173 18.468.453 21.189-1.116 1.116-1.203 1.831-.244 1.831 1.97 0 5.232 6.731 5.232 10.829 0 5.145 23.717 27.049 36.535 33.711a49.015 49.015 0 0 1 10.708 7.847c5.615 5.947 9.574 5.877 9.574-.157s-6.121-19.968-8.72-19.968" fill="#C7C6C6"/></g><mask id="b" style="mask-type:luminance" maskUnits="userSpaceOnUse" x="121" y="103" width="20" height="19"><path d="M140.962 103.757h-19.236v17.544h19.236v-17.544Z" fill="#fff"/></mask><g mask="url(#b)"><path d="M126.696 112.162a4.883 4.883 0 0 1 4.744 2.686 20.89 20.89 0 0 0 2.493 4.674c2.913 3.732 6.418 1.36 6.976-4.691.349-4.378-.105-5.738-1.936-5.738-1.308 0-2.389-.523-2.424-1.151a3.845 3.845 0 0 0-.98-2.946 3.84 3.84 0 0 0-5.678 0 3.829 3.829 0 0 0-.98 2.946c0 2.529-.698 2.895-3.976 2.075-2.564-.645-3.61-.436-2.965.593a6.443 6.443 0 0 0 4.778 1.605" fill="#C7C6C6"/></g><path d="M213.474 113.697a5.928 5.928 0 0 1-2.337-2.25 6.227 6.227 0 0 1-.837-3.226 6.156 6.156 0 0 1 .855-3.226 5.991 5.991 0 0 1 2.337-2.232 6.978 6.978 0 0 1 3.348-.82 6.963 6.963 0 0 1 2.738.523 5.69 5.69 0 0 1 2.093 1.517l-1.465 1.378a4.324 4.324 0 0 0-3.261-1.43 4.575 4.575 0 0 0-2.25.558 3.944 3.944 0 0 0-1.552 1.517 4.305 4.305 0 0 0-.558 2.215 4.221 4.221 0 0 0 .558 2.215c.359.65.898 1.182 1.552 1.535a4.57 4.57 0 0 0 2.25.54 4.217 4.217 0 0 0 3.261-1.447l1.465 1.395a5.602 5.602 0 0 1-2.111 1.517 6.962 6.962 0 0 1-2.737.523 6.973 6.973 0 0 1-3.349-.802ZM232.675 105.902a3.782 3.782 0 0 1 1.099 2.964v5.459h-2.058v-1.134a2.561 2.561 0 0 1-1.151.942 4.524 4.524 0 0 1-1.744.314 4.296 4.296 0 0 1-1.831-.349 2.917 2.917 0 0 1-1.221-.994 2.563 2.563 0 0 1-.418-1.447 2.42 2.42 0 0 1 .924-2.006 4.655 4.655 0 0 1 2.947-.767h2.407v-.14a1.933 1.933 0 0 0-.593-1.5 2.503 2.503 0 0 0-1.744-.523 5.237 5.237 0 0 0-1.552.244 4.194 4.194 0 0 0-1.273.681l-.855-1.587a5.535 5.535 0 0 1 1.744-.855 8.032 8.032 0 0 1 2.18-.296 4.512 4.512 0 0 1 3.139.994Zm-1.988 6.592c.42-.243.742-.626.907-1.082v-1.081h-2.25c-1.255 0-1.883.419-1.883 1.238a1.096 1.096 0 0 0 .471.942c.384.259.845.382 1.308.349a2.84 2.84 0 0 0 1.447-.366ZM239.093 105.012h2.18v3.784h4.691v-3.784h2.18v9.313h-2.18v-3.68h-4.691v3.68h-2.18v-9.313ZM257.544 110.593h-1.675v3.732h-2.18v-9.313h2.18v3.767h1.744l2.756-3.767h2.319l-3.383 4.482 3.61 4.831h-2.546l-2.825-3.732ZM274.32 106.861h-3.261v7.464h-2.18v-7.464H265.6v-1.849h8.72v1.849ZM282.569 108.57h-4.796v1.814h4.796v-1.814ZM298.648 102.117v12.208h-2.215v-10.289h-6.33v10.289h-2.25v-12.208h10.795ZM313.14 110.366h-7.307a2.579 2.579 0 0 0 1.012 1.639c.585.413 1.29.621 2.005.593a3.363 3.363 0 0 0 2.529-1.011l1.168 1.343a3.742 3.742 0 0 1-1.587 1.133 6.278 6.278 0 0 1-2.455.376 6.275 6.275 0 0 1-2.41-.602 4.313 4.313 0 0 1-1.744-1.744 4.9 4.9 0 0 1-.645-2.477 4.788 4.788 0 0 1 .627-2.441 4.465 4.465 0 0 1 1.744-1.744 5.11 5.11 0 0 1 2.477-.611 4.922 4.922 0 0 1 2.441.611 4.218 4.218 0 0 1 1.744 1.744c.404.774.608 1.638.593 2.511.014.215.014.43 0 .645m-6.435-3.086c-.493.414-.811 1-.889 1.639h5.231a2.508 2.508 0 0 0-.854-1.639 2.804 2.804 0 0 0-3.488 0ZM325.208 106.861h-3.261v7.464h-2.18v-7.464h-3.279v-1.849h8.72v1.849ZM337.694 110.366h-7.307a2.579 2.579 0 0 0 1.012 1.639c.585.413 1.29.621 2.005.593a3.37 3.37 0 0 0 2.529-1.011l1.169 1.343c-.42.511-.968.902-1.587 1.133a6.285 6.285 0 0 1-2.456.376 6.28 6.28 0 0 1-2.41-.602 4.313 4.313 0 0 1-1.744-1.744 4.9 4.9 0 0 1-.645-2.477 4.789 4.789 0 0 1 .628-2.441 4.458 4.458 0 0 1 1.744-1.744c.76-.41 1.612-.62 2.476-.611a4.922 4.922 0 0 1 2.441.611 4.212 4.212 0 0 1 1.744 1.744c.405.774.608 1.638.593 2.511.015.215.015.43 0 .645m-6.557-3.052c-.493.415-.811 1-.889 1.64h5.231a2.51 2.51 0 0 0-.854-1.64 2.81 2.81 0 0 0-3.488 0ZM350.338 105.5a4.301 4.301 0 0 1 1.744 1.744c.421.763.632 1.623.61 2.494a4.967 4.967 0 0 1-.61 2.511 4.078 4.078 0 0 1-1.744 1.744c-.749.406-1.59.61-2.442.593a3.777 3.777 0 0 1-2.982-1.255v4.516h-2.18v-12.835h2.076v1.221a3.603 3.603 0 0 1 1.342-.994 4.695 4.695 0 0 1 1.744-.331 5.115 5.115 0 0 1 2.442.592Zm-.698 6.279a3.281 3.281 0 0 0 0-4.221 2.702 2.702 0 0 0-1.988-.802 2.762 2.762 0 0 0-1.412.366c-.418.24-.762.59-.994 1.012-.25.472-.376 1-.367 1.534a3.076 3.076 0 0 0 .367 1.535c.227.43.571.787.994 1.029.43.242.919.362 1.412.349a2.645 2.645 0 0 0 1.988-.802ZM364.778 106.041a4.155 4.155 0 0 1 1.587 1.57 4.63 4.63 0 0 1 .558 2.319 4.525 4.525 0 0 1-.628 2.389 4.132 4.132 0 0 1-1.744 1.605 5.563 5.563 0 0 1-2.581.575 4.59 4.59 0 0 1-3.75-1.604 7.118 7.118 0 0 1-1.325-4.622 7.397 7.397 0 0 1 1.203-4.447 5.934 5.934 0 0 1 3.68-2.162l4.325-.924.314 1.953-3.924.802a5.038 5.038 0 0 0-2.529 1.186 3.747 3.747 0 0 0-.976 2.354c.418-.487.935-.88 1.517-1.151a4.905 4.905 0 0 1 4.29.157m-.82 5.93a2.808 2.808 0 0 0 .733-1.989 2.615 2.615 0 0 0-.733-1.935 2.646 2.646 0 0 0-1.953-.733 2.717 2.717 0 0 0-1.97.733 2.628 2.628 0 0 0-.75 1.935 2.677 2.677 0 0 0 .767 1.989 2.586 2.586 0 0 0 1.953.767 2.557 2.557 0 0 0 1.953-.767ZM380.16 105.012l-4.36 10.063a4.624 4.624 0 0 1-1.483 2.145 3.595 3.595 0 0 1-2.11.61 4.227 4.227 0 0 1-1.378-.227 2.8 2.8 0 0 1-1.116-.628l.872-1.604c.214.208.47.369.75.471.27.116.561.175.855.174.345.021.686-.085.959-.296a2.58 2.58 0 0 0 .68-.994l.157-.366-4.063-9.348h2.267l2.93 6.889 2.947-6.889h2.093ZM391.914 105.5a4.299 4.299 0 0 1 1.743 1.744c.422.763.633 1.623.611 2.494a4.968 4.968 0 0 1-.611 2.511 4.07 4.07 0 0 1-1.743 1.744c-.749.406-1.59.61-2.442.593a3.763 3.763 0 0 1-2.982-1.255v4.516h-2.18v-12.835h2.075v1.221a3.614 3.614 0 0 1 1.343-.994 4.691 4.691 0 0 1 1.744-.331 5.115 5.115 0 0 1 2.442.592Zm-.698 6.279a3.28 3.28 0 0 0 0-4.221 2.702 2.702 0 0 0-1.988-.802 2.768 2.768 0 0 0-1.413.366 2.64 2.64 0 0 0-.994 1.012c-.249.472-.375 1-.366 1.534a3.075 3.075 0 0 0 .366 1.535c.227.43.572.787.994 1.029.431.242.919.362 1.413.349a2.637 2.637 0 0 0 1.988-.802ZM406.126 106.861h-4.97v7.464h-2.18v-9.313h7.15v1.849Z" fill="#1D1D1B"/><path d="M244.656 126.236h-15.137v15.137h15.137v-15.137ZM230.094 214.932h-15.137v15.137h15.137v-15.137Z" fill="#931F2B"/><path d="m217.503 208.793-.018-8.091-4.011 6.696h-1.011l-4.011-6.592v7.987h-2.145v-12.207h1.866l4.83 8.074 4.779-8.074h1.848l.035 12.207h-2.162ZM227.06 208.305a4.313 4.313 0 0 1-1.744-1.744 5.039 5.039 0 0 1 0-4.935 4.572 4.572 0 0 1 1.744-1.744 5.656 5.656 0 0 1 5.11 0 4.502 4.502 0 0 1 1.743 1.744 5.234 5.234 0 0 1 0 4.935 4.269 4.269 0 0 1-1.743 1.744 5.647 5.647 0 0 1-5.11 0Zm4.534-2.058a3.225 3.225 0 0 0 0-4.22 2.705 2.705 0 0 0-1.988-.802 2.63 2.63 0 0 0-1.971.802 3.225 3.225 0 0 0 0 4.22 2.587 2.587 0 0 0 1.971.803 2.637 2.637 0 0 0 1.988-.803ZM240.976 208.305a4.42 4.42 0 0 1-1.744-1.744 5.038 5.038 0 0 1 0-4.935 4.657 4.657 0 0 1 1.744-1.744 5.487 5.487 0 0 1 2.599-.61 5.116 5.116 0 0 1 2.424.558 3.624 3.624 0 0 1 1.552 1.604l-1.744.977a2.608 2.608 0 0 0-.994-.959 2.893 2.893 0 0 0-3.348.47 3.19 3.19 0 0 0 0 4.238 2.748 2.748 0 0 0 2.023.785c.46.006.916-.102 1.325-.314a2.54 2.54 0 0 0 1.064-.82l1.744.977a3.721 3.721 0 0 1-1.57 1.622 4.91 4.91 0 0 1-2.406.558 5.332 5.332 0 0 1-2.599-.611M255.956 205.062h-1.691v3.732h-2.18v-9.296h2.18v3.767h1.744l2.755-3.767h2.337l-3.383 4.465 3.61 4.831h-2.564l-2.808-3.732ZM273.954 206.178a2.231 2.231 0 0 1-.942 1.935 4.74 4.74 0 0 1-2.79.681h-4.743v-9.313h4.551a4.787 4.787 0 0 1 2.668.628 1.989 1.989 0 0 1 .96 1.744c.012.441-.116.875-.367 1.238a2.532 2.532 0 0 1-1.063.82 2.161 2.161 0 0 1 1.743 2.232m-6.4-2.808h2.285c1.133 0 1.744-.384 1.744-1.168 0-.785-.558-1.134-1.744-1.134h-2.285v2.302Zm4.29 2.668a1.058 1.058 0 0 0-.418-.907 2.21 2.21 0 0 0-1.308-.314h-2.564v2.39h2.494c1.203 0 1.744-.384 1.744-1.169M285.516 200.37a3.76 3.76 0 0 1 1.082 2.965v5.458h-2.058v-1.133a2.425 2.425 0 0 1-1.134.942 4.682 4.682 0 0 1-1.744.314 4.3 4.3 0 0 1-1.831-.349 2.843 2.843 0 0 1-1.203-.994 2.582 2.582 0 0 1-.436-1.448 2.438 2.438 0 0 1 .82-2.058 4.64 4.64 0 0 1 2.929-.767h2.407v-.139a1.943 1.943 0 0 0-.575-1.5 2.54 2.54 0 0 0-1.744-.523 5.126 5.126 0 0 0-1.535.244 4.285 4.285 0 0 0-1.291.68l-.854-1.587a5.734 5.734 0 0 1 1.744-.855 8.11 8.11 0 0 1 2.18-.296 4.534 4.534 0 0 1 3.156.994m-1.988 6.592c.416-.243.731-.626.89-1.081v-1.081h-2.25c-1.256 0-1.884.418-1.884 1.238a1.1 1.1 0 0 0 .471.941c.385.26.846.382 1.308.349a2.886 2.886 0 0 0 1.465-.366Z" fill="#1D1D1B"/><path d="M353.094 314.423h-15.137v15.138h15.137v-15.138Z" fill="#931F2B"/><path d="M318.668 302.076v1.901h-9.155V291.77h8.911v1.901h-6.644v3.174h5.894v1.866h-5.894v3.365h6.888ZM327.44 300.245h-1.691v3.732h-2.18v-9.312h2.18v3.766h1.744l2.755-3.766h2.337l-3.383 4.481 3.61 4.831h-2.564l-2.808-3.732ZM343.415 295.554a3.803 3.803 0 0 1 1.081 2.965v5.458h-2.058v-1.133a2.497 2.497 0 0 1-1.134.924 4.343 4.343 0 0 1-1.743.331 4.584 4.584 0 0 1-1.832-.348 2.849 2.849 0 0 1-1.203-.994 2.478 2.478 0 0 1-.436-1.448 2.446 2.446 0 0 1 .942-2.005 4.564 4.564 0 0 1 2.93-.768h2.406v-.139a1.927 1.927 0 0 0-.575-1.5 2.576 2.576 0 0 0-1.744-.523 5.126 5.126 0 0 0-1.535.244c-.471.137-.91.369-1.29.68l-.855-1.587a5.357 5.357 0 0 1 1.744-.854 7.994 7.994 0 0 1 2.18-.297 4.538 4.538 0 0 1 3.157.994m-1.989 6.592c.412-.247.726-.629.89-1.081v-1.081h-2.302c-1.256 0-1.884.418-1.884 1.238a1.1 1.1 0 0 0 .471.942c.389.251.846.373 1.308.348a2.94 2.94 0 0 0 1.465-.366M357.191 296.513h-3.261v7.464h-2.18v-7.464h-3.278v-1.848h8.719v1.848ZM369.695 299.984h-7.324a2.604 2.604 0 0 0 1.011 1.639 3.684 3.684 0 0 0 4.535-.419l1.168 1.343c-.424.507-.97.897-1.587 1.134a5.684 5.684 0 0 1-2.162.383 5.822 5.822 0 0 1-2.616-.592 4.332 4.332 0 0 1-1.744-1.744 5.076 5.076 0 0 1 0-4.918 4.224 4.224 0 0 1 1.744-1.744 5.059 5.059 0 0 1 2.476-.611 4.925 4.925 0 0 1 2.442.611 4.218 4.218 0 0 1 1.744 1.744c.412.771.616 1.637.593 2.511v.645m-6.436-3.087c-.493.415-.811 1-.889 1.64h5.232a2.71 2.71 0 0 0-1.723-2.093 2.702 2.702 0 0 0-2.672.453M382.322 295.153a4.283 4.283 0 0 1 1.744 1.744c.416.764.627 1.624.611 2.494a5.243 5.243 0 0 1-.611 2.511 4.29 4.29 0 0 1-1.744 1.744c-.749.406-1.59.61-2.441.593a3.767 3.767 0 0 1-2.982-1.256v4.517h-2.18v-12.748h2.075v1.221c.36-.436.821-.777 1.343-.994a4.328 4.328 0 0 1 1.744-.332 4.916 4.916 0 0 1 2.441.593m-.697 6.278a3.278 3.278 0 0 0 0-4.22 2.641 2.641 0 0 0-1.988-.802 2.753 2.753 0 0 0-1.413.366 2.521 2.521 0 0 0-.994 1.012 3.391 3.391 0 0 0 0 3.069c.232.426.576.782.994 1.029.434.233.92.353 1.413.349a2.637 2.637 0 0 0 1.988-.803ZM389.384 294.665h2.18v6.138l5.145-6.138h1.988v9.312h-2.18v-6.139l-5.127 6.139h-2.006v-9.312ZM404.243 294.665h2.18v3.784h4.691v-3.784h2.18v9.312h-2.18v-3.68h-4.691v3.68h-2.18v-9.312ZM426.217 295.694c.67.358 1.221.903 1.587 1.569.378.714.57 1.512.558 2.32a4.463 4.463 0 0 1-.628 2.371 4.286 4.286 0 0 1-1.744 1.622 5.614 5.614 0 0 1-2.581.576 4.601 4.601 0 0 1-3.749-1.605 6.971 6.971 0 0 1-1.326-4.621 7.394 7.394 0 0 1 1.204-4.447 5.807 5.807 0 0 1 3.679-2.163l4.325-.924.314 1.953-3.924.802a4.834 4.834 0 0 0-2.528 1.186 3.663 3.663 0 0 0-.977 2.355 4.077 4.077 0 0 1 1.517-1.151 4.511 4.511 0 0 1 1.953-.419 4.64 4.64 0 0 1 2.337.576m-.819 5.911a2.73 2.73 0 0 0 .732-1.97 2.617 2.617 0 0 0-.732-1.936 3.002 3.002 0 0 0-3.924 0 2.564 2.564 0 0 0-.75 1.936 2.675 2.675 0 0 0 .767 1.988 2.638 2.638 0 0 0 1.953.767 2.584 2.584 0 0 0 1.954-.785ZM441.616 294.752l-4.36 10.062a4.737 4.737 0 0 1-1.483 2.145c-.623.417-1.36.63-2.11.611a4.16 4.16 0 0 1-1.377-.227 3.283 3.283 0 0 1-1.117-.628l.872-1.604c.22.2.474.36.75.471.27.118.561.177.855.174.343.009.68-.095.959-.296a2.58 2.58 0 0 0 .68-.994l.157-.367-4.063-9.347h2.267l2.93 6.888 2.877-6.888h2.163ZM453.404 295.153a4.283 4.283 0 0 1 1.744 1.744c.416.764.627 1.624.611 2.494a5.243 5.243 0 0 1-.611 2.511 4.29 4.29 0 0 1-1.744 1.744c-.748.406-1.59.61-2.441.593a3.767 3.767 0 0 1-2.982-1.256v4.517h-2.18v-12.748h2.075v1.221c.36-.436.821-.777 1.343-.994a4.328 4.328 0 0 1 1.744-.332 4.913 4.913 0 0 1 2.441.593m-.697 6.278a3.278 3.278 0 0 0 0-4.22 2.641 2.641 0 0 0-1.988-.802 2.753 2.753 0 0 0-1.413.366 2.521 2.521 0 0 0-.994 1.012 3.391 3.391 0 0 0 0 3.069c.232.426.576.782.994 1.029.434.233.92.353 1.413.349a2.64 2.64 0 0 0 1.988-.803ZM467.565 296.513h-4.971v7.464h-2.179v-9.312h7.15v1.848Z" fill="#1D1D1B"/><path d="M437.831 215.734h-15.138v15.138h15.138v-15.138Z" fill="#931F2B"/><path d="M363.121 207.224a6.044 6.044 0 0 1-2.337-2.25 6.227 6.227 0 0 1-.837-3.226 6.048 6.048 0 0 1 .855-3.209 5.935 5.935 0 0 1 2.337-2.25 6.99 6.99 0 0 1 3.348-.802 6.976 6.976 0 0 1 2.738.506 5.938 5.938 0 0 1 2.093 1.535l-1.465 1.377a4.28 4.28 0 0 0-3.261-1.447 4.565 4.565 0 0 0-2.25.558 3.866 3.866 0 0 0-1.552 1.535 4.638 4.638 0 0 0 0 4.412c.359.65.898 1.182 1.552 1.534a4.56 4.56 0 0 0 2.25.541 4.217 4.217 0 0 0 3.261-1.447l1.465 1.395a5.602 5.602 0 0 1-2.111 1.517 6.962 6.962 0 0 1-2.737.523 6.973 6.973 0 0 1-3.349-.802ZM382.322 199.429a3.825 3.825 0 0 1 1.098 2.982v5.458h-2.057v-1.151c-.278.425-.68.753-1.151.942a4.496 4.496 0 0 1-1.744.331 4.292 4.292 0 0 1-1.797-.436 3.007 3.007 0 0 1-1.22-.994 2.562 2.562 0 0 1-.419-1.447 2.503 2.503 0 0 1 .924-2.006 4.663 4.663 0 0 1 2.948-.75h2.406v-.035a1.744 1.744 0 0 0-.593-1.482 2.493 2.493 0 0 0-1.744-.54c-.528 0-1.052.088-1.552.261-.467.136-.9.367-1.273.68l-.854-1.604a5.514 5.514 0 0 1 1.744-.855 8.027 8.027 0 0 1 2.18-.296 4.502 4.502 0 0 1 3.139.994m-1.988 6.592a2 2 0 0 0 .906-1.064v-1.081h-2.249c-1.256 0-1.884.401-1.884 1.238a1.142 1.142 0 0 0 .471.942 2.2 2.2 0 0 0 1.308.349 2.854 2.854 0 0 0 1.448-.384ZM397.18 198.557v9.312H395v-7.464h-3.488l-.087 1.849a21.754 21.754 0 0 1-.349 3.086 4.464 4.464 0 0 1-.855 1.971 1.985 1.985 0 0 1-1.639.715 4.89 4.89 0 0 1-1.203-.174l.105-1.831h.418a1.138 1.138 0 0 0 .994-.541c.221-.393.363-.826.419-1.273 0-.488.122-1.203.174-2.11l.157-3.593 7.534.053ZM411.411 203.91h-7.307c.104.651.461 1.234.994 1.622.589.419 1.3.633 2.023.611a3.5 3.5 0 0 0 2.528-1.012l1.169 1.343a4.22 4.22 0 0 1-1.587 1.134 6.074 6.074 0 0 1-2.163.383 5.772 5.772 0 0 1-2.703-.61 4.42 4.42 0 0 1-1.744-1.744 4.877 4.877 0 0 1-.628-2.459 4.813 4.813 0 0 1 .611-2.459 4.356 4.356 0 0 1 1.744-1.744 5.233 5.233 0 0 1 4.9 0 4.224 4.224 0 0 1 1.744 1.744c.413.778.623 1.648.611 2.529v.645m-6.453-3.104a2.579 2.579 0 0 0-.872 1.657h5.232a2.74 2.74 0 0 0-1.734-2.087 2.743 2.743 0 0 0-2.678.43M422.013 207.869l-2.389-3.244-2.406 3.244h-2.407l3.627-4.743-3.47-4.587h2.424l2.285 3.052 2.284-3.052h2.354l-3.487 4.552 3.644 4.778h-2.459ZM435.075 199.429a3.81 3.81 0 0 1 1.099 2.982v5.458h-2.058v-1.151a2.561 2.561 0 0 1-1.151.942 4.489 4.489 0 0 1-1.744.331 4.287 4.287 0 0 1-1.831-.366 2.917 2.917 0 0 1-1.221-.994 2.563 2.563 0 0 1-.418-1.447 2.443 2.443 0 0 1 .924-2.006 4.655 4.655 0 0 1 2.947-.75h2.407v-.104a1.877 1.877 0 0 0-.593-1.483 2.493 2.493 0 0 0-1.744-.54 4.74 4.74 0 0 0-1.552.261 3.494 3.494 0 0 0-1.273.68l-.855-1.604a5.535 5.535 0 0 1 1.744-.855 8.032 8.032 0 0 1 2.18-.296 4.512 4.512 0 0 1 3.139.994m-1.988 6.592c.415-.24.736-.616.907-1.064v-1.081h-2.25c-1.255 0-1.883.401-1.883 1.238a1.13 1.13 0 0 0 .471.942c.388.251.846.373 1.308.349a2.847 2.847 0 0 0 1.447-.384ZM449.08 199.045a4.224 4.224 0 0 1 1.744 1.744 5.409 5.409 0 0 1 0 4.987 4.381 4.381 0 0 1-1.744 1.744 5.034 5.034 0 0 1-2.424.593 3.763 3.763 0 0 1-2.982-1.255v4.516h-2.18v-12.695h2.075v1.22a3.113 3.113 0 0 1 1.325-.994 4.417 4.417 0 0 1 1.744-.331 4.847 4.847 0 0 1 2.424.593m-.697 6.278a3.224 3.224 0 0 0 0-4.22 2.603 2.603 0 0 0-1.971-.802 2.73 2.73 0 0 0-1.412.348 2.566 2.566 0 0 0-.995 1.029c-.253.471-.379 1-.366 1.535a3.18 3.18 0 0 0 .366 1.535c.233.421.577.771.995 1.011.429.247.917.373 1.412.366a2.662 2.662 0 0 0 1.971-.802ZM465.995 206.021v3.923h-2.04v-2.075h-7.185v2.075h-2.023v-3.923h.401c.593 0 .994-.384 1.204-1.151.257-1.022.403-2.069.435-3.122l.123-3.191h7.673v7.464h1.412Zm-7.446-1.5a2.952 2.952 0 0 1-.698 1.5h4.587v-5.616h-3.575v1.5c-.033.876-.121 1.75-.262 2.616" fill="#1D1D1B"/><path d="M992.401 243.306h-15.137v15.137h15.137v-15.137Z" fill="#931F2B"/><path d="M801.336 222.222v12.207h-2.215V224.14h-6.331v10.289h-2.232v-12.207h10.778ZM815.828 230.471h-7.307c.117.65.479 1.23 1.011 1.621a3.258 3.258 0 0 0 2.006.611 3.5 3.5 0 0 0 2.528-1.012l1.169 1.343c-.429.501-.974.89-1.587 1.134a5.98 5.98 0 0 1-2.163.383 5.88 5.88 0 0 1-2.703-.61 4.465 4.465 0 0 1-1.744-1.744 5.086 5.086 0 0 1 0-4.918 4.439 4.439 0 0 1 1.744-1.744 5.32 5.32 0 0 1 4.918 0 4.224 4.224 0 0 1 1.744 1.744c.407.78.611 1.649.593 2.529.014.215.014.43 0 .645m-6.435-3.104a2.603 2.603 0 0 0-.89 1.657h5.232a2.473 2.473 0 0 0-.854-1.64 2.58 2.58 0 0 0-1.744-.627 2.664 2.664 0 0 0-1.744.61ZM827.896 226.965h-3.261v7.464h-2.18v-7.464h-3.279v-1.848h8.72v1.848ZM839.703 225.605a4.084 4.084 0 0 1 1.744 1.744 5.409 5.409 0 0 1 0 4.987 4.218 4.218 0 0 1-1.744 1.744 5.104 5.104 0 0 1-2.442.593 3.763 3.763 0 0 1-2.982-1.255v4.516h-2.18v-12.695h2.075v1.22a3.267 3.267 0 0 1 1.343-.994 4.382 4.382 0 0 1 1.744-.331 4.917 4.917 0 0 1 2.442.593m-.698 6.278a3.278 3.278 0 0 0 0-4.22 2.627 2.627 0 0 0-1.988-.802 2.737 2.737 0 0 0-1.413.348 2.57 2.57 0 0 0-.994 1.029c-.253.471-.38 1-.366 1.535a3.18 3.18 0 0 0 .366 1.535c.233.421.577.771.994 1.011.43.247.918.373 1.413.366a2.703 2.703 0 0 0 1.988-.802ZM848.37 233.941a4.478 4.478 0 0 1-1.744-1.744 4.886 4.886 0 0 1-.646-2.459 4.77 4.77 0 0 1 .646-2.459 4.32 4.32 0 0 1 1.744-1.744 5.651 5.651 0 0 1 5.109 0 4.271 4.271 0 0 1 1.744 1.744c.427.748.644 1.598.628 2.459a4.867 4.867 0 0 1-.628 2.459 4.426 4.426 0 0 1-1.744 1.744 5.656 5.656 0 0 1-5.109 0Zm4.534-2.058a3.225 3.225 0 0 0 0-4.22 2.627 2.627 0 0 0-1.988-.802 2.604 2.604 0 0 0-1.971.802 3.225 3.225 0 0 0 0 4.22 2.666 2.666 0 0 0 1.971.802 2.703 2.703 0 0 0 1.988-.802ZM869.575 225.117v9.312h-2.162v-7.464h-4.587v7.464h-2.18v-9.312h8.929ZM881.766 225.989a3.828 3.828 0 0 1 1.081 2.982v5.458h-2.058v-1.133a2.5 2.5 0 0 1-1.133.924 4.57 4.57 0 0 1-1.744.331 4.273 4.273 0 0 1-1.744-.366 2.835 2.835 0 0 1-1.203-.994 2.558 2.558 0 0 1-.436-1.43 2.466 2.466 0 0 1 .941-2.023 4.644 4.644 0 0 1 2.93-.75h2.267v-.139a1.898 1.898 0 0 0-.575-1.5 2.546 2.546 0 0 0-1.744-.523 4.628 4.628 0 0 0-1.535.244c-.471.137-.91.369-1.29.68l-.855-1.587a5.024 5.024 0 0 1 1.744-.855 7.511 7.511 0 0 1 2.18-.296 4.531 4.531 0 0 1 3.156.977m-1.988 6.592a2.06 2.06 0 0 0 .89-1.064v-1.081h-2.25c-1.255 0-1.883.401-1.883 1.238a1.13 1.13 0 0 0 .471.942 2.19 2.19 0 0 0 1.308.348 2.692 2.692 0 0 0 1.464-.383ZM896.642 231.813a2.248 2.248 0 0 1-.942 1.936 4.74 4.74 0 0 1-2.79.68h-4.743v-9.312h4.551a4.794 4.794 0 0 1 2.668.627 2 2 0 0 1 .96 1.744c.01.441-.118.874-.367 1.239a2.558 2.558 0 0 1-1.063.819 2.163 2.163 0 0 1 1.743 2.232m-6.4-2.807h2.285c1.133 0 1.744-.401 1.744-1.169 0-.767-.558-1.133-1.744-1.133h-2.285v2.302Zm4.29 2.668a1.06 1.06 0 0 0-.418-.924 2.196 2.196 0 0 0-1.308-.297h-2.564v2.389h2.494c1.203 0 1.744-.401 1.744-1.168M910.018 225.117v9.312h-2.18v-7.464h-3.488l-.087 1.849a19.612 19.612 0 0 1-.332 3.086 4.458 4.458 0 0 1-.854 1.971 2.05 2.05 0 0 1-1.744.733 5.286 5.286 0 0 1-1.204-.192l.105-1.744h.419a1.089 1.089 0 0 0 .994-.541c.238-.386.387-.821.436-1.273 0-.488.122-1.203.157-2.11l.157-3.593 7.621-.034ZM917.168 233.941a4.485 4.485 0 0 1-1.744-1.744 4.885 4.885 0 0 1-.645-2.459 4.778 4.778 0 0 1 .645-2.459 4.332 4.332 0 0 1 1.744-1.744 5.655 5.655 0 0 1 5.11 0 4.277 4.277 0 0 1 1.744 1.744c.427.748.643 1.598.627 2.459a4.866 4.866 0 0 1-.627 2.459 4.439 4.439 0 0 1-1.744 1.744 5.656 5.656 0 0 1-5.11 0Zm4.534-2.058a3.225 3.225 0 0 0 0-4.22 2.618 2.618 0 0 0-1.988-.802 2.587 2.587 0 0 0-1.971.802 3.229 3.229 0 0 0 0 4.22 2.632 2.632 0 0 0 1.971.802 2.7 2.7 0 0 0 1.988-.802ZM937.92 231.813a2.247 2.247 0 0 1-.942 1.936 4.74 4.74 0 0 1-2.79.68h-4.691v-9.312h4.552a4.796 4.796 0 0 1 2.668.627 1.989 1.989 0 0 1 .959 1.744c.01.441-.118.874-.366 1.239a2.567 2.567 0 0 1-1.064.819 2.16 2.16 0 0 1 1.744 2.232m-6.4-2.807h2.284c1.134 0 1.744-.401 1.744-1.169 0-.767-.558-1.133-1.744-1.133h-2.284v2.302Zm4.29 2.668a1.06 1.06 0 0 0-.419-.924 2.193 2.193 0 0 0-1.308-.297h-2.563v2.389h2.494c1.203 0 1.744-.401 1.744-1.168M944.495 233.941a4.58 4.58 0 0 1-1.744-1.744 4.885 4.885 0 0 1-.645-2.459 4.778 4.778 0 0 1 .645-2.459 4.42 4.42 0 0 1 1.744-1.744 5.225 5.225 0 0 1 2.599-.61 4.938 4.938 0 0 1 2.424.558 3.49 3.49 0 0 1 1.552 1.604l-1.744.977a2.55 2.55 0 0 0-.994-.977 2.983 2.983 0 0 0-3.349.471 3.194 3.194 0 0 0 0 4.238 2.754 2.754 0 0 0 2.023.802c.463 0 .918-.113 1.326-.331.411-.225.754-.556.994-.959l1.744.976a3.672 3.672 0 0 1-1.57 1.605 4.918 4.918 0 0 1-2.406.575 5.55 5.55 0 0 1-2.599-.61M959.476 230.697h-1.692v3.732h-2.18v-9.312h2.18v3.767h1.744l2.755-3.767h2.337l-3.383 4.482 3.61 4.83h-2.564l-2.807-3.732ZM981.17 229.285h-2.267v5.144h-2.232v-12.207h2.232v5.109h2.337l3.505-5.109h2.407l-4.168 5.912 4.325 6.295h-2.564l-3.575-5.144ZM997.964 225.989a3.828 3.828 0 0 1 1.081 2.982v5.458h-2.058v-1.133a2.497 2.497 0 0 1-1.134.924 4.643 4.643 0 0 1-1.743.331 4.273 4.273 0 0 1-1.744-.366 2.844 2.844 0 0 1-1.204-.994 2.566 2.566 0 0 1-.436-1.43 2.492 2.492 0 0 1 .23-1.124c.164-.351.408-.659.712-.899a4.644 4.644 0 0 1 2.93-.75h2.407v-.139a1.914 1.914 0 0 0-.576-1.5 2.546 2.546 0 0 0-1.744-.523 4.632 4.632 0 0 0-1.535.244c-.471.137-.91.369-1.29.68l-.855-1.587a5.033 5.033 0 0 1 1.744-.855 7.511 7.511 0 0 1 2.18-.296 4.535 4.535 0 0 1 3.157.977m-1.988 6.592c.41-.241.725-.617.889-1.064v-1.081h-2.25c-1.255 0-1.883.401-1.883 1.238a1.13 1.13 0 0 0 .471.942 2.19 2.19 0 0 0 1.308.348 2.735 2.735 0 0 0 1.465-.383ZM1013.52 234.429v-6.173l-3.14 5.197h-.94l-3.09-5.215v6.191h-1.99v-9.312h2.29l3.31 5.824 3.47-5.824h2.04l.02 9.312h-1.97ZM1028.9 225.117v9.312h-2.18v-3.61c-.88.421-1.83.641-2.81.646a4.087 4.087 0 0 1-2.75-.838c-.34-.325-.6-.72-.76-1.157a3.058 3.058 0 0 1-.2-1.371v-2.982h2.18v2.842a1.65 1.65 0 0 0 .52 1.326c.43.309.96.463 1.48.436.81.003 1.61-.176 2.34-.524v-4.08h2.18ZM1041.11 225.989c.38.39.68.859.86 1.373.19.515.26 1.063.22 1.609v5.458h-2.06v-1.133c-.27.414-.67.736-1.13.924-.56.221-1.15.334-1.74.331-.61.002-1.2-.123-1.75-.366-.48-.212-.9-.557-1.2-.994a2.524 2.524 0 0 1-.44-1.43 2.56 2.56 0 0 1 .23-1.124c.17-.351.41-.659.71-.899.87-.57 1.9-.834 2.93-.75h2.41v-.139c.02-.277-.02-.555-.12-.814a1.92 1.92 0 0 0-.46-.686 2.519 2.519 0 0 0-1.74-.523 4.59 4.59 0 0 0-1.53.244c-.48.137-.91.369-1.29.68l-.86-1.587a5.014 5.014 0 0 1 1.74-.855 7.553 7.553 0 0 1 2.18-.296 4.537 4.537 0 0 1 3.16.977m-1.99 6.592c.41-.241.73-.617.89-1.064v-1.081h-2.25c-1.25 0-1.88.401-1.88 1.238 0 .183.04.365.12.529.08.164.2.305.35.413.39.251.85.373 1.31.348a2.72 2.72 0 0 0 1.46-.383ZM1054.89 226.965h-3.26v7.464h-2.18v-7.464h-3.28v-1.848h8.72v1.848ZM1060.29 233.941a4.562 4.562 0 0 1-1.74-1.744 4.93 4.93 0 0 1-.65-2.459c-.01-.863.21-1.713.65-2.459.4-.735 1.01-1.34 1.74-1.744.8-.425 1.7-.635 2.6-.61.84-.024 1.68.168 2.42.558.68.358 1.22.92 1.56 1.604l-1.75.977c-.23-.412-.58-.75-.99-.977a2.994 2.994 0 0 0-1.75-.285 2.99 2.99 0 0 0-1.6.756c-.27.282-.48.616-.62.982a2.8 2.8 0 0 0-.18 1.146c-.02.388.04.776.18 1.139.14.363.35.694.62.971a2.747 2.747 0 0 0 2.02.802c.47 0 .92-.113 1.33-.331.41-.225.75-.556.99-.959l1.75.976c-.35.682-.9 1.242-1.57 1.605-.74.393-1.57.592-2.41.575a5.58 5.58 0 0 1-2.6-.61M1075.31 230.697h-1.69v3.732h-2.18v-9.312h2.18v3.767h1.74l2.75-3.767h2.34l-3.38 4.482 3.61 4.83h-2.57l-2.8-3.732ZM1084.83 225.117h2.18v6.138l5.14-6.138h1.99v9.312h-2.18v-6.138l-5.13 6.138h-2v-9.312ZM1099.69 225.117h2.18v6.138l5.14-6.138h1.99v9.312h-2.18v-6.138l-5.13 6.138h-2v-9.312Zm2.37-1.744a2.525 2.525 0 0 1-.6-.866 2.437 2.437 0 0 1-.17-1.035h1.45a1.38 1.38 0 0 0 .4.994 1.43 1.43 0 0 0 1.05.366c.39.023.77-.109 1.06-.366.13-.126.23-.275.29-.44.07-.165.1-.342.09-.519h1.49c.02.354-.04.708-.17 1.037a2.37 2.37 0 0 1-.6.864c-.62.479-1.39.714-2.16.662a3.125 3.125 0 0 1-2.15-.662" fill="#1D1D1B"/><path d="M480.522 233.767h-15.137v15.137h15.137v-15.137Z" fill="#931F2B"/><path d="M450.404 254.345v12.207h-2.267v-5.231h-6.313v5.231h-2.267v-12.207h2.267v5.04h6.313v-5.04h2.267ZM457.781 266.064a4.443 4.443 0 0 1-1.743-1.744 5.028 5.028 0 0 1 0-4.935 4.563 4.563 0 0 1 1.743-1.744 5.656 5.656 0 0 1 5.11 0 4.498 4.498 0 0 1 1.744 1.744 5.234 5.234 0 0 1 0 4.935 4.369 4.369 0 0 1-1.744 1.744 5.643 5.643 0 0 1-5.11 0Zm4.535-2.058a3.229 3.229 0 0 0 0-4.22 2.703 2.703 0 0 0-1.988-.802 2.662 2.662 0 0 0-1.971.802 3.225 3.225 0 0 0 0 4.22 2.605 2.605 0 0 0 1.971.803 2.64 2.64 0 0 0 1.988-.803ZM478.552 263.937a2.246 2.246 0 0 1-.942 1.935 4.773 4.773 0 0 1-2.79.68h-4.744v-9.312h4.552a4.86 4.86 0 0 1 2.668.628 2.014 2.014 0 0 1 .959 1.744c.007.443-.128.876-.383 1.238a2.37 2.37 0 0 1-1.047.819 2.162 2.162 0 0 1 1.744 2.233m-6.4-2.808h2.284c1.117 0 1.744-.384 1.744-1.168 0-.785-.575-1.134-1.744-1.134h-2.284v2.302Zm4.29 2.668a1.028 1.028 0 0 0-.419-.907 2.206 2.206 0 0 0-1.308-.314h-2.563v2.39h2.494c1.186 0 1.744-.384 1.744-1.169M490.724 261.111a2.795 2.795 0 0 1 1.047 2.25 2.865 2.865 0 0 1-1.047 2.372 4.482 4.482 0 0 1-2.93.819h-4.237v-9.312h2.18v3.052h2.371a4.093 4.093 0 0 1 2.703.802m-1.744 3.488a1.444 1.444 0 0 0 .506-1.221 1.325 1.325 0 0 0-.488-1.151 2.565 2.565 0 0 0-1.482-.384h-1.849v3.157h1.849a2.127 2.127 0 0 0 1.464-.401Zm3.924-7.325h2.18v9.313h-2.18v-9.313ZM500.595 257.24h2.18v6.121l5.144-6.138h1.988v9.312h-2.18v-6.139l-5.127 6.139h-2.005v-9.295Zm2.371-1.744a2.542 2.542 0 0 1-.767-1.918h1.448c-.001.371.143.727.401.994a1.418 1.418 0 0 0 1.046.366c.389.022.771-.109 1.064-.366a1.313 1.313 0 0 0 .401-.994h1.482a2.416 2.416 0 0 1-.767 1.918 3.173 3.173 0 0 1-2.163.645 3.121 3.121 0 0 1-2.145-.645ZM533.625 254.345l-5.232 9.853a5.414 5.414 0 0 1-1.744 1.971 3.666 3.666 0 0 1-2.092.645 4.371 4.371 0 0 1-1.744-.384l.558-1.744c.381.138.781.214 1.186.227a2.088 2.088 0 0 0 1.744-1.133l.192-.297-4.866-9.103h2.424l3.61 7.167 3.715-7.167 2.249-.035ZM544.804 257.728a4.452 4.452 0 0 1 1.744 1.744c.414.765.624 1.624.61 2.494a5.23 5.23 0 0 1-.61 2.511 4.344 4.344 0 0 1-1.744 1.744 4.862 4.862 0 0 1-2.442.593 3.79 3.79 0 0 1-2.982-1.256v4.517h-2.18v-12.696h2.075v1.221a3.614 3.614 0 0 1 1.343-.994 4.711 4.711 0 0 1 1.744-.331 5.056 5.056 0 0 1 2.442.593m-.698 6.278a3.279 3.279 0 0 0 0-4.22 2.704 2.704 0 0 0-1.97-.803 2.675 2.675 0 0 0-1.413.367 2.57 2.57 0 0 0-1.012 1.011 3.158 3.158 0 0 0-.348 1.535 3.073 3.073 0 0 0 .348 1.534c.234.431.585.788 1.012 1.029a2.82 2.82 0 0 0 1.413.349 2.626 2.626 0 0 0 1.97-.802ZM560.552 262.594h-7.308a2.582 2.582 0 0 0 1.012 1.639c.585.412 1.29.621 2.005.593a3.355 3.355 0 0 0 2.529-1.012l1.169 1.343c-.42.511-.968.903-1.587 1.134a6.304 6.304 0 0 1-4.866-.227 4.426 4.426 0 0 1-1.744-1.744 4.896 4.896 0 0 1-.645-2.476 4.76 4.76 0 0 1 .628-2.442 4.465 4.465 0 0 1 1.744-1.744 5.113 5.113 0 0 1 2.476-.61 4.92 4.92 0 0 1 2.441.61 4.218 4.218 0 0 1 1.744 1.744c.41.773.615 1.637.593 2.512.015.214.015.43 0 .645m-6.435-3.087c-.493.414-.811 1-.889 1.639h5.232a2.511 2.511 0 0 0-.855-1.639 2.81 2.81 0 0 0-3.488 0ZM565.591 257.24h2.18v3.784h4.691v-3.784h2.18v9.312h-2.18v-3.679h-4.691v3.679h-2.18v-9.312ZM587.338 259.088h-4.953v7.464h-2.197v-9.312h7.15v1.848ZM592.745 266.064a4.445 4.445 0 0 1-1.744-1.744 5.039 5.039 0 0 1 0-4.935 4.565 4.565 0 0 1 1.744-1.744 5.656 5.656 0 0 1 5.11 0 4.502 4.502 0 0 1 1.743 1.744 5.222 5.222 0 0 1 0 4.935 4.373 4.373 0 0 1-1.743 1.744 5.647 5.647 0 0 1-5.11 0Zm4.534-2.058a3.225 3.225 0 0 0 0-4.22 2.705 2.705 0 0 0-1.988-.802 2.662 2.662 0 0 0-1.971.802 3.224 3.224 0 0 0 0 4.22 2.598 2.598 0 0 0 1.971.803 2.637 2.637 0 0 0 1.988-.803ZM605.022 257.24h2.18v6.121l5.144-6.138h1.988v9.312h-2.232v-6.139l-5.127 6.139h-2.006l.053-9.295Zm2.371-1.744a2.542 2.542 0 0 1-.767-1.918h1.447c0 .371.144.727.402.994a1.418 1.418 0 0 0 1.046.366c.389.022.771-.109 1.064-.366a1.313 1.313 0 0 0 .401-.994h1.482a2.416 2.416 0 0 1-.767 1.918 3.174 3.174 0 0 1-2.163.645 3.121 3.121 0 0 1-2.145-.645Z" fill="#1D1D1B"/><path d="M427.124 357.359h-15.138v15.137h15.138v-15.137Z" fill="#931F2B"/><path d="M405.812 350.383a5.857 5.857 0 0 1-2.354-2.249 6.108 6.108 0 0 1-.855-3.209 6.162 6.162 0 0 1 .855-3.227 5.857 5.857 0 0 1 2.354-2.249 6.968 6.968 0 0 1 3.366-.802 6.97 6.97 0 0 1 3.366.802 6.093 6.093 0 0 1 2.354 2.249c.573.978.869 2.094.855 3.227a6.344 6.344 0 0 1-.855 3.226 6.178 6.178 0 0 1-2.354 2.232 6.977 6.977 0 0 1-3.366.82 6.977 6.977 0 0 1-3.366-.82Zm5.563-1.744a4.046 4.046 0 0 0 1.535-1.534 4.434 4.434 0 0 0 .558-2.198 4.5 4.5 0 0 0-.558-2.215 4.19 4.19 0 0 0-1.535-1.534 4.468 4.468 0 0 0-2.197-.541 4.357 4.357 0 0 0-2.197.541 3.937 3.937 0 0 0-1.535 1.534 4.305 4.305 0 0 0-.558 2.215c-.016.77.177 1.529.558 2.198a3.81 3.81 0 0 0 1.535 1.534c.67.376 1.428.569 2.197.558a4.454 4.454 0 0 0 2.197-.558ZM429.791 351.028v-6.173l-3.139 5.197h-.941l-3.087-5.215v6.191h-1.988v-9.312h2.284l3.314 5.825 3.47-5.825h2.041l.017 9.312h-1.971ZM438.947 350.558a4.465 4.465 0 0 1-1.744-1.744 5.012 5.012 0 0 1 0-4.918 4.369 4.369 0 0 1 1.744-1.744 5.36 5.36 0 0 1 2.616-.61 4.856 4.856 0 0 1 2.406.558 3.577 3.577 0 0 1 1.57 1.604l-1.744.977a2.845 2.845 0 0 0-1.012-.977 2.79 2.79 0 0 0-1.308-.314 2.755 2.755 0 0 0-2.023.785 3.228 3.228 0 0 0 0 4.238 2.746 2.746 0 0 0 2.041.802c.457.007.909-.108 1.308-.331a2.779 2.779 0 0 0 1.011-.96l1.744.977a3.713 3.713 0 0 1-1.587 1.604 4.85 4.85 0 0 1-2.389.576 5.492 5.492 0 0 1-2.598-.61M453.927 347.296h-1.691v3.732h-2.18v-9.312h2.18v3.767h1.744l2.755-3.767h2.337l-3.383 4.482 3.61 4.83h-2.564l-2.808-3.732Z" fill="#1D1D1B"/><path d="M542.624 347.82h-15.138v15.137h15.138V347.82Z" fill="#931F2B"/><path d="M527.312 327.625h-4.046v10.289h-2.249v-10.289h-4.029v-1.918h10.324v1.918ZM532.282 337.426a4.485 4.485 0 0 1-1.744-1.744 5.01 5.01 0 0 1 0-4.918 4.452 4.452 0 0 1 1.744-1.744 5.656 5.656 0 0 1 5.11 0 4.607 4.607 0 0 1 1.744 1.744 5.13 5.13 0 0 1 0 4.918 4.664 4.664 0 0 1-1.744 1.744 5.655 5.655 0 0 1-5.11 0Zm4.534-2.058a3.225 3.225 0 0 0 0-4.22 2.623 2.623 0 0 0-1.988-.803 2.59 2.59 0 0 0-1.97.803 3.225 3.225 0 0 0 0 4.22c.252.266.559.475.898.614.34.138.706.202 1.072.188a2.637 2.637 0 0 0 1.988-.802ZM553.715 337.914v-6.174l-3.139 5.197h-.942l-3.087-5.214v6.191h-1.988v-9.313h2.285l3.313 5.825 3.471-5.825h2.04l.017 9.313h-1.97ZM562.871 337.426a4.465 4.465 0 0 1-1.744-1.744 5.001 5.001 0 0 1 0-4.918 4.531 4.531 0 0 1 1.744-1.744 5.434 5.434 0 0 1 2.598-.61 5.113 5.113 0 0 1 2.424.558 3.624 3.624 0 0 1 1.552 1.604l-1.744.977a2.67 2.67 0 0 0-.994-.977 2.866 2.866 0 0 0-1.325-.314 2.78 2.78 0 0 0-2.023.785 2.864 2.864 0 0 0-.802 2.128 2.783 2.783 0 0 0 .802 2.11 2.899 2.899 0 0 0 3.348.471c.415-.22.76-.553.994-.96l1.744.977a3.76 3.76 0 0 1-1.569 1.604 4.923 4.923 0 0 1-2.407.576 5.543 5.543 0 0 1-2.598-.61M577.851 334.182h-1.692v3.732h-2.18v-9.313h2.18v3.767h1.744l2.756-3.767h2.337l-3.384 4.482 3.61 4.831h-2.563l-2.808-3.732Z" fill="#1D1D1B"/><path d="M137.718 99.083h-15.137v15.137h15.137V99.083Z" fill="#931F2B"/><path d="M4.5 128.66H2.231v5.144H0v-12.207h2.232v5.11H4.57l3.523-5.11h2.406l-4.185 5.912 4.342 6.295H8.092l-3.593-5.144ZM21.293 125.381a3.75 3.75 0 0 1 1.082 2.965v5.458h-2.058v-1.133a2.497 2.497 0 0 1-1.134.924 4.276 4.276 0 0 1-1.744.331 4.558 4.558 0 0 1-1.744-.348 2.846 2.846 0 0 1-1.203-.994 2.617 2.617 0 0 1-.436-1.448 2.443 2.443 0 0 1 .942-2.005 4.637 4.637 0 0 1 2.93-.768h2.406v-.139a1.938 1.938 0 0 0-.575-1.5 2.546 2.546 0 0 0-1.744-.523 5.125 5.125 0 0 0-1.535.244c-.472.137-.91.369-1.29.68l-.855-1.587a5.345 5.345 0 0 1 1.744-.854 8.112 8.112 0 0 1 2.18-.297 4.536 4.536 0 0 1 3.156.994m-1.988 6.592c.412-.247.726-.629.89-1.081v-1.081h-2.372c-1.256 0-1.884.418-1.884 1.238a1.1 1.1 0 0 0 .471.942c.389.251.846.373 1.308.348a2.855 2.855 0 0 0 1.465-.366M36.134 124.492v9.312h-2.18v-7.464h-3.488v1.849a19.195 19.195 0 0 1-.331 3.087 4.376 4.376 0 0 1-.855 1.97 2.036 2.036 0 0 1-1.656.733 5.218 5.218 0 0 1-1.204-.192l.105-1.831h.419a1.064 1.064 0 0 0 .994-.541c.238-.386.387-.821.436-1.273 0-.488.122-1.186.157-2.11l.157-3.592 7.446.052ZM41.68 124.492h2.18v6.139l5.145-6.139h1.988v9.313h-2.18v-6.139l-5.127 6.139H41.68v-9.313ZM56.538 124.492h2.18v3.784h4.691v-3.784h2.18v9.313h-2.18v-3.68h-4.691v3.68h-2.18v-9.313ZM71.135 124.492h2.18v6.139l5.144-6.139h1.988v9.313h-2.18v-6.139l-5.127 6.139h-2.005v-9.313ZM85.993 124.492h2.18v3.784h4.691v-3.784h2.18v9.313h-2.18v-3.68h-4.69v3.68h-2.18v-9.313ZM107.74 126.341h-4.97v7.464h-2.18v-9.313h7.15v1.849ZM119.546 124.98a4.29 4.29 0 0 1 1.744 1.744 5.4 5.4 0 0 1 0 4.988 4.218 4.218 0 0 1-1.744 1.744c-.748.405-1.59.61-2.441.593a3.778 3.778 0 0 1-2.982-1.256v4.517h-2.18v-12.696h2.075v1.221a3.603 3.603 0 0 1 1.343-.994 4.365 4.365 0 0 1 1.744-.332 4.924 4.924 0 0 1 2.441.593m-.697 6.278a3.276 3.276 0 0 0 0-4.22 2.641 2.641 0 0 0-1.988-.802 2.915 2.915 0 0 0-1.413.349 2.678 2.678 0 0 0-.994 1.029 3.404 3.404 0 0 0 0 3.069c.228.425.573.776.994 1.011.43.247.918.374 1.413.367a2.637 2.637 0 0 0 1.988-.803ZM133.114 125.381a3.753 3.753 0 0 1 1.081 2.965v5.458h-2.058v-1.133a2.494 2.494 0 0 1-1.133.924 4.277 4.277 0 0 1-1.744.331 4.557 4.557 0 0 1-1.744-.348 2.843 2.843 0 0 1-1.203-.994 2.608 2.608 0 0 1-.436-1.448 2.43 2.43 0 0 1 .941-2.005 4.638 4.638 0 0 1 2.93-.768h2.407v-.139a1.943 1.943 0 0 0-.576-1.5 2.546 2.546 0 0 0-1.744-.523 5.12 5.12 0 0 0-1.534.244 3.643 3.643 0 0 0-1.291.68l-.854-1.587a5.338 5.338 0 0 1 1.744-.854 8.112 8.112 0 0 1 2.18-.297 4.535 4.535 0 0 1 3.156.994m-1.988 6.592c.412-.247.726-.629.889-1.081v-1.081h-2.249c-1.256 0-1.884.418-1.884 1.238a1.1 1.1 0 0 0 .471.942c.389.251.846.373 1.308.348a2.856 2.856 0 0 0 1.465-.366ZM149.455 131.956v3.924h-2.041v-2.075h-7.184v2.075h-2.023v-3.924h.436c.592 0 1.011-.401 1.22-1.151.25-1.023.391-2.069.419-3.122l.122-3.191h7.673v7.464h1.378Zm-7.447-1.5a2.634 2.634 0 0 1-.697 1.5h4.586v-5.615h-3.575v1.499a16.05 16.05 0 0 1-.261 2.616" fill="#1D1D1B"/></svg>