<svg width="24" height="25" fill="none" xmlns="http://www.w3.org/2000/svg"><path d="M12 22.519c5.523 0 10-2.015 10-4.5 0-1.267-1.163-2.411-3.035-3.229-1.142 2.096-2.883 3.902-5.095 4.848a4.776 4.776 0 0 1-3.74 0c-2.212-.946-3.953-2.752-5.095-4.848C3.163 15.608 2 16.752 2 18.019c0 2.485 4.477 4.5 10 4.5Z" fill="#91202B"/><path fill-rule="evenodd" clip-rule="evenodd" d="M5 9.033C5 5.435 8.134 2.52 12 2.52s7 2.916 7 6.514c0 3.57-2.234 7.736-5.72 9.225a3.276 3.276 0 0 1-2.56 0C7.234 16.768 5 12.603 5 9.033Zm7 2.486a2 2 0 1 0 0-4 2 2 0 0 0 0 4Z" fill="#91202B"/></svg>