<svg width="73" height="38" fill="none" xmlns="http://www.w3.org/2000/svg"><path fill-rule="evenodd" clip-rule="evenodd" d="M0 .435h21.16v37.167H0V.435Zm6.405 22.593h11.133V20.26H3.621v13.841h13.917v-8.304h-8.35v2.768h5.567v2.768h-8.35v-8.305ZM3.62 3.936v13.836h2.784V6.699h2.783v5.536h2.784v-5.53h2.783v11.072h2.783V3.937H3.621ZM39.764 4.906v11.827H37.76V8.37l-2.948 6.744h-1.59l-2.954-6.77v8.389h-1.956V4.906h2.174l3.446 7.535 3.435-7.535h2.397Zm4.384 7.788v1.793a.71.71 0 0 0 .144.527c.14.11.32.161.498.142H47a.533.533 0 0 0 .646-.372.525.525 0 0 0 .002-.271v-.717h1.95v.707a2.322 2.322 0 0 1-.53 1.692 2.333 2.333 0 0 1-1.701.527H44.44a2.352 2.352 0 0 1-1.702-.527 2.322 2.322 0 0 1-.53-1.693V9.836a2.296 2.296 0 0 1 .53-1.687 2.352 2.352 0 0 1 1.702-.527h2.922a2.34 2.34 0 0 1 1.701.527 2.307 2.307 0 0 1 .53 1.687v2.858h-5.445Zm2.853-3.48h-2.206a.692.692 0 0 0-.498.142.698.698 0 0 0-.143.501v1.471h3.5v-1.47a.698.698 0 0 0-.144-.502.717.717 0 0 0-.53-.142H47Zm7.12-1.671a4.05 4.05 0 0 1 1.83.326c.482.272.91.63 1.261 1.055v-4.53h1.957v12.339h-1.957v-1.318a4.42 4.42 0 0 1-1.262 1.054 4.12 4.12 0 0 1-1.829.327 2.987 2.987 0 0 1-2.014-.527 2.34 2.34 0 0 1-.605-1.798V9.889a2.32 2.32 0 0 1 .605-1.798 2.955 2.955 0 0 1 2.014-.527v-.021Zm-.662 2.499v4.26a.75.75 0 0 0 .196.601c.24.132.516.187.79.158a5.714 5.714 0 0 0 1.521-.168c.438-.133.856-.321 1.246-.56V10.01a5.183 5.183 0 0 0-1.246-.559 5.506 5.506 0 0 0-1.521-.168 1.353 1.353 0 0 0-.79.158.738.738 0 0 0-.196.6Zm10.11-3.565h-2.068V4.516h2.09v1.961h-.022ZM63.5 7.606v9.127h-1.946V7.606H63.5Zm4.555 0h2.704a2.352 2.352 0 0 1 1.701.527 2.305 2.305 0 0 1 .53 1.687v6.913h-1.945v-1.366a4.01 4.01 0 0 1-1.209 1.081 3.767 3.767 0 0 1-1.803.353 2.601 2.601 0 0 1-1.945-.617 2.92 2.92 0 0 1-.584-2.035 2.773 2.773 0 0 1 .578-1.961 2.86 2.86 0 0 1 1.782-.76c.837-.116 1.898-.205 3.18-.268V9.857a.524.524 0 0 0-.373-.642.533.533 0 0 0-.273-.001h-2.004a.697.697 0 0 0-.493.153.672.672 0 0 0-.149.49v.454h-1.924v-.475a2.256 2.256 0 0 1 .53-1.687c.47-.39 1.076-.58 1.686-.527l.01-.016Zm2.99 4.819-2.82.438a.967.967 0 0 0-.632.28c-.14.26-.199.558-.17.853-.03.314.035.63.186.907a.942.942 0 0 0 .732.227c.478.011.954-.055 1.41-.195.451-.168.884-.38 1.294-.633v-1.877ZM34.669 25.148v-1.287a.524.524 0 0 0-.37-.612.533.533 0 0 0-.261-.01h-3.361a.692.692 0 0 0-.488.143.667.667 0 0 0-.143.48v6.854a.657.657 0 0 0 .143.48.692.692 0 0 0 .488.142h3.36a.682.682 0 0 0 .489-.142.656.656 0 0 0 .143-.48v-2.11h-2.534v-1.808h4.575v4.023c0 1.575-.794 2.364-2.38 2.368h-3.945c-1.584 0-2.377-.79-2.38-2.368v-7.076c0-1.578.793-2.367 2.38-2.367h3.945c1.583 0 2.377.79 2.38 2.367v1.403h-2.041Zm9.686.775h-.986a4.872 4.872 0 0 0-2.428.712v6.575h-1.957v-9.127h1.957v1.387c.329-.416.727-.773 1.177-1.055a3.068 3.068 0 0 1 1.543-.337h.694v1.845Zm3.399-1.84h3.027a1.961 1.961 0 0 1 1.694.545 1.939 1.939 0 0 1 .544 1.685v4.667a1.929 1.929 0 0 1-.546 1.687 1.952 1.952 0 0 1-1.697.543h-3.022a1.962 1.962 0 0 1-1.697-.543 1.939 1.939 0 0 1-.546-1.688v-4.666a1.93 1.93 0 0 1 .545-1.688 1.955 1.955 0 0 1 1.698-.542Zm3.33 6.775v-4.424a.65.65 0 0 0-.154-.527.697.697 0 0 0-.488-.142h-2.333a.723.723 0 0 0-.493.142.673.673 0 0 0-.148.527v4.424a.674.674 0 0 0 .148.501.723.723 0 0 0 .493.142h2.333a.697.697 0 0 0 .488-.142.65.65 0 0 0 .153-.5Zm9.543 2.352v-1.303c-.345.423-.764.78-1.236 1.055-.55.254-1.154.37-1.76.337a2.826 2.826 0 0 1-1.935-.527 2.244 2.244 0 0 1-.594-1.74v-6.95h1.951v6.776a.687.687 0 0 0 .18.527c.213.125.46.178.706.153.485.014.97-.037 1.442-.152a5.62 5.62 0 0 0 1.224-.56v-6.743h1.957v9.127h-1.935Zm9.357-9.196a2.987 2.987 0 0 1 2.015.528 2.37 2.37 0 0 1 .6 1.803v4.56a2.36 2.36 0 0 1-.6 1.804 2.987 2.987 0 0 1-2.014.527 4.076 4.076 0 0 1-1.846-.337 4.458 4.458 0 0 1-1.25-1.055v4.023h-1.952V24.083h1.951V25.4a4.459 4.459 0 0 1 1.251-1.055 4.076 4.076 0 0 1 1.846-.337v.005Zm.663 6.76v-4.255a.757.757 0 0 0-.196-.601 1.347 1.347 0 0 0-.79-.164 5.714 5.714 0 0 0-1.522.169 5.783 5.783 0 0 0-1.25.559v4.329c.392.235.813.423 1.25.559.498.124 1.01.18 1.522.168.274.03.55-.026.79-.163a.76.76 0 0 0 .196-.601Z" fill="#666060"/></svg>