<svg width="61" height="61" fill="none" xmlns="http://www.w3.org/2000/svg"><path fill-rule="evenodd" clip-rule="evenodd" d="M36.364 5.9c-.926-.381-2.1-.381-4.447-.381-2.348 0-3.522 0-4.448.38a5.019 5.019 0 0 0-2.726 2.706c-.233.56-.325 1.21-.36 2.159-.053 1.394-.774 2.684-1.991 3.382-1.218.697-2.704.671-3.947.02-.846-.444-1.459-.69-2.064-.77a5.066 5.066 0 0 0-3.724.99c-.795.606-1.382 1.615-2.556 3.632-1.173 2.018-1.76 3.027-1.891 4.013a4.973 4.973 0 0 0 .998 3.696c.371.48.893.884 1.703 1.39 1.19.741 1.956 2.006 1.956 3.402 0 1.395-.766 2.66-1.956 3.402-.81.505-1.332.908-1.703 1.389a4.972 4.972 0 0 0-.998 3.696c.13.986.717 1.995 1.891 4.013 1.174 2.017 1.76 3.026 2.556 3.631a5.067 5.067 0 0 0 3.724.99c.605-.078 1.218-.325 2.064-.768 1.243-.652 2.73-.678 3.947.02 1.217.697 1.938 1.987 1.99 3.382.036.948.127 1.599.36 2.158a5.019 5.019 0 0 0 2.727 2.706c.926.38 2.1.38 4.447.38 2.348 0 3.522 0 4.448-.38a5.019 5.019 0 0 0 2.726-2.706c.233-.56.325-1.21.36-2.159.053-1.394.773-2.684 1.99-3.382 1.218-.698 2.705-.672 3.948-.02.846.444 1.459.69 2.064.77a5.066 5.066 0 0 0 3.724-.99c.795-.606 1.382-1.615 2.556-3.633 1.174-2.017 1.76-3.026 1.891-4.012a4.972 4.972 0 0 0-.998-3.697c-.371-.48-.893-.883-1.703-1.388-1.19-.743-1.956-2.007-1.956-3.403 0-1.395.766-2.66 1.956-3.402.81-.505 1.332-.908 1.703-1.389a4.972 4.972 0 0 0 .998-3.696c-.13-.986-.717-1.995-1.891-4.012-1.174-2.018-1.76-3.027-2.556-3.632a5.067 5.067 0 0 0-3.724-.99c-.605.078-1.218.325-2.064.768-1.243.653-2.73.679-3.947-.019-1.217-.698-1.938-1.988-1.99-3.383-.036-.948-.127-1.599-.36-2.158A5.019 5.019 0 0 0 36.363 5.9Zm-4.447 32.119c4.173 0 7.557-3.358 7.557-7.5 0-4.143-3.384-7.5-7.557-7.5-4.174 0-7.558 3.357-7.558 7.5 0 4.142 3.384 7.5 7.557 7.5Z" fill="#91202B"/></svg>