<svg width="20" height="21" fill="none" xmlns="http://www.w3.org/2000/svg"><path fill-rule="evenodd" clip-rule="evenodd" d="M3.931 3.077c1.022-1.076 2.712-.874 3.557.32l1.05 1.487c.677.955.62 2.284-.187 3.133l-.204.214a.654.654 0 0 0-.013.315c.056.38.349 1.151 1.538 2.404 1.194 1.256 1.918 1.552 2.253 1.607.145.023.22.003.245-.006l.34-.358a2.254 2.254 0 0 1 2.78-.39l1.591.915c1.361.784 1.678 2.7.59 3.845l-1.183 1.246c-.37.389-.874.72-1.496.782-1.52.15-5.041-.045-8.732-3.931-3.445-3.626-4.099-6.78-4.182-8.321l.555-.03-.555.03c-.04-.762.299-1.415.745-1.885l1.308-1.377Zm2.536 1.042c-.427-.604-1.194-.64-1.63-.181L3.53 5.315c-.276.29-.421.624-.403.957.067 1.258.609 4.126 3.839 7.527 3.387 3.566 6.507 3.666 7.703 3.548.236-.023.48-.154.712-.399l1.184-1.246c.51-.538.377-1.507-.307-1.9l-1.592-.917a1.004 1.004 0 0 0-1.25.169l-.379.4-.44-.418c.44.417.44.418.439.418l-.001.002-.003.002-.005.006-.012.011a.826.826 0 0 1-.113.093c-.067.048-.156.1-.268.144-.23.09-.534.14-.91.079-.73-.12-1.689-.644-2.958-1.98-1.273-1.34-1.76-2.34-1.869-3.084a1.881 1.881 0 0 1 .07-.91 1.326 1.326 0 0 1 .192-.356.86.86 0 0 1 .026-.03l.011-.013.005-.006.002-.002.002-.002.444.42-.443-.42.239-.252c.371-.391.425-1.053.073-1.55l-1.05-1.487Z" fill="#91202B"/><path d="M11.05 2.067a.626.626 0 0 1 .717-.517l.125.025c.071.016.17.04.294.076.247.072.593.19 1.007.38.83.381 1.936 1.047 3.082 2.194 1.147 1.146 1.812 2.251 2.193 3.081.19.415.309.76.38 1.008a4.738 4.738 0 0 1 .095.379l.005.026a.638.638 0 0 1-.515.731.625.625 0 0 1-.716-.514l-.012-.056a3.532 3.532 0 0 0-.056-.217 6.166 6.166 0 0 0-.317-.836c-.325-.708-.91-1.687-1.94-2.718-1.032-1.032-2.01-1.616-2.72-1.94a6.166 6.166 0 0 0-.836-.318 4.792 4.792 0 0 0-.264-.066.632.632 0 0 1-.523-.718Z" fill="#91202B"/><path fill-rule="evenodd" clip-rule="evenodd" d="M11.239 4.941a.625.625 0 0 1 .772-.429l-.171.601c.171-.601.171-.6.172-.6h.005l.006.002.016.006.047.015a4.298 4.298 0 0 1 .639.311c.408.242.965.643 1.619 1.297.654.654 1.055 1.211 1.296 1.619.121.204.201.37.253.491a2.502 2.502 0 0 1 .074.195l.005.016.003.007v.004l-.6.172.601-.171a.625.625 0 0 1-1.2.352l-.002-.01a3.05 3.05 0 0 0-.209-.42c-.186-.313-.522-.788-1.105-1.371s-1.058-.919-1.372-1.105a3.058 3.058 0 0 0-.42-.208l-.009-.004a.625.625 0 0 1-.42-.77Z" fill="#91202B"/></svg>