<svg width="24" height="25" fill="none" xmlns="http://www.w3.org/2000/svg"><path d="m15.556 15.066-.455.48s-1.083 1.14-4.038-1.971c-2.955-3.112-1.872-4.251-1.872-4.251l.287-.302c.706-.744.773-1.938.156-2.81l-1.26-1.784c-.764-1.079-2.238-1.221-3.113-.3L3.691 5.78c-.433.456-.723 1.048-.688 1.704.09 1.68.808 5.294 4.812 9.51 4.247 4.47 8.232 4.648 9.861 4.488.516-.051.964-.33 1.325-.71l1.42-1.495c.96-1.01.69-2.74-.538-3.447l-1.91-1.1c-.806-.463-1.787-.327-2.417.336ZM13.26 2.399a.751.751 0 0 1 .861-.62 5.687 5.687 0 0 1 .502.121c.297.086.712.228 1.21.457.996.456 2.321 1.255 3.697 2.631s2.175 2.702 2.632 3.698c.228.498.37.912.457 1.209a5.738 5.738 0 0 1 .113.455l.005.031a.765.765 0 0 1-.617.878.75.75 0 0 1-.86-.617 2.82 2.82 0 0 0-.081-.327 7.396 7.396 0 0 0-.38-1.004c-.39-.85-1.092-2.024-2.33-3.262-1.237-1.238-2.412-1.939-3.262-2.329a7.394 7.394 0 0 0-1.003-.38 5.76 5.76 0 0 0-.318-.08.759.759 0 0 1-.627-.861Z" fill="#91202B"/><path fill-rule="evenodd" clip-rule="evenodd" d="M13.486 5.848a.75.75 0 0 1 .927-.515l-.206.721.206-.721h.003l.003.002.008.002.02.006c.015.005.034.011.056.02.045.015.104.038.177.07.146.062.345.158.59.303.489.29 1.157.77 1.942 1.556.785.785 1.266 1.453 1.556 1.942.145.245.241.444.303.59a2.977 2.977 0 0 1 .09.233l.005.02.003.007v.004l.001.001s0 .002-.72.208l.72-.206a.75.75 0 0 1-1.439.422l-.003-.01a3.676 3.676 0 0 0-.25-.504c-.224-.378-.627-.947-1.327-1.647-.7-.7-1.269-1.102-1.646-1.325a3.662 3.662 0 0 0-.504-.251l-.01-.004a.75.75 0 0 1-.505-.924Z" fill="#91202B"/></svg>