<svg width="61" height="61" fill="none" xmlns="http://www.w3.org/2000/svg"><path fill-rule="evenodd" clip-rule="evenodd" d="M31.403 5.519c-2.785 0-5.32 1.501-10.392 4.505l-1.716 1.016c-5.072 3.003-7.608 4.505-9 6.979-1.392 2.473-1.392 5.477-1.392 11.484v2.031c0 6.008 0 9.011 1.392 11.485 1.392 2.473 3.928 3.975 9 6.978l1.715 1.016c5.072 3.004 7.608 4.506 10.393 4.506 2.784 0 5.32-1.502 10.392-4.506l1.715-1.016c5.072-3.003 7.608-4.505 9-6.978 1.393-2.474 1.393-5.477 1.393-11.485v-2.031c0-6.007 0-9.01-1.392-11.484-1.393-2.474-3.929-3.976-9-6.98l-1.716-1.015c-5.072-3.004-7.608-4.505-10.392-4.505Zm-9.375 25a9.375 9.375 0 1 1 18.75 0 9.375 9.375 0 0 1-18.75 0Z" fill="#91202B"/></svg>