<svg width="60" height="61" fill="none" xmlns="http://www.w3.org/2000/svg"><path d="M20.625 5.519H15c-4.714 0-7.071 0-8.536 1.464C5 8.447 5 10.805 5 15.519v5.625h7.5a1.875 1.875 0 1 1 0 3.75H5v3.75h5a1.875 1.875 0 1 1 0 3.75H5v3.75h7.5a1.875 1.875 0 1 1 0 3.75H5v3.75h5a1.875 1.875 0 1 1 0 3.75H5c.003 3.099.052 4.718.843 5.902a5 5 0 0 0 1.38 1.38c1.26.843 3.016.843 6.527.843s5.267 0 6.528-.843a4.998 4.998 0 0 0 1.38-1.38c.842-1.26.842-3.016.842-6.527v-18.75c0-2.357 0-3.536.732-4.268.733-.732 1.911-.732 4.268-.732h18.75c3.511 0 5.267 0 6.528-.843a4.998 4.998 0 0 0 1.38-1.38C55 19.536 55 17.78 55 14.27c0-3.512 0-5.267-.843-6.528a4.998 4.998 0 0 0-1.38-1.38c-1.183-.79-2.803-.84-5.902-.842v5a1.875 1.875 0 0 1-3.75 0v-5h-3.75v7.5a1.875 1.875 0 0 1-3.75 0v-7.5h-3.75v5a1.875 1.875 0 0 1-3.75 0v-5h-3.75v7.5a1.875 1.875 0 0 1-3.75 0v-7.5Z" fill="#91202B"/></svg>