<svg width="232" height="88" fill="none" xmlns="http://www.w3.org/2000/svg"><path d="M231.936 59.543H.179v28.252h231.757V59.543Z" fill="#7FA92A"/><path d="M231.701 18.552a7.149 7.149 0 0 0-1.579-4.076 8.53 8.53 0 0 0-6.913-2.86h-16.516a41.53 41.53 0 0 0-5.143.15 7.32 7.32 0 0 0-6.786 7.255v12.675a6.96 6.96 0 0 0 4.93 6.786c1.578.504 3.23.735 4.886.683h17.071a18.846 18.846 0 0 0 3.948-.32 7.148 7.148 0 0 0 6.017-5.548c.192-.79 0-1.6.384-2.326V19.683c-.32-.342-.213-.747-.235-1.131m-5.974 11.907a3.085 3.085 0 0 1-.866 2.574 3.076 3.076 0 0 1-2.57.882H204.26a3.007 3.007 0 0 1-3.281-2.051 3.006 3.006 0 0 1-.112-1.384V20.173a3.018 3.018 0 0 1 .872-2.51 3.013 3.013 0 0 1 2.521-.84h17.988a3.096 3.096 0 0 1 3.543 3.542V30.46ZM29.39 23.374a12.48 12.48 0 0 0-4.758-.81H8.906c-1.344 0-2.283-.598-2.411-1.75-.299-2.262-.192-4.098 3.136-4.034h19.995c.896 0 1.408-.17 1.579-1.13.209-1.074.501-2.13.875-3.159.256-.768 0-.917-.747-.917H10.229c-1.22-.043-2.44.022-3.649.192a6.722 6.722 0 0 0-5.25 3.307 10.37 10.37 0 0 0 0 9.09 4.268 4.268 0 0 0 1.046 1.43 8.066 8.066 0 0 0 5.74 2.134H23.63c.715.007 1.428.071 2.133.192a1.963 1.963 0 0 1 1.814 2.006v1.302c0 1.813-.747 2.582-2.56 2.667H3.207c-.768 0-1.152.192-1.301.96a24.323 24.323 0 0 1-.896 3.244c-.32.917 0 1.066.832 1.066h19.823a34.435 34.435 0 0 0 5.932-.298 6.402 6.402 0 0 0 5.612-5.143 13.7 13.7 0 0 0 0-5.59 6.08 6.08 0 0 0-3.904-4.759M108.834 11.574a37.096 37.096 0 0 1-4.076 0c-.832 0-.981.277-.981 1.024v8.535c0 .832-.213 1.153-1.11 1.131H83.463c-.875 0-1.131-.256-1.11-1.11v-8.727c0-.747-.213-.96-.96-.939h-4.268c-.683 0-.853.235-.853.854v25.862c0 .726.298.896.96.875H81.2c.875 0 1.216-.213 1.195-1.152V28.41c0-.79.192-1.11 1.045-1.11h19.205c.811 0 1.088.256 1.067 1.088v9.71c0 .725.192 1.002.96.981h4.076c.811 0 1.088-.235 1.067-1.067V12.406c0-.79-.235-1.003-1.003-.982M152.237 12.342c0-.64-.256-.768-.833-.747h-4.267c-.811 0-1.088.17-1.067 1.024v17.754a3.132 3.132 0 0 1-.881 2.704 3.137 3.137 0 0 1-2.704.88h-15.513c-2.667 0-3.713-1.066-3.713-3.733V12.577c0-.704-.149-1.003-.939-.982h-4.268c-.746 0-.981.192-.96.939V31.76a7.15 7.15 0 0 0 1.579 4.503 8.18 8.18 0 0 0 6.295 2.816c5.548.277 11.075 0 16.623.107a23.48 23.48 0 0 0 3.862-.278 7.129 7.129 0 0 0 6.402-7.127c.106-6.401 0-12.93 0-19.418M188.961 34.918c-.171-.832-.555-1.003-1.345-1.003h-19.012a3.029 3.029 0 0 1-3.436-3.414v-10.2c0-2.39 1.11-3.5 3.521-3.542h18.799c.747 0 1.153-.17 1.302-.96.235-1.151.548-2.285.939-3.393.256-.747 0-.832-.619-.832h-9.965c-4.268 0-8.728-.235-13.102.17a7.104 7.104 0 0 0-6.85 7.02c-.106 4.397 0 8.792 0 13.188a6.769 6.769 0 0 0 1.835 4.588 8.26 8.26 0 0 0 5.762 2.454c3.755.299 7.49 0 10.541.128h11.843c.79 0 .96-.214.725-.96a22.458 22.458 0 0 1-.938-3.308M69.55 35.26c-.191-1.131-.768-1.366-1.834-1.345H49.023c-2.134 0-3.372-1.088-3.393-2.966V19.768a2.902 2.902 0 0 1 2.497-2.902 12.08 12.08 0 0 1 2.774-.107h17.07c.769 0 1.195-.15 1.366-1.003.216-1.1.509-2.184.875-3.243.256-.726.128-.96-.704-.96H59.35c-4.268 0-8.536-.257-12.803.17a7.084 7.084 0 0 0-6.7 6.957c-.129 4.267 0 8.535 0 12.803.003.789.126 1.573.362 2.326a7.554 7.554 0 0 0 7.298 5.206c3.713.235 7.426 0 10.413.107h11.864c.769 0 1.025-.214.769-.982a19.966 19.966 0 0 1-.79-2.944M131.816 6.645c.128.533.341.768.918.747h3.968a.766.766 0 0 0 .875-.705c.491-1.963.982-3.947 1.515-5.91.15-.577 0-.769-.597-.747h-7.447c-.726 0-.896.192-.726.896.534 1.9 1.025 3.82 1.494 5.74M143.168 7.391h2.347a.94.94 0 0 0 .875-.49c1.302-2.134 2.603-4.14 3.926-6.188.385-.577.193-.705-.405-.705h-6.167a.897.897 0 0 0-1.003.726c-.405 1.366-.875 2.689-1.323 4.054-.256.811-.917 1.963-.618 2.369.298.405 1.643.128 2.368.234ZM123.857 7.37h5.079c-.769-2.39-1.515-4.673-2.262-6.956-.171-.491-.555-.384-.897-.384H120.4a3.903 3.903 0 0 0-1.536.128l4.267 6.828a.701.701 0 0 0 .641.384" fill="#1D1D1B"/></svg>