<svg width="16" height="16" viewBox="0 0 16 16" fill="none" xmlns="http://www.w3.org/2000/svg">
<path fill-rule="evenodd" clip-rule="evenodd" d="M8 13.8333C8.27614 13.8333 8.5 13.6095 8.5 13.3333L8.5 3.87377L11.6464 7.02021C11.8417 7.21548 12.1583 7.21548 12.3536 7.02021C12.5488 6.82495 12.5488 6.50837 12.3536 6.31311L8.35355 2.31311C8.25979 2.21934 8.13261 2.16666 8 2.16666C7.86739 2.16666 7.74022 2.21934 7.64645 2.31311L3.64645 6.31311C3.45118 6.50837 3.45118 6.82495 3.64645 7.02021C3.84171 7.21548 4.15829 7.21548 4.35355 7.02021L7.5 3.87377L7.5 13.3333C7.5 13.6095 7.72386 13.8333 8 13.8333Z" fill="#91202B"/>
</svg>
