<svg width="60" height="61" viewBox="0 0 60 61" fill="none" xmlns="http://www.w3.org/2000/svg">
  <path
    d="M23.9111 22.3448L25.1971 26.9999C26.4097 31.3889 27.0159 33.5833 28.7984 34.5815C30.5809 35.5796 32.8434 34.9916 37.3686 33.8156L42.1683 32.5682C46.6935 31.3922 48.9561 30.8042 49.9852 29.0754C51.0143 27.3466 50.408 25.1522 49.1955 20.7633L47.9094 16.1081C46.6969 11.7191 46.0907 9.52467 44.3082 8.52654C42.5257 7.52841 40.2631 8.11642 35.738 9.29243L30.9383 10.5398C26.4131 11.7158 24.1505 12.3038 23.1214 14.0326C22.0923 15.7614 22.6986 17.9559 23.9111 22.3448Z"
    fill="#91202B" />
  <path
    d="M5.69373 13.6359C5.97057 12.6381 7.00391 12.0536 8.00175 12.3304L12.261 13.5122C14.5532 14.1481 16.3673 15.9152 17.0001 18.2058L22.3776 37.6709L22.7734 39.0372C24.3562 39.6281 25.7157 40.7351 26.5786 42.2054L27.3535 41.9662L49.5289 36.2032C50.5311 35.9427 51.5547 36.5441 51.8152 37.5463C52.0757 38.5485 51.4743 39.5722 50.4721 39.8326L28.3788 45.5743L27.557 45.828C27.5402 49.0054 25.3481 51.9072 22.0309 52.7693C18.0547 53.8026 13.9677 51.514 12.9023 47.6575C11.8369 43.8011 14.1965 39.8371 18.1727 38.8038C18.3697 38.7526 18.5671 38.7095 18.7643 38.6744L13.3855 19.2044C13.1148 18.2246 12.3224 17.4209 11.2584 17.1257L6.9992 15.9439C6.00136 15.6671 5.41688 14.6338 5.69373 13.6359Z"
    fill="#91202B" />
</svg>