<svg width="61" height="61" viewBox="0 0 61 61" fill="none" xmlns="http://www.w3.org/2000/svg">
<path fill-rule="evenodd" clip-rule="evenodd" d="M30.6665 40.5186C40.3315 40.5186 48.1665 32.6835 48.1665 23.0186C48.1665 13.3536 40.3315 5.51855 30.6665 5.51855C21.0015 5.51855 13.1665 13.3536 13.1665 23.0186C13.1665 32.6835 21.0015 40.5186 30.6665 40.5186ZM30.6665 15.5186C29.9564 15.5186 29.4814 16.3706 28.5314 18.0748L28.2856 18.5157C28.0156 19 27.8807 19.2421 27.6702 19.4019C27.4598 19.5617 27.1976 19.621 26.6734 19.7396L26.1962 19.8476C24.3514 20.265 23.429 20.4737 23.2096 21.1794C22.9901 21.885 23.6189 22.6204 24.8766 24.091L25.2019 24.4715C25.5593 24.8894 25.738 25.0983 25.8184 25.3568C25.8988 25.6153 25.8718 25.8941 25.8177 26.4517L25.7686 26.9594C25.5784 28.9215 25.4833 29.9026 26.0579 30.3387C26.6324 30.7749 27.496 30.3772 29.2233 29.5819L29.6701 29.3762C30.1609 29.1502 30.4064 29.0372 30.6665 29.0372C30.9266 29.0372 31.1721 29.1502 31.6629 29.3762L32.1097 29.5819C33.837 30.3772 34.7006 30.7749 35.2751 30.3387C35.8497 29.9026 35.7546 28.9215 35.5645 26.9594L35.5153 26.4517C35.4612 25.8942 35.4342 25.6153 35.5146 25.3568C35.595 25.0983 35.7737 24.8894 36.131 24.4715L36.4564 24.091C37.7141 22.6204 38.3429 21.885 38.1234 21.1794C37.904 20.4737 36.9816 20.265 35.1369 19.8476L34.6596 19.7396C34.1354 19.621 33.8733 19.5617 33.6628 19.4019C33.4523 19.2421 33.3174 19 33.0474 18.5157L32.8016 18.0748C31.8516 16.3706 31.3766 15.5186 30.6665 15.5186Z" fill="#91202B"/>
<path d="M11.9044 33.0049L8.14664 36.8957C6.79635 38.2938 6.12121 38.9929 5.88758 39.5849C5.35519 40.9339 5.8108 42.4303 6.96996 43.1399C7.47865 43.4513 8.39617 43.5484 10.2312 43.7425C11.2672 43.852 11.7854 43.9068 12.2193 44.0731C13.1906 44.4455 13.9463 45.2279 14.3059 46.2336C14.4665 46.6829 14.5194 47.2193 14.6253 48.2921C14.8127 50.1921 14.9064 51.1421 15.2072 51.6688C15.8926 52.869 17.3378 53.3407 18.6407 52.7895C19.2124 52.5476 19.8876 51.8486 21.2379 50.4505L27.443 44.0257C20.6992 42.9994 14.9971 38.8033 11.9044 33.0049Z" fill="#91202B"/>
<path d="M33.89 44.0257L40.0951 50.4505C41.4454 51.8486 42.1206 52.5476 42.6923 52.7895C43.9952 53.3407 45.4404 52.869 46.1258 51.6688C46.4266 51.1421 46.5203 50.1921 46.7077 48.2921C46.8136 47.2193 46.8665 46.6829 47.0271 46.2336C47.3867 45.2279 48.1424 44.4455 49.1137 44.0731C49.5476 43.9068 50.0657 43.852 51.1018 43.7425C52.9368 43.5484 53.8544 43.4513 54.363 43.1399C55.5222 42.4303 55.9778 40.9339 55.4454 39.5849C55.2118 38.9929 54.5367 38.2938 53.1864 36.8957L49.4286 33.0049C46.3359 38.8033 40.6338 42.9994 33.89 44.0257Z" fill="#91202B"/>
</svg>
