<svg width="222" height="55" viewBox="0 0 222 55" fill="none" xmlns="http://www.w3.org/2000/svg">
<path d="M34.0562 2.0213C32.2425 1.55186 30.386 1.35983 28.5723 0.975739H25.0941C23.515 1.25314 21.9146 1.48787 20.3569 1.85063C14.977 3.18963 10.1464 6.16786 6.53371 10.3731C2.921 14.5784 0.704872 19.8027 0.192039 25.323C0.148284 25.5977 0.0840977 25.8687 0 26.1338V29.612C0.0865137 29.8837 0.150734 30.1621 0.192039 30.4442C0.563025 35.3018 2.30072 39.9553 5.20439 43.8671C8.10806 47.779 12.0592 50.7895 16.6014 52.5509C21.0075 54.5497 25.893 55.2481 30.6827 54.5639C35.4725 53.8796 39.967 51.8412 43.6373 48.6886C47.1831 45.946 49.9546 42.3281 51.6792 38.1904C53.4039 34.0526 54.0225 29.5374 53.4743 25.0882C52.9102 19.7515 50.7582 14.7066 47.2965 10.6059C43.8348 6.50513 39.2227 3.53703 34.0562 2.08532M47.8836 35.9069C46.4717 40.0338 43.8289 43.629 40.3112 46.2081C36.7936 48.7872 32.5701 50.2264 28.2095 50.3317C18.8206 50.8865 11.6935 46.6829 6.97767 38.4889C6.49945 37.809 6.18539 37.0273 6.06013 36.2056C7.64751 38.9911 9.83407 41.389 12.4617 43.226C15.1419 45.073 18.2386 46.2262 21.4741 46.5821C24.7096 46.9381 27.9829 46.4857 31.0006 45.2655C34.0183 44.0453 36.6861 42.0955 38.7649 39.5907C40.8437 37.0859 42.2686 34.1045 42.9118 30.9137C43.0611 30.1668 43.0825 29.3986 43.2105 28.6731C43.3385 27.9476 43.0398 27.7982 42.3996 27.7982H28.0174C27.356 27.7982 27.1853 28.0543 27.0999 28.6731C26.8531 30.9634 25.9205 33.1259 24.4242 34.8773C22.9279 36.6288 20.9376 37.8876 18.7139 38.4889C16.9651 38.9476 15.1325 38.9851 13.3663 38.5985C11.6002 38.2119 9.9509 37.4121 8.55367 36.2648C7.15645 35.1174 6.05111 33.6552 5.32834 31.998C4.60558 30.3408 4.28598 28.5359 4.39573 26.7313C4.56759 23.4831 5.44062 20.3107 6.95485 17.4319C8.46907 14.5532 10.5886 12.0364 13.1678 10.0544C15.7469 8.07252 18.7246 6.67249 21.8962 5.95051C25.0677 5.22854 28.358 5.20173 31.5409 5.87198C34.7238 6.54223 37.7239 7.89362 40.335 9.83329C42.9461 11.773 45.1063 14.255 46.6672 17.1087C48.2281 19.9624 49.1526 23.1202 49.3773 26.3652C49.6021 29.6101 49.1216 32.8652 47.969 35.9069" fill="#213B7B"/>
<path d="M183.234 23.3598C181.975 19.5402 180.716 15.6992 179.414 11.8796C179.21 11.0248 178.683 10.2823 177.942 9.8087C177.202 9.33506 176.307 9.16715 175.445 9.34036C174.729 9.5341 174.081 9.92472 173.576 10.4678C173.071 11.011 172.728 11.6849 172.586 12.4131C169.513 21.7807 166.376 31.1483 163.282 40.5159C163.235 40.7782 163.09 41.0127 162.875 41.1714C162.661 41.33 162.395 41.4009 162.13 41.3695C159.889 41.3695 157.649 41.3695 155.43 41.3695C154.448 41.3695 154.213 41.0707 154.213 40.1318C154.213 30.9847 154.213 21.8305 154.213 12.6692C154.25 12.1241 154.199 11.5767 154.064 11.0475C153.938 10.7115 153.73 10.4127 153.458 10.1786C153.186 9.94451 152.859 9.78273 152.508 9.70829C152.157 9.63384 151.793 9.6491 151.45 9.75263C151.106 9.85616 150.794 10.0446 150.543 10.3006C150.11 10.8339 149.903 11.5157 149.967 12.1997C149.967 17.321 149.967 22.4422 149.967 27.5635C149.967 32.6847 149.967 37.7419 149.967 42.8205C149.967 44.7836 150.671 45.5305 152.613 45.5305C156.368 45.5305 160.103 45.5305 163.858 45.5305C165.565 45.5305 166.099 45.1251 166.632 43.5247C167.529 40.7934 168.446 38.062 169.321 35.3094C169.358 35.0463 169.498 34.8087 169.71 34.6487C169.922 34.4887 170.189 34.4193 170.452 34.4558H181.591C181.838 34.4306 182.086 34.5003 182.284 34.6509C182.482 34.8014 182.616 35.0214 182.658 35.2666C182.999 36.3976 183.404 37.5285 183.767 38.6595C184.407 40.5586 185.026 42.479 185.666 44.3995C185.805 44.8098 186.064 45.1683 186.411 45.4275C186.758 45.6867 187.175 45.8342 187.608 45.8505C188.009 45.8837 188.41 45.7956 188.76 45.5977C189.11 45.3999 189.393 45.1014 189.571 44.741C189.719 44.4048 189.796 44.0415 189.796 43.6741C189.796 43.3067 189.719 42.9433 189.571 42.6072L183.17 23.4024M180.14 30.3588C177.387 30.3588 174.656 30.3588 171.924 30.3588C171.455 30.3588 171.007 30.3588 171.241 29.676L175.787 15.9339C175.787 15.9339 175.893 15.7633 176.085 15.5072C177.366 19.3482 178.582 23.0184 179.798 26.7099C180.118 27.6275 180.396 28.545 180.737 29.4626C181.079 30.3801 180.886 30.3802 180.14 30.3802" fill="#213B7B"/>
<path d="M94.914 25.9845C92.7802 25.9845 90.7957 25.9845 88.7472 25.9845H82.7937C81.2574 25.9845 80.3185 26.8381 80.3185 28.1184C80.3185 29.3987 81.2787 30.2522 82.8151 30.2522H90.7103C93.0789 30.2522 93.0789 30.2522 92.268 32.5141C91.4524 34.7818 90.0677 36.8019 88.2467 38.3804C86.4258 39.959 84.2297 41.0431 81.8692 41.5287C79.5086 42.0143 77.063 41.885 74.7667 41.1534C72.4705 40.4218 70.4009 39.1124 68.7564 37.3507C67.1119 35.589 65.9478 33.4343 65.3757 31.0933C64.8036 28.7522 64.8427 26.3034 65.4894 23.9818C66.136 21.6603 67.3684 19.5439 69.0684 17.8357C70.7684 16.1275 72.8788 14.8848 75.1972 14.227C77.6547 13.4968 80.2673 13.4675 82.7405 14.1423C85.2137 14.8172 87.4493 16.1694 89.1953 18.0466C90.3262 19.1775 91.4358 19.2415 92.3961 18.2813C92.6205 18.0644 92.7946 17.8009 92.906 17.5094C93.0175 17.2178 93.0637 16.9054 93.0414 16.5941C93.019 16.2828 92.9286 15.9801 92.7765 15.7076C92.6245 15.435 92.4145 15.1991 92.1614 15.0165C90.1836 12.8989 87.7125 11.3037 84.9685 10.3729C82.2245 9.44207 79.2929 9.20467 76.4349 9.68188C73.7947 10.0602 71.2694 11.012 69.0364 12.4706C66.8035 13.9292 64.917 15.8591 63.5097 18.1247C62.1023 20.3904 61.2082 22.9367 60.8901 25.5848C60.5721 28.2329 60.8378 30.9186 61.6686 33.453C62.4544 35.7903 63.699 37.9472 65.3294 39.7972C66.9599 41.6471 68.9432 43.1529 71.1633 44.2261C73.3834 45.2994 75.7954 45.9185 78.2579 46.0473C80.7204 46.176 83.1839 45.8117 85.5037 44.9758C88.8861 43.7104 91.8119 41.4607 93.9038 38.5169C95.9956 35.5731 97.1576 32.0702 97.2399 28.4598C97.2399 26.8808 96.5144 26.0912 94.8713 26.0485" fill="#213B7B"/>
<path d="M221.238 11.901C221.26 11.6525 221.26 11.4026 221.238 11.1541C221.18 10.6658 220.942 10.2164 220.572 9.89309C220.201 9.5698 219.724 9.39563 219.232 9.40437C217.824 9.40437 217.098 10.1512 217.098 11.7943C217.098 19.6895 217.098 27.5848 217.098 35.48C217.098 35.8855 217.29 36.3336 216.863 36.7177C216.757 36.611 216.629 36.5256 216.543 36.4189L206.77 23.3598L197.381 10.7914C197.058 10.2611 196.54 9.87769 195.939 9.72235C195.338 9.567 194.699 9.65194 194.159 9.95919C193.829 10.24 193.578 10.6027 193.432 11.0109C193.286 11.4191 193.25 11.8585 193.327 12.2851C193.327 22.4849 193.327 32.6918 193.327 42.9058C193.306 43.3038 193.306 43.7027 193.327 44.1007C193.362 44.4629 193.502 44.807 193.73 45.0911C193.957 45.3752 194.262 45.5871 194.607 45.7011C196.272 46.2986 197.467 45.3811 197.467 43.3753C197.467 35.5227 197.467 27.6488 197.467 19.9029C197.407 19.4439 197.45 18.9772 197.595 18.5372C197.993 18.761 198.319 19.0943 198.534 19.4975L217.226 44.5489C217.478 44.9446 217.842 45.2565 218.272 45.4451C219.915 46.1066 221.195 45.1463 221.195 43.3112V11.901" fill="#213B7B"/>
<path d="M143.48 34.0291C141.09 26.7882 138.707 19.5687 136.332 12.3705C135.67 10.386 134.56 9.44712 132.939 9.42578C131.317 9.40444 130.165 10.322 129.482 12.2851C129.034 13.5441 128.65 14.8031 128.223 16.0834L119.41 42.5645C119.262 42.8673 119.188 43.201 119.193 43.5382C119.199 43.8753 119.284 44.2062 119.442 44.5039C119.601 44.8016 119.827 45.0577 120.103 45.2509C120.38 45.4442 120.698 45.5693 121.032 45.6159C121.311 45.6614 121.596 45.6509 121.871 45.5851C122.146 45.5194 122.405 45.3997 122.634 45.233C122.862 45.0662 123.055 44.8556 123.201 44.6137C123.347 44.3717 123.444 44.1032 123.486 43.8235C124.382 41.0708 125.3 38.3395 126.132 35.5868C126.366 34.8826 126.665 34.6052 127.412 34.6266C129.226 34.6266 131.018 34.6266 132.832 34.6266C134.624 34.6266 136.438 34.6266 138.231 34.6266C138.53 34.577 138.838 34.6479 139.085 34.8237C139.333 34.9996 139.501 35.2662 139.554 35.5655C140.471 38.4462 141.453 41.3268 142.392 44.1008C142.904 45.6372 143.971 46.2347 145.208 45.8506C146.446 45.4665 146.894 44.3142 146.403 42.8205C145.422 39.8758 144.461 36.9311 143.48 34.0077M136.908 30.4229C134.198 30.4229 131.509 30.4229 128.799 30.4229C128.394 30.4229 127.817 30.5509 128.074 29.7827L132.683 15.742H132.96C133.835 18.4093 134.731 21.0553 135.606 23.7226C136.267 25.6644 136.886 27.6275 137.569 29.548C137.847 30.3162 137.676 30.4869 136.908 30.4869" fill="#213B7B"/>
<path d="M106.074 13.9281C108.741 13.9281 111.408 13.9281 114.076 13.9281C114.526 14.0036 114.989 13.9324 115.396 13.7249C115.804 13.5175 116.133 13.1848 116.337 12.7759C117.106 11.2182 116.124 9.76715 114.204 9.76715C110.555 9.76715 106.906 9.76715 103.257 9.76715C101.379 9.76715 100.696 10.4927 100.696 12.4345V27.6275C100.696 32.7914 100.696 37.934 100.696 43.0979C100.696 44.933 101.422 45.6799 103.236 45.6799C106.842 45.6799 110.448 45.6799 114.054 45.6799C115.612 45.6799 116.529 44.869 116.529 43.5461C116.529 42.2231 115.527 41.4122 113.99 41.4122H105.882C105.135 41.4122 104.9 41.1988 104.9 40.4306C104.9 37.3792 104.9 34.3064 104.9 31.2337C104.9 30.3801 105.135 30.1241 105.988 30.1454C108.741 30.1454 111.472 30.1454 114.204 30.1454C114.653 30.1787 115.102 30.0686 115.486 29.8309C115.869 29.5932 116.167 29.2402 116.337 28.8224C116.458 28.4899 116.495 28.1324 116.443 27.7823C116.392 27.4322 116.254 27.1004 116.042 26.8168C115.831 26.5332 115.552 26.3067 115.231 26.1577C114.91 26.0086 114.557 25.9418 114.204 25.9631C111.43 25.9631 108.634 25.9631 105.86 25.9631C105.177 25.9631 104.836 25.8564 104.836 25.0455C104.836 21.674 104.836 18.3239 104.836 14.9738C104.836 14.0775 105.156 13.8855 105.967 13.9068" fill="#213B7B"/>
</svg>
