<svg width="161" height="40" viewBox="0 0 161 40" fill="none" xmlns="http://www.w3.org/2000/svg">
<g clip-path="url(#clip0_65_603)">
<path d="M13.5003 8.9187V4.93131L0.335872 0.638218L-0.00341797 0.528564V39.5186H8.32616V27.696H6.76882V37.9967H1.55732V2.63523L11.9328 6.02119V8.9187H6.60256V22.8347H13.4562L13.5003 10.4439H18.8543V37.9934H13.6259V27.6927H12.0685V39.5153H20.3981V8.9187H13.5003ZM11.9125 21.3095H8.18026V10.4439H11.9464L11.9125 21.3095Z" fill="#D9D9D9"/>
<path d="M36.7687 22.8579H31.2213V18.4917H28.7954V30.1183H31.2213V25.0011H36.7687V30.1183H39.1947V18.4917H36.7687V22.8579Z" fill="#D9D9D9"/>
<mask id="mask0_65_603" style="mask-type:luminance" maskUnits="userSpaceOnUse" x="-16" y="-75" width="193" height="190">
<path d="M176.675 -74.1719H-15.6787V114.209H176.675V-74.1719Z" fill="white"/>
</mask>
<g mask="url(#mask0_65_603)">
<path d="M52.9766 19.9505C52.4044 19.4073 51.7273 18.9814 50.985 18.6978C49.3792 18.1086 47.6099 18.1086 46.0042 18.6978C45.2602 18.9782 44.5824 19.4045 44.0126 19.9505C43.442 20.4922 42.9885 21.1409 42.6791 21.8578C42.3547 22.6288 42.1931 23.4562 42.2041 24.2901C42.1958 25.1232 42.3513 25.9501 42.6622 26.7257C42.9557 27.4571 43.4004 28.1212 43.9685 28.6762C44.5365 29.2334 45.2141 29.672 45.9601 29.9655C47.5824 30.5723 49.3762 30.5723 50.9985 29.9655C51.7429 29.6727 52.4184 29.2339 52.9834 28.6762C53.547 28.1176 53.9911 27.4545 54.2897 26.7257C54.6071 25.9517 54.7661 25.1242 54.7579 24.2901C54.7677 23.457 54.6086 22.6302 54.2897 21.8578C53.9874 21.1356 53.5371 20.482 52.9664 19.9372M51.7111 26.2672C51.4143 26.8288 50.966 27.3 50.415 27.6295C49.825 27.9562 49.1588 28.128 48.481 28.128C47.8033 28.128 47.137 27.9562 46.5471 27.6295C45.9931 27.3003 45.5415 26.8293 45.2408 26.2672C44.9283 25.653 44.7656 24.9763 44.7656 24.2901C44.7656 23.6039 44.9283 22.9271 45.2408 22.313C45.5425 21.7516 45.9939 21.2808 46.5471 20.9506C47.1312 20.6101 47.8014 20.4374 48.481 20.4522C49.1661 20.4366 49.8419 20.6093 50.4319 20.9506C50.9818 21.2795 51.4281 21.7511 51.7212 22.313C52.035 22.926 52.1922 23.6045 52.1793 24.2901C52.193 24.9769 52.0321 25.6563 51.7111 26.2672Z" fill="#D9D9D9"/>
<path d="M65.7509 24.3298C65.4065 24.1186 65.0344 23.9543 64.6448 23.8414C65.142 23.6537 65.5814 23.3435 65.9205 22.9409C66.2639 22.5099 66.4438 21.9755 66.4295 21.429C66.4536 20.8403 66.2743 20.2608 65.9205 19.7842C65.555 19.3347 65.065 18.9978 64.5091 18.8139C63.8401 18.5836 63.1348 18.4711 62.4258 18.4816H58.4663V30.1115H62.6735C63.4629 30.1258 64.2489 30.0078 64.9976 29.7626C65.6145 29.5652 66.1553 29.1885 66.5482 28.6827C66.9357 28.1323 67.1298 27.4733 67.1012 26.8053C67.121 26.3107 67.0057 25.82 66.7671 25.3836C66.5285 24.9473 66.1754 24.5812 65.7441 24.3232M62.1985 20.3757C62.647 20.3524 63.0908 20.4751 63.4607 20.7245C63.6167 20.8437 63.7408 20.9982 63.8224 21.1747C63.9039 21.3513 63.9405 21.5446 63.9289 21.738C63.9352 22.0025 63.8608 22.2628 63.7151 22.4856C63.5683 22.7012 63.3592 22.8689 63.1146 22.9675C62.8244 23.0847 62.5123 23.1413 62.1985 23.1336H60.8922V20.3757H62.1985ZM64.3259 27.5064C64.1339 27.7657 63.865 27.9607 63.5557 28.0647C63.2011 28.1846 62.828 28.2431 62.453 28.2375H60.8922V24.8814H62.453C62.7385 24.8787 63.0233 24.9099 63.3012 24.9744C63.5452 25.0296 63.7758 25.1312 63.9798 25.2735C64.1729 25.4062 64.3301 25.583 64.4378 25.7885C64.5521 26.0179 64.608 26.271 64.6007 26.5262C64.6155 26.8739 64.5169 27.2173 64.3191 27.5064" fill="#D9D9D9"/>
<path d="M81.0698 19.9503C80.497 19.4063 79.8186 18.9803 79.0747 18.6976C77.4702 18.1083 75.7019 18.1083 74.0974 18.6976C73.3527 18.9788 72.674 19.405 72.1023 19.9503C71.536 20.4986 71.0863 21.1513 70.7791 21.8709C70.4563 22.6424 70.2947 23.4695 70.3041 24.3032C70.2952 25.1367 70.452 25.9639 70.7655 26.7388C71.0578 27.47 71.5014 28.1341 72.0684 28.6893C72.6383 29.2459 73.3168 29.6843 74.0634 29.9786C75.6858 30.5854 77.4796 30.5854 79.1019 29.9786C79.8463 29.6858 80.5217 29.247 81.0867 28.6893C81.6503 28.1307 82.0944 27.4676 82.393 26.7388C82.7092 25.9646 82.8672 25.137 82.8578 24.3032C82.8688 23.4703 82.7108 22.6435 82.393 21.8709C82.0908 21.1487 81.6404 20.4951 81.0698 19.9503ZM79.8144 26.2803C79.5173 26.8427 79.0677 27.3141 78.5149 27.6426C78.088 27.9014 77.6115 28.0718 77.1148 28.1433C76.6181 28.2147 76.1116 28.1857 75.6268 28.0581C75.1419 27.9304 74.6889 27.7068 74.2958 27.401C73.9026 27.0953 73.5776 26.7138 73.3407 26.2803C73.0282 25.6661 72.8656 24.9893 72.8656 24.3032C72.8656 23.617 73.0282 22.9402 73.3407 22.3261C73.5902 21.9028 73.9224 21.5318 74.3183 21.2343C74.7143 20.9367 75.1661 20.7185 75.6482 20.592C76.1302 20.4655 76.633 20.4332 77.1278 20.497C77.6226 20.5608 78.0997 20.7194 78.5319 20.9638C79.0826 21.2917 79.5291 21.7635 79.8212 22.3261C80.135 22.9391 80.2922 23.6176 80.2792 24.3032C80.294 24.9898 80.1342 25.6691 79.8144 26.2803Z" fill="#D9D9D9"/>
<path d="M88.1203 18.4917H86.5596V30.1183H88.1203H88.9007H94.1088V28.108H88.9007V24.9347H93.7695V22.9576H88.9007V20.4987H94.1088V18.4917H88.9007H88.1203Z" fill="#D9D9D9"/>
<path d="M115.304 19.9503C114.731 19.4063 114.053 18.9803 113.309 18.6976C111.705 18.1083 109.936 18.1083 108.332 18.6976C107.587 18.9788 106.908 19.405 106.337 19.9503C105.77 20.4986 105.321 21.1513 105.013 21.8709C104.691 22.6424 104.529 23.4695 104.538 24.3032C104.53 25.1363 104.686 25.9632 104.997 26.7388C105.291 27.4695 105.736 28.1334 106.303 28.6893C106.873 29.2459 107.551 29.6843 108.298 29.9786C109.92 30.5854 111.714 30.5854 113.336 29.9786C114.081 29.6858 114.756 29.247 115.321 28.6893C115.885 28.1307 116.329 27.4676 116.627 26.7388C116.944 25.9646 117.102 25.137 117.092 24.3032C117.11 23.4669 116.958 22.6355 116.644 21.8576C116.342 21.1355 115.892 20.4818 115.321 19.937M114.066 26.267C113.769 26.8294 113.319 27.3008 112.766 27.6293C112.339 27.8881 111.863 28.0585 111.366 28.13C110.869 28.2014 110.363 28.1724 109.878 28.0448C109.393 27.9171 108.94 27.6935 108.547 27.3877C108.154 27.082 107.829 26.7005 107.592 26.267C107.28 25.6529 107.117 24.9761 107.117 24.2899C107.117 23.6037 107.28 22.9269 107.592 22.3128C107.842 21.8895 108.174 21.5185 108.57 21.221C108.966 20.9234 109.417 20.7052 109.9 20.5787C110.382 20.4522 110.884 20.4199 111.379 20.4837C111.874 20.5475 112.351 20.7061 112.783 20.9505C113.334 21.2784 113.78 21.7502 114.073 22.3128C114.386 22.9258 114.544 23.6043 114.531 24.2899C114.545 24.9765 114.386 25.6559 114.066 26.267Z" fill="#D9D9D9"/>
<path d="M130.396 18.4917H127.512L123.288 23.2101V18.4917H120.794V30.1183H123.288V24.8549L127.699 30.1183H130.65L125.476 23.9378L130.396 18.4917Z" fill="#D9D9D9"/>
<path d="M142.319 22.8579H136.775V18.4917H134.345V30.1183H136.775V25.0011H142.319V30.1183H144.748V18.4917H142.319V22.8579Z" fill="#D9D9D9"/>
<path d="M160.532 21.8577C160.229 21.1356 159.779 20.4819 159.208 19.9371C158.635 19.3938 157.957 18.968 157.213 18.6844C155.609 18.0951 153.841 18.0951 152.236 18.6844C151.491 18.9656 150.813 19.3918 150.241 19.9371C149.674 20.4845 149.224 21.1375 148.918 21.8577C148.595 22.6292 148.433 23.4563 148.443 24.29C148.434 25.1231 148.59 25.9501 148.901 26.7256C149.196 27.4563 149.64 28.1202 150.207 28.6761C150.777 29.2327 151.455 29.6711 152.202 29.9654C153.824 30.5722 155.618 30.5722 157.241 29.9654C157.985 29.6726 158.66 29.2338 159.225 28.6761C159.789 28.1176 160.233 27.4544 160.532 26.7256C160.846 25.9509 161.004 25.1237 160.996 24.29C161.006 23.4572 160.848 22.6308 160.532 21.8577ZM157.953 26.2671C157.656 26.8295 157.206 27.3009 156.654 27.6294C156.064 27.9562 155.397 28.1279 154.72 28.1279C154.042 28.1279 153.376 27.9562 152.786 27.6294C152.233 27.2993 151.781 26.8285 151.479 26.2671C151.167 25.653 151.004 24.9762 151.004 24.29C151.004 23.6038 151.167 22.927 151.479 22.3129C151.787 21.7362 152.254 21.2558 152.827 20.9268C153.4 20.5977 154.056 20.4332 154.72 20.4521C155.405 20.436 156.081 20.6087 156.671 20.9506C157.22 21.2795 157.667 21.751 157.96 22.3129C158.274 22.9259 158.431 23.6044 158.418 24.29C158.431 24.9764 158.271 25.6554 157.953 26.2671Z" fill="#D9D9D9"/>
</g>
</g>
<defs>
<clipPath id="clip0_65_603">
<rect width="161" height="39" fill="white" transform="translate(0 0.518555)"/>
</clipPath>
</defs>
</svg>
