<svg width="161" height="39" viewBox="0 0 161 39" fill="none" xmlns="http://www.w3.org/2000/svg">
<g clip-path="url(#clip0_65_73)">
<path d="M13.5003 8.3999V4.41251L0.335872 0.119419L-0.00341797 0.00976562V38.9998H8.32616V27.1772H6.76882V37.4779H1.55732V2.11644L11.9328 5.5024V8.3999H6.60256V22.3159H13.4562L13.5003 9.92507H18.8543V37.4746H13.6259V27.1739H12.0685V38.9965H20.3981V8.3999H13.5003ZM11.9125 20.7907H8.18026V9.92507H11.9464L11.9125 20.7907Z" fill="#91202B"/>
<path d="M36.7687 22.3393H31.2213V17.9731H28.7954V29.5997H31.2213V24.4826H36.7687V29.5997H39.1947V17.9731H36.7687V22.3393Z" fill="#91202B"/>
<mask id="mask0_65_73" style="mask-type:luminance" maskUnits="userSpaceOnUse" x="-16" y="-75" width="193" height="189">
<path d="M176.675 -74.6904H-15.6787V113.69H176.675V-74.6904Z" fill="white"/>
</mask>
<g mask="url(#mask0_65_73)">
<path d="M52.9766 19.4319C52.4044 18.8887 51.7273 18.4629 50.985 18.1792C49.3792 17.59 47.6099 17.59 46.0042 18.1792C45.2602 18.4597 44.5824 18.8859 44.0126 19.4319C43.442 19.9737 42.9885 20.6223 42.6791 21.3392C42.3547 22.1103 42.1931 22.9377 42.2041 23.7715C42.1958 24.6047 42.3513 25.4316 42.6622 26.2072C42.9557 26.9385 43.4004 27.6026 43.9685 28.1577C44.5365 28.7148 45.2141 29.1534 45.9601 29.4469C47.5824 30.0538 49.3762 30.0538 50.9985 29.4469C51.7429 29.1541 52.4184 28.7154 52.9834 28.1577C53.547 27.5991 53.9911 26.936 54.2897 26.2072C54.6071 25.4331 54.7661 24.6056 54.7579 23.7715C54.7677 22.9384 54.6086 22.1116 54.2897 21.3392C53.9874 20.6171 53.5371 19.9634 52.9664 19.4186M51.7111 25.7486C51.4143 26.3102 50.966 26.7814 50.415 27.111C49.825 27.4377 49.1588 27.6094 48.481 27.6094C47.8033 27.6094 47.137 27.4377 46.5471 27.111C45.9931 26.7818 45.5415 26.3107 45.2408 25.7486C44.9283 25.1345 44.7656 24.4577 44.7656 23.7715C44.7656 23.0854 44.9283 22.4086 45.2408 21.7945C45.5425 21.233 45.9939 20.7622 46.5471 20.4321C47.1312 20.0916 47.8014 19.9189 48.481 19.9337C49.1661 19.9181 49.8419 20.0907 50.4319 20.4321C50.9818 20.761 51.4281 21.2325 51.7212 21.7945C52.035 22.4075 52.1922 23.0859 52.1793 23.7715C52.193 24.4584 52.0321 25.1378 51.7111 25.7486Z" fill="#91202B"/>
<path d="M65.7509 23.8117C65.4065 23.6006 65.0344 23.4363 64.6448 23.3233C65.142 23.1356 65.5814 22.8254 65.9205 22.4228C66.2639 21.9918 66.4438 21.4574 66.4295 20.9109C66.4536 20.3222 66.2743 19.7427 65.9205 19.2661C65.555 18.8166 65.065 18.4798 64.5091 18.2959C63.8401 18.0655 63.1348 17.953 62.4258 17.9636H58.4663V29.5935H62.6735C63.4629 29.6077 64.2489 29.4897 64.9976 29.2446C65.6145 29.0471 66.1553 28.6704 66.5482 28.1646C66.9357 27.6142 67.1298 26.9552 67.1012 26.2873C67.121 25.7927 67.0057 25.3019 66.7671 24.8656C66.5285 24.4292 66.1754 24.0631 65.7441 23.8051M62.1985 19.8576C62.647 19.8343 63.0908 19.957 63.4607 20.2065C63.6167 20.3256 63.7408 20.4801 63.8224 20.6567C63.9039 20.8332 63.9405 21.0265 63.9289 21.2199C63.9352 21.4844 63.8608 21.7448 63.7151 21.9676C63.5683 22.1831 63.3592 22.3508 63.1146 22.4494C62.8244 22.5667 62.5123 22.6233 62.1985 22.6155H60.8922V19.8576H62.1985ZM64.3259 26.9884C64.1339 27.2477 63.865 27.4426 63.5557 27.5466C63.2011 27.6665 62.828 27.725 62.453 27.7194H60.8922V24.3633H62.453C62.7385 24.3606 63.0233 24.3919 63.3012 24.4564C63.5452 24.5115 63.7758 24.6131 63.9798 24.7554C64.1729 24.8881 64.3301 25.0649 64.4378 25.2705C64.5521 25.4999 64.608 25.753 64.6007 26.0081C64.6155 26.3559 64.5169 26.6992 64.3191 26.9884" fill="#91202B"/>
<path d="M81.0698 19.432C80.497 18.888 79.8186 18.462 79.0747 18.1793C77.4702 17.59 75.7019 17.59 74.0974 18.1793C73.3527 18.4605 72.674 18.8866 72.1023 19.432C71.536 19.9803 71.0863 20.633 70.7791 21.3526C70.4563 22.1241 70.2947 22.9512 70.3041 23.7849C70.2952 24.6184 70.452 25.4456 70.7655 26.2205C71.0578 26.9517 71.5014 27.6158 72.0684 28.171C72.6383 28.7275 73.3168 29.166 74.0634 29.4603C75.6858 30.0671 77.4796 30.0671 79.1019 29.4603C79.8463 29.1675 80.5217 28.7287 81.0867 28.171C81.6503 27.6124 82.0944 26.9493 82.393 26.2205C82.7092 25.4463 82.8672 24.6187 82.8578 23.7849C82.8688 22.952 82.7108 22.1252 82.393 21.3526C82.0908 20.6304 81.6404 19.9767 81.0698 19.432ZM79.8144 25.762C79.5173 26.3244 79.0677 26.7958 78.5149 27.1243C78.088 27.3831 77.6115 27.5535 77.1148 27.625C76.6181 27.6964 76.1116 27.6674 75.6268 27.5398C75.1419 27.4121 74.6889 27.1885 74.2958 26.8827C73.9026 26.577 73.5776 26.1955 73.3407 25.762C73.0282 25.1478 72.8656 24.471 72.8656 23.7849C72.8656 23.0987 73.0282 22.4219 73.3407 21.8078C73.5902 21.3845 73.9224 21.0135 74.3183 20.716C74.7143 20.4184 75.1661 20.2002 75.6482 20.0737C76.1302 19.9471 76.633 19.9149 77.1278 19.9787C77.6226 20.0424 78.0997 20.2011 78.5319 20.4454C79.0826 20.7734 79.5291 21.2452 79.8212 21.8078C80.135 22.4208 80.2922 23.0993 80.2792 23.7849C80.294 24.4714 80.1342 25.1508 79.8144 25.762Z" fill="#91202B"/>
<path d="M88.1203 17.9731H86.5596V29.5997H88.1203H88.9007H94.1088V27.5894H88.9007V24.4161H93.7695V22.439H88.9007V19.9801H94.1088V17.9731H88.9007H88.1203Z" fill="#91202B"/>
<path d="M115.304 19.432C114.731 18.888 114.053 18.462 113.309 18.1793C111.705 17.59 109.936 17.59 108.332 18.1793C107.587 18.4605 106.908 18.8866 106.337 19.432C105.77 19.9803 105.321 20.633 105.013 21.3526C104.691 22.1241 104.529 22.9512 104.538 23.7849C104.53 24.618 104.686 25.4449 104.997 26.2205C105.291 26.9512 105.736 27.615 106.303 28.171C106.873 28.7275 107.551 29.166 108.298 29.4603C109.92 30.0671 111.714 30.0671 113.336 29.4603C114.081 29.1675 114.756 28.7287 115.321 28.171C115.885 27.6124 116.329 26.9493 116.627 26.2205C116.944 25.4463 117.102 24.6187 117.092 23.7849C117.11 22.9486 116.958 22.1172 116.644 21.3393C116.342 20.6171 115.892 19.9635 115.321 19.4187M114.066 25.7487C113.769 26.3111 113.319 26.7825 112.766 27.111C112.339 27.3698 111.863 27.5402 111.366 27.6117C110.869 27.6831 110.363 27.6541 109.878 27.5265C109.393 27.3988 108.94 27.1752 108.547 26.8694C108.154 26.5637 107.829 26.1822 107.592 25.7487C107.28 25.1345 107.117 24.4578 107.117 23.7716C107.117 23.0854 107.28 22.4086 107.592 21.7945C107.842 21.3712 108.174 21.0002 108.57 20.7027C108.966 20.4051 109.417 20.1869 109.9 20.0604C110.382 19.9338 110.884 19.9016 111.379 19.9654C111.874 20.0292 112.351 20.1878 112.783 20.4321C113.334 20.7601 113.78 21.2319 114.073 21.7945C114.386 22.4075 114.544 23.086 114.531 23.7716C114.545 24.4582 114.386 25.1375 114.066 25.7487Z" fill="#91202B"/>
<path d="M130.396 17.9731H127.512L123.288 22.6916V17.9731H120.794V29.5997H123.288V24.3364L127.699 29.5997H130.65L125.476 23.4193L130.396 17.9731Z" fill="#91202B"/>
<path d="M142.319 22.3393H136.775V17.9731H134.345V29.5997H136.775V24.4826H142.319V29.5997H144.748V17.9731H142.319V22.3393Z" fill="#91202B"/>
<path d="M160.532 21.3394C160.229 20.6172 159.779 19.9636 159.208 19.4188C158.635 18.8755 157.957 18.4497 157.213 18.1661C155.609 17.5768 153.841 17.5768 152.236 18.1661C151.491 18.4473 150.813 18.8735 150.241 19.4188C149.674 19.9662 149.224 20.6192 148.918 21.3394C148.595 22.1109 148.433 22.938 148.443 23.7717C148.434 24.6048 148.59 25.4317 148.901 26.2073C149.196 26.938 149.64 27.6018 150.207 28.1578C150.777 28.7144 151.455 29.1528 152.202 29.4471C153.824 30.0539 155.618 30.0539 157.241 29.4471C157.985 29.1543 158.66 28.7155 159.225 28.1578C159.789 27.5992 160.233 26.9361 160.532 26.2073C160.846 25.4326 161.004 24.6054 160.996 23.7717C161.006 22.9389 160.848 22.1125 160.532 21.3394ZM157.953 25.7488C157.656 26.3112 157.206 26.7826 156.654 27.1111C156.064 27.4378 155.397 27.6096 154.72 27.6096C154.042 27.6096 153.376 27.4378 152.786 27.1111C152.233 26.781 151.781 26.3102 151.479 25.7488C151.167 25.1346 151.004 24.4579 151.004 23.7717C151.004 23.0855 151.167 22.4087 151.479 21.7946C151.787 21.2179 152.254 20.7375 152.827 20.4084C153.4 20.0794 154.056 19.9149 154.72 19.9338C155.405 19.9177 156.081 20.0904 156.671 20.4322C157.22 20.7611 157.667 21.2327 157.96 21.7946C158.274 22.4076 158.431 23.0861 158.418 23.7717C158.431 24.4581 158.271 25.1371 157.953 25.7488Z" fill="#91202B"/>
</g>
</g>
<defs>
<clipPath id="clip0_65_73">
<rect width="161" height="39" fill="white"/>
</clipPath>
</defs>
</svg>
