<svg width="20" height="21" viewBox="0 0 20 21" fill="none" xmlns="http://www.w3.org/2000/svg">
<path fill-rule="evenodd" clip-rule="evenodd" d="M1.17157 3.19013C0 4.3617 0 6.24732 0 10.0186C0 13.7898 0 15.6754 1.17157 16.847C2.34315 18.0186 4.22876 18.0186 8 18.0186H12C15.7712 18.0186 17.6569 18.0186 18.8284 16.847C20 15.6754 20 13.7898 20 10.0186C20 6.24732 20 4.3617 18.8284 3.19013C17.6569 2.01855 15.7712 2.01855 12 2.01855H8C4.22876 2.01855 2.34315 2.01855 1.17157 3.19013ZM16.5762 5.53842C16.8413 5.85662 16.7983 6.32955 16.4801 6.59472L14.2837 8.42512C13.3973 9.16378 12.6789 9.76247 12.0448 10.1703C11.3843 10.5951 10.7411 10.8634 10 10.8634C9.25892 10.8634 8.61567 10.5951 7.95518 10.1703C7.32112 9.76248 6.60271 9.16379 5.71636 8.42513L3.51986 6.59472C3.20165 6.32955 3.15866 5.85662 3.42383 5.53842C3.68901 5.22021 4.16193 5.17722 4.48014 5.44239L6.63903 7.24147C7.57199 8.01893 8.21973 8.55697 8.76658 8.90868C9.29594 9.24914 9.65493 9.36343 10 9.36343C10.3451 9.36343 10.7041 9.24914 11.2334 8.90868C11.7803 8.55697 12.428 8.01893 13.361 7.24147L15.5199 5.44239C15.8381 5.17722 16.311 5.22021 16.5762 5.53842Z" fill="#91202B"/>
</svg>
