<svg width="61" height="61" viewBox="0 0 61 61" fill="none" xmlns="http://www.w3.org/2000/svg">
<path d="M35.3335 7.39356C40.1005 7.39356 43.4872 7.39754 46.0564 7.74295C48.5716 8.08112 50.0207 8.71529 51.0787 9.77331C52.1368 10.8313 52.7709 12.2805 53.1091 14.7957C53.4545 17.3648 53.4585 20.7515 53.4585 25.5186C53.4585 26.5541 54.298 27.3936 55.3335 27.3936C56.369 27.3936 57.2085 26.5541 57.2085 25.5186V25.3775C57.2085 20.7831 57.2086 17.144 56.8257 14.296C56.4316 11.3649 55.6013 8.99257 53.7304 7.12166C51.8595 5.25076 49.4871 4.42046 46.5561 4.02639C43.708 3.64349 40.069 3.64352 35.4746 3.64356H35.3335C34.298 3.64356 33.4585 4.48302 33.4585 5.51856C33.4585 6.55409 34.298 7.39356 35.3335 7.39356Z" fill="#91202B"/>
<path d="M25.1925 3.64356H25.3335C26.369 3.64356 27.2085 4.48302 27.2085 5.51856C27.2085 6.55409 26.369 7.39356 25.3335 7.39356C20.5664 7.39356 17.1798 7.39754 14.6106 7.74295C12.0954 8.08112 10.6463 8.71529 9.58826 9.77331C8.53023 10.8313 7.89606 12.2805 7.5579 14.7957C7.21248 17.3648 7.2085 20.7515 7.2085 25.5186C7.2085 26.5541 6.36903 27.3936 5.3335 27.3936C4.29796 27.3936 3.4585 26.5541 3.4585 25.5186V25.3775C3.45846 20.7831 3.45843 17.144 3.84134 14.296C4.23541 11.3649 5.0657 8.99257 6.93661 7.12166C8.80751 5.25076 11.1799 4.42046 14.1109 4.02639C16.959 3.64349 20.5981 3.64352 25.1925 3.64356Z" fill="#91202B"/>
<path d="M14.1515 14.3366C12.8335 15.6546 12.8335 17.7759 12.8335 22.0186C12.8335 24.847 12.8335 26.2612 13.7122 27.1399C14.5909 28.0186 16.0051 28.0186 18.8335 28.0186H21.8335C24.6619 28.0186 26.0761 28.0186 26.9548 27.1399C27.8335 26.2612 27.8335 24.847 27.8335 22.0186V19.0186C27.8335 16.1901 27.8335 14.7759 26.9548 13.8972C26.0761 13.0186 24.6619 13.0186 21.8335 13.0186C17.5909 13.0186 15.4695 13.0186 14.1515 14.3366Z" fill="#91202B"/>
<path d="M14.1515 46.7005C12.8335 45.3825 12.8335 43.2612 12.8335 39.0186C12.8335 36.1901 12.8335 34.7759 13.7122 33.8972C14.5909 33.0186 16.0051 33.0186 18.8335 33.0186H21.8335C24.6619 33.0186 26.0761 33.0186 26.9548 33.8972C27.8335 34.7759 27.8335 36.1901 27.8335 39.0186V42.0186C27.8335 44.847 27.8335 46.2612 26.9548 47.1399C26.0761 48.0186 24.6619 48.0186 21.8335 48.0186C17.5909 48.0186 15.4695 48.0186 14.1515 46.7005Z" fill="#91202B"/>
<path d="M32.8335 19.0186C32.8335 16.1901 32.8335 14.7759 33.7122 13.8972C34.5909 13.0186 36.0051 13.0186 38.8335 13.0186C43.0761 13.0186 45.1975 13.0186 46.5155 14.3366C47.8335 15.6546 47.8335 17.7759 47.8335 22.0186C47.8335 24.847 47.8335 26.2612 46.9548 27.1399C46.0761 28.0186 44.6619 28.0186 41.8335 28.0186H38.8335C36.0051 28.0186 34.5909 28.0186 33.7122 27.1399C32.8335 26.2612 32.8335 24.847 32.8335 22.0186V19.0186Z" fill="#91202B"/>
<path d="M33.7122 47.1399C32.8335 46.2612 32.8335 44.847 32.8335 42.0186V39.0186C32.8335 36.1901 32.8335 34.7759 33.7122 33.8972C34.5909 33.0186 36.0051 33.0186 38.8335 33.0186H41.8335C44.6619 33.0186 46.0761 33.0186 46.9548 33.8972C47.8335 34.7759 47.8335 36.1901 47.8335 39.0186C47.8335 43.2612 47.8335 45.3825 46.5155 46.7005C45.1975 48.0186 43.0762 48.0186 38.8335 48.0186C36.0051 48.0186 34.5909 48.0186 33.7122 47.1399Z" fill="#91202B"/>
<path d="M55.3335 33.6436C56.369 33.6436 57.2085 34.483 57.2085 35.5186V35.6596C57.2085 40.254 57.2086 43.8931 56.8257 46.7411C56.4316 49.6722 55.6013 52.0445 53.7304 53.9154C51.8595 55.7864 49.4871 56.6166 46.5561 57.0107C43.708 57.3936 40.0689 57.3936 35.4745 57.3936H35.3335C34.298 57.3936 33.4585 56.5541 33.4585 55.5186C33.4585 54.483 34.298 53.6436 35.3335 53.6436C40.1005 53.6436 43.4872 53.6396 46.0564 53.2942C48.5716 52.956 50.0207 52.3218 51.0787 51.2638C52.1368 50.2058 52.7709 48.7567 53.1091 46.2414C53.4545 43.6723 53.4585 40.2856 53.4585 35.5186C53.4585 34.483 54.298 33.6436 55.3335 33.6436Z" fill="#91202B"/>
<path d="M7.2085 35.5186C7.2085 34.483 6.36903 33.6436 5.3335 33.6436C4.29796 33.6436 3.4585 34.483 3.4585 35.5186V35.6596C3.45846 40.254 3.45843 43.8931 3.84134 46.7411C4.23541 49.6722 5.0657 52.0445 6.93661 53.9154C8.80751 55.7864 11.1799 56.6166 14.1109 57.0107C16.959 57.3936 20.5981 57.3936 25.1925 57.3936H25.3335C26.369 57.3936 27.2085 56.5541 27.2085 55.5186C27.2085 54.483 26.369 53.6436 25.3335 53.6436C20.5664 53.6436 17.1798 53.6396 14.6106 53.2942C12.0954 52.956 10.6463 52.3218 9.58826 51.2638C8.53023 50.2058 7.89606 48.7567 7.5579 46.2414C7.21248 43.6723 7.2085 40.2856 7.2085 35.5186Z" fill="#91202B"/>
</svg>
