<svg width="1109" height="498" viewBox="0 0 1109 498" fill="none" xmlns="http://www.w3.org/2000/svg">
<mask id="mask0_65_399" style="mask-type:luminance" maskUnits="userSpaceOnUse" x="92" y="0" width="902" height="498">
<path d="M993.255 0.794861H92.0269V497.519H993.255V0.794861Z" fill="white"/>
</mask>
<g mask="url(#mask0_65_399)">
<path d="M984.588 253.421C983.036 253.421 983.053 252.217 984.71 247.526C986.698 241.911 986.611 241.492 983.106 238.807C980.403 236.766 979.426 234.551 979.426 230.418C979.426 227.331 980.211 224.018 981.17 223.059C981.695 222.486 982.038 221.769 982.153 221C982.269 220.232 982.153 219.446 981.819 218.744C981.486 218.042 980.951 217.455 980.282 217.059C979.614 216.662 978.842 216.474 978.066 216.519C974.578 216.519 968.683 209.683 968.683 205.55C968.619 204.867 968.824 204.186 969.254 203.652C969.684 203.118 970.305 202.773 970.985 202.69C974.299 202.69 973.811 198.452 970.375 197.371C969.021 196.896 967.589 196.683 966.155 196.743C964.336 196.766 962.526 196.483 960.801 195.906C957.784 195.069 956.947 194.022 957.522 191.825C958.098 189.628 957.522 188.878 955.778 188.878C955.129 188.873 954.504 189.125 954.041 189.579C953.577 190.034 953.311 190.653 953.302 191.302C953.302 196.01 947.896 192.662 944.077 185.564C942.111 181.866 939.951 178.275 937.607 174.804C934.747 170.828 935.444 164.341 938.74 164.341C940.17 164.341 940.484 162.597 939.856 157.818C939.089 152.151 939.281 151.54 941.286 153.197C943.292 154.854 943.623 154.208 943.815 148.907C944.164 140.187 947.878 133.647 952.447 133.647C955.935 133.647 956.04 133.351 954.575 128.084C953.738 125.015 952.831 121.109 952.447 119.365C952.064 117.621 951.105 114.028 950.198 111.273C948.959 105.969 948.276 100.551 948.157 95.1066C947.896 88.1309 947.041 83.6664 945.908 83.3002C943.431 82.4631 943.588 79.8124 946.117 79.8124C949.082 79.8124 954.837 73.1331 953.598 71.1973C952.36 69.2616 941.391 68.7035 940.118 70.8137C939.473 71.8426 938.74 71.9123 938.13 70.9706C936.665 68.6861 930.265 67.0468 930.265 68.9651C930.265 69.8545 928.782 70.6044 926.969 70.6044C925.99 70.6476 925.03 70.893 924.151 71.3252C923.271 71.7574 922.491 72.3671 921.859 73.1157C920.115 75.4351 919.941 75.4525 919.051 73.1157C918.441 71.5461 919.173 70.0464 921.074 69.0349C926.707 66.0179 927.579 62.0591 924.091 55.1706C921.807 50.6713 920.185 49.154 918.301 49.7121C914.656 50.8108 910.018 46.9916 911.221 43.9048C912.424 40.8181 914.273 40.6611 915.668 42.9456C916.974 44.058 918.666 44.6096 920.377 44.4803C923.237 44.4803 924.126 43.6607 924.178 40.9925C924.347 38.6566 925.156 36.4122 926.515 34.505C928.259 32.1158 929.375 31.8194 931.433 33.1274C933.491 34.4353 934.921 33.8598 938.618 30.0232C941.129 27.3898 943.048 24.7913 942.856 24.0938C942.664 23.3962 943.239 22.9602 944.077 22.9602C944.914 22.9602 945.611 21.9313 945.611 20.7105C945.611 19.4898 944.739 18.7922 943.065 19.42C941.391 20.0479 940.868 19.8212 941.618 18.6179C942.367 17.4145 941.844 16.7518 940.711 16.6995C936.926 16.4902 931.206 15.2172 930.404 14.3975C929.951 13.9441 930.596 12.9152 931.852 12.113C933.107 11.3108 933.596 10.247 932.567 9.51454C931.62 8.74695 930.998 7.65111 930.823 6.4452C930.265 -0.530519 930.422 -0.425872 925.992 2.69576C923.635 4.34523 921.081 5.69272 918.388 6.70678C916.453 7.31716 915.354 8.60768 915.79 9.77612C915.911 10.5896 915.828 11.4206 915.548 12.1939C915.268 12.9673 914.8 13.6587 914.186 14.2057C910.872 17.5017 911.169 18.3388 915.616 18.3388C917.9 18.3388 919.47 19.2282 919.47 20.5013C919.47 22.2452 917.534 22.4894 910.209 21.8267C902.065 21.0768 901.089 21.2861 901.943 23.5706C902.676 25.4541 902.274 25.8726 900.461 25.1576C900.141 25.0102 899.793 24.933 899.44 24.9309C899.088 24.9289 898.739 25.0021 898.417 25.1458C898.095 25.2894 897.807 25.5001 897.573 25.7638C897.339 26.0275 897.164 26.3381 897.06 26.6748C896.537 28.0176 895.456 28.7152 894.636 28.2095C893.816 27.7037 892.003 28.3141 890.59 29.5349C888.338 31.2757 885.927 32.7997 883.388 34.0865C869.262 41.2017 863.315 45.9278 859.112 53.3918C857.595 56.0949 856.653 58.3097 857.054 58.3097C857.456 58.3097 855.781 60.4373 853.375 63.0008C848.265 68.4768 848.91 72.1391 854.962 72.1391C860.35 72.1391 863.803 75.8188 861.257 78.8881C860.672 79.4983 859.939 79.9473 859.13 80.1917C858.32 80.4361 857.461 80.4676 856.636 80.2832C855.994 80.0522 855.301 80.0032 854.633 80.1417C853.965 80.2802 853.349 80.6008 852.852 81.068C852.402 81.5412 851.828 81.8786 851.196 82.042C850.564 82.2054 849.899 82.1882 849.276 81.9923C847.358 81.4865 846.068 82.6375 844.812 85.9684C843.772 88.6074 841.807 90.7772 839.284 92.0722C835.691 93.4324 832.936 98.4027 833.477 102.536C834.139 107.89 822.193 111.674 820.292 106.721C819.699 105.169 817.258 104.419 812.811 104.419C807.3 104.419 805.521 105.221 802.225 109.145C800.028 111.744 798.249 114.726 798.249 115.772C798.249 118.824 791.273 124.492 788.762 123.585C785.847 123.186 782.882 123.376 780.042 124.143C774.078 125.503 773.66 125.381 774.514 122.696C775.543 119.417 774.148 119.086 768.515 121.231C765.359 122.434 764.574 123.881 764.19 129.288C763.667 136.595 761.365 138.007 759.708 132.061C759.133 129.933 758.575 129.078 758.487 130.125C758.278 132.81 755.61 132.531 755 129.776C754.581 127.893 753.413 128.032 748.024 130.805C744.536 132.549 741.659 134.502 741.746 134.99C741.611 136.292 741.251 137.561 740.682 138.74C739.984 140.292 740.072 142.018 740.839 142.559C742.207 144.039 743.289 145.76 744.03 147.634C745.635 151.279 745.46 151.802 742.461 152.621C739.461 153.441 739.514 153.79 741.414 155.011C745.199 157.452 740.891 160.626 736.462 158.655C732.032 156.685 729.137 157.644 729.137 161.167C729.137 164.393 724.516 166.032 720.993 164.062C718.935 162.911 718.621 163.486 719.057 167.706C719.291 170.13 719.652 172.54 720.138 174.926C720.819 177.595 716.302 177.751 710.338 175.31C707.704 174.229 706.1 172.415 706.1 170.514C706.1 168.613 705.35 167.741 703.955 168.282C701.391 169.276 699.229 166.538 701.478 165.073C703.728 163.608 703.362 161.219 700.781 161.219C700.516 161.254 700.248 161.215 700.005 161.105C699.762 160.996 699.554 160.82 699.405 160.599C699.257 160.378 699.173 160.12 699.163 159.853C699.153 159.587 699.218 159.323 699.351 159.091C699.804 157.871 698.235 155.604 695.636 153.738C691.538 150.825 690.893 150.755 689.096 152.935C687.771 154.54 685.609 155.063 682.836 154.487C677.813 153.493 676.174 155.377 678.424 159.597C679.819 162.196 679.383 162.998 675.511 165.003C669.704 168.003 662.467 168.02 659.484 165.003C657.704 163.55 655.487 162.739 653.189 162.701C648.55 162.701 641.243 167.009 642.499 169.014C642.952 169.764 642.499 170.375 641.662 170.375C641.072 170.246 640.525 169.966 640.076 169.562C639.626 169.159 639.289 168.645 639.098 168.073C637.982 165.143 632.855 165.108 629.942 168.073C629.4 168.66 628.716 169.098 627.955 169.345C627.195 169.593 626.384 169.641 625.6 169.485C624.344 169.014 623.054 169.991 622.461 171.857C622.184 172.76 621.632 173.553 620.881 174.125C620.13 174.698 619.219 175.021 618.275 175.048C617.268 175.121 616.285 175.397 615.386 175.858C614.487 176.32 613.69 176.958 613.044 177.734C611.91 179.234 610.986 179.6 610.968 178.571C610.951 177.542 614.02 173.427 617.822 169.415C621.624 165.404 624.798 161.393 624.798 160.521C624.798 159.649 627.222 156.371 630.169 153.267C636.22 146.884 636.709 144.809 632.837 141.844C630.657 140.1 630.553 139.542 632.227 138.356C633.901 137.17 633.081 136.037 629.018 132.95C623.176 128.485 616.392 127.718 615.067 131.206C613.741 134.694 611.021 134.014 611.021 130.421C611.021 128.677 610.166 127.352 609.102 127.334C607.595 127.16 606.149 126.635 604.882 125.8C603.033 124.596 602.964 124.056 604.568 123.009C606.173 121.963 606.173 121.388 604.568 119.993C601.08 117.15 593.756 125.015 594.575 130.613C595.134 134.397 594.698 135.025 591.646 135.025C589.692 135.025 588.158 135.548 588.158 136.194C588.158 137.746 580.554 141.164 577.101 141.164C575.584 141.164 574.346 140.484 574.346 139.629C574.346 137.223 570.178 137.885 569.114 140.396C568.591 141.774 566.289 142.716 563.429 142.716C557.726 142.716 547.838 147.058 549.041 149.029C549.53 149.796 548.919 150.773 547.716 151.244C546.513 151.715 545.658 154.086 545.885 158.219C546.164 162.841 545.554 164.707 543.374 165.858C541.194 167.009 540.496 166.887 540.496 165.422C540.496 163.957 537.375 163.382 529.928 163.207L519.464 162.946L518.523 168.561C517.86 172.624 518.244 174.682 519.883 175.903C520.505 176.373 521.027 176.962 521.419 177.635C521.812 178.309 522.066 179.054 522.167 179.827C522.284 181.28 522.901 182.648 523.911 183.698C525.115 184.919 525.115 186.244 523.911 188.529C522.809 190.958 522.216 193.587 522.167 196.255C522.11 199.145 521.61 202.009 520.685 204.748C519.743 207.241 519.743 208.968 520.685 209.543C521.093 209.799 521.438 210.144 521.695 210.551C521.951 210.959 522.113 211.419 522.167 211.898C522.167 213.642 517.616 213.886 517.441 212.194C517.086 209.73 516.556 207.294 515.854 204.904C515.852 203.049 516.385 201.233 517.389 199.673C518.575 197.528 518.715 196.464 517.703 197.092C516.692 197.719 515.959 196.621 515.959 194.057C515.959 191.494 516.918 189.732 519.011 189.174C523.179 188.093 522.883 186.192 518.435 185.076C517.308 184.768 516.284 184.164 515.468 183.327C514.652 182.49 514.075 181.45 513.797 180.315C513.256 178.187 511.756 176.461 510.448 176.461C509.14 176.461 508.425 175.903 508.844 175.24C509.262 174.578 508.338 173.915 506.803 173.81C504.763 173.653 504.222 174.403 504.78 176.566C505.339 178.728 504.78 179.513 503.037 179.513C501.676 179.513 500.56 178.833 500.56 177.978C500.56 177.124 499.531 176.461 498.258 176.461C495.067 176.461 495.381 180.472 498.747 182.879C502.583 185.651 504.188 190.273 501.293 190.273C500.037 190.273 499.026 189.697 499.026 188.982C499.026 188.267 497.282 186.89 495.084 185.896C491.841 184.413 491.195 183.175 491.596 179.112C491.883 176.247 492.845 173.492 494.404 171.072C496.741 168.09 496.724 168.09 493.602 170.689C492.178 172.012 490.436 172.943 488.544 173.392C484.935 173.392 482.877 176.88 483.487 182.111C483.805 183.639 483.741 185.222 483.3 186.719C482.859 188.216 482.054 189.58 480.958 190.691C476.267 195.697 473.983 202.69 476.389 204.259C477.733 205.027 479.238 205.469 480.784 205.55C484.115 205.55 489.887 212.525 489.887 216.589C489.678 218.904 488.745 221.095 487.219 222.85C484.795 225.535 484.778 225.971 486.992 227.593C488.647 229.039 489.887 230.899 490.585 232.982L491.718 236.574L488.283 233.61C487.011 232.138 485.375 231.026 483.539 230.383C481.447 230.383 481.586 223.739 483.731 221.664C486.347 219.03 484.045 212.525 480.121 211.497C476.198 210.468 474.279 211.863 473.861 217.007C473.442 222.152 467.216 227.837 458.165 231.831C451.939 234.604 450.736 234.673 446.08 232.72C441.423 230.767 438.999 227.907 438.999 224.001C438.999 223.041 439.906 223.163 441.301 224.332C442.697 225.5 443.603 225.675 443.603 224.995C443.603 224.314 444.475 224.995 445.539 226.39C447.283 228.866 447.824 228.884 452.515 226.582C455.253 225.221 457.485 223.442 457.485 222.64C457.485 221.838 459.229 220.53 461.287 219.745C463.345 218.961 464.775 217.461 464.286 216.135C464.108 215.488 464.191 214.797 464.517 214.21C464.843 213.623 465.386 213.187 466.03 212.996C467.861 212.281 468.315 210.956 467.617 208.183C467.007 205.759 467.809 201.975 469.762 197.929C471.077 195.457 472.118 192.849 472.867 190.151C473.302 188.677 474.149 187.358 475.308 186.349C476.094 185.499 476.664 184.472 476.967 183.354C477.271 182.237 477.3 181.062 477.052 179.931C476.477 177.054 477.505 174.508 480.732 170.636C486.382 163.922 486.591 158.76 481.272 156.685C479.11 155.865 477.174 155.185 477 155.185C476.825 155.185 473.355 158.289 469.326 162.161C465.298 166.032 460.607 169.136 459.037 169.136C456.91 169.136 456.038 170.2 456.038 172.781C455.736 175.524 454.673 178.128 452.968 180.298C449.603 184.588 448.905 189.104 451.608 189.104C452.829 189.104 452.794 189.75 451.486 191.337C450.958 192.128 450.611 193.025 450.469 193.966C450.327 194.906 450.395 195.866 450.666 196.778C451.765 200.266 449.219 204.451 446.062 204.451C445.016 204.451 443.726 202.393 443.237 199.899C442.578 197.099 441.236 194.504 439.331 192.348C437.691 190.709 436.68 189 437.116 188.581C438.616 187.064 436.035 182.129 430.663 176.374C424.978 170.218 420.723 169.729 420.723 175.223C420.723 178.711 418.561 180.455 413.503 180.925C410.504 181.239 410.103 180.769 410.87 177.717C411.637 174.665 411.306 174.229 406.998 174.455C405.688 174.61 404.359 174.473 403.108 174.054C401.857 173.635 400.714 172.944 399.761 172.031C399.061 171.202 398.143 170.584 397.111 170.248C396.079 169.912 394.973 169.871 393.919 170.131C392.965 170.402 391.954 170.397 391.003 170.116C390.052 169.835 389.2 169.29 388.548 168.544C386.804 166.503 386.978 165.614 389.28 163.05C391.931 160.12 391.913 160.016 388.809 160.016C388.05 159.967 387.289 160.077 386.575 160.339C385.86 160.6 385.208 161.006 384.659 161.533C384.118 162.422 382.357 161.777 380.438 159.998C376.619 156.51 364.167 155.359 354.576 157.749C349.187 159.091 345.856 155.551 346.658 149.552C347.408 144.53 352.291 142.018 355.762 144.896C357.244 146.134 358.099 145.541 359.25 142.437C361.342 136.909 361.238 135.949 358.36 134.833C356.808 134.24 354.872 135.269 352.954 137.641C351.345 139.696 349.121 141.181 346.606 141.879C345.673 142.002 344.797 142.399 344.089 143.02C343.381 143.641 342.874 144.457 342.63 145.367C342.343 147.241 341.417 148.96 340.01 150.231C338.602 151.502 336.798 152.248 334.904 152.342C331.626 152.342 329.114 149.883 331.521 149.012C332.341 148.732 332.149 147.39 331.085 145.96C330.021 144.53 325.853 143.012 320.621 142.367C312.111 141.303 312.041 141.321 310.437 145.855C307.455 154.435 300.235 149.256 300.619 138.879C300.776 134.729 300.287 133.804 298.16 134.206C296.52 134.537 295.526 136.159 295.526 138.548C295.553 140.524 295.13 142.48 294.288 144.268C293.92 144.923 293.358 145.448 292.68 145.772C292.002 146.095 291.24 146.201 290.5 146.075C289.759 145.949 289.075 145.597 288.542 145.068C288.009 144.538 287.653 143.857 287.522 143.117C287.086 141.373 285.97 140.03 285.063 140.03C284.156 140.03 284.034 139.402 285.237 138.199C286.533 136.232 287.179 133.908 287.086 131.555C287.086 126.323 291.515 121.196 297.445 119.347C298.5 119.074 299.432 118.454 300.093 117.588C300.754 116.722 301.105 115.658 301.089 114.569C301.316 110.157 301.421 109.738 303.618 104.454C305.938 98.891 308.553 97.4784 308.536 101.925C308.536 115.615 313.471 131.171 319.087 134.833C322.174 136.856 323.83 136.978 328.574 135.566C331.256 134.872 333.763 133.625 335.933 131.904C338.27 129.078 338.671 97.025 336.404 92.7872C335.41 90.8863 333.963 89.2993 333.23 89.2993C331.486 89.2993 333.143 82.7247 335.218 81.3645C336.247 80.6843 336.073 79.481 334.747 77.8766C333.422 76.2722 332.358 75.749 331.94 76.1327C331.521 76.5164 329.306 75.5572 327.022 73.9353C325.665 72.8901 324.092 72.1613 322.417 71.8022C320.743 71.4431 319.009 71.4629 317.343 71.86C312.669 72.6099 311.64 73.5168 310.768 77.5627C309.565 83.0909 307.821 84.5384 302.432 84.6779C297.933 84.7651 294.968 86.9101 291.236 92.7174C289.754 95.0543 287.748 96.9378 286.58 96.9378C282.534 96.9378 276.361 100.896 276.343 103.478C276.343 105.134 275.157 106.163 273.256 106.163C271.355 106.163 270.361 107 270.588 108.047C270.815 109.093 269.437 110.157 267.589 110.436C264.101 110.959 261.572 115.668 263.211 118.301C264.851 120.934 259.235 124.579 252.643 124.579C243.817 124.145 235.067 122.73 226.554 120.359C224.67 119.766 224.025 120.045 224.723 121.161C225.42 122.277 224.949 122.905 223.938 122.905C222.927 122.905 222.421 124.771 223.101 129.044C224.165 135.653 222.211 137.292 219.456 132.148C216.352 126.34 212.48 125.643 204.545 129.427C201.09 130.923 197.917 132.999 195.163 135.566C192.652 138.949 190.053 139.054 191.326 135.775C192.129 133.665 191.78 133.56 188.972 135.078C187.228 136.037 185.659 137.502 185.659 138.304C185.659 139.106 184.734 139.786 183.601 139.786C182.467 139.786 180.776 141.53 179.799 143.64C178.822 145.75 177.009 147.477 175.718 147.477C173.033 147.477 172.562 151.383 175.056 152.935C175.563 153.437 175.917 154.071 176.077 154.766C176.238 155.46 176.198 156.186 175.962 156.859C175.544 158.446 175.84 160.138 176.59 160.609C179.154 162.178 178.107 168.718 175.16 169.66C172.91 170.657 170.905 172.133 169.283 173.985C165.638 178.083 161.837 189.453 163.301 191.825C163.982 192.941 162.656 193.569 159.5 193.569C156.012 193.569 154.46 192.749 153.867 190.5C152.786 186.401 151.704 186.611 146.664 191.877L142.392 196.342L148.147 201.574C152.977 206.003 153.71 207.52 152.838 211.008C152.503 212.261 151.883 213.419 151.027 214.393C150.171 215.368 149.102 216.131 147.903 216.624C144.24 218.019 144.171 218.368 146.42 221.524C149.524 225.954 149.455 226.616 145.513 230.244C143.52 232.346 142.244 235.027 141.869 237.9C141.555 241.858 142.13 242.626 146.054 243.48C149.978 244.335 150.466 245.05 149.716 248.014C149.37 250.728 149.857 253.483 151.111 255.914C154.599 262.472 154.146 270.372 150.344 271.383C148.6 271.819 147.275 272.778 147.275 273.528C147.275 274.278 146.281 274.888 145.043 274.888C144.336 274.941 143.652 275.159 143.046 275.526C142.44 275.892 141.929 276.397 141.555 276.999C139.968 279.737 133.428 281.794 133.428 279.562C133.428 277.33 125.824 274.54 122.807 275.708C120.662 276.528 120.68 276.807 123.069 278.132C125.755 279.649 126.836 284.096 124.517 284.096C122.197 284.096 115.082 280.277 115.082 279.056C115.082 278.376 114.384 278.237 113.547 278.76C112.988 279.402 112.563 280.149 112.297 280.958C112.03 281.766 111.928 282.62 111.995 283.469C111.995 286.852 111.681 287.044 108.926 285.317C106.467 283.765 105.229 283.782 102.665 285.317C100.101 286.852 99.0377 286.834 95.6893 283.312L91.9922 279.318L92.9165 298.17C93.7012 314.284 94.2593 317.353 96.7357 319.097C97.5544 319.691 98.2375 320.452 98.7396 321.33C99.2417 322.208 99.5514 323.183 99.648 324.189C99.648 327.991 103.607 335.821 105.909 336.589C106.85 336.92 108.001 340.53 108.455 344.611C109.152 350.749 110.077 352.476 113.687 354.534C118.081 357.045 118.831 359.678 118.134 370.316C117.994 372.549 118.605 374.833 119.511 375.391C120.418 375.949 121.133 379.454 121.133 383.169C121.133 390.284 123.679 393.109 130.08 393.109C132.364 393.109 133.323 391.697 134.073 387.354C136.619 372.514 136.236 373.141 142.793 373.141C146.368 373.141 148.809 372.426 148.809 371.398C148.809 370.369 148.391 370.037 147.85 370.578C147.31 371.118 145.548 370.822 143.909 369.95C141.45 368.642 141.276 367.962 142.898 366.026C144.148 363.983 144.71 361.593 144.502 359.207C144.188 355.039 145.723 353.854 150.623 354.534C152.469 354.179 154.239 353.507 155.855 352.546C159.465 350.68 160.773 350.802 166.319 353.086C172.457 355.667 182.677 355.336 178.404 352.685C175.736 351.028 176.032 345.535 178.805 345.535C179.363 345.575 179.916 345.401 180.35 345.048C180.785 344.695 181.068 344.189 181.142 343.634C181.257 341.864 181.555 340.111 182.031 338.402C182.624 336.17 181.77 334.06 179.328 331.775C175.945 328.636 175.84 328.288 178.509 326.858C180.654 325.654 180.88 324.835 179.52 323.195C178.16 321.556 178.352 320.265 180.218 317.615C181.543 315.696 182.642 314.894 182.642 315.871C182.642 319.01 188.798 316.08 189.617 312.522C190.298 309.819 191.902 308.878 196.872 308.197C203.394 307.325 206.028 308.878 204.528 312.767C203.29 315.993 205.26 319.463 207.754 318.504C208.5 318.081 209.137 317.491 209.615 316.78C210.093 316.068 210.4 315.256 210.51 314.406C210.893 311.755 212.166 311.11 217.485 310.918C221.078 310.744 224.008 311.284 224.008 312.121C224.008 312.958 226.519 313.307 230.059 312.801C235.43 312.052 236.146 312.331 236.581 315.348C236.93 317.894 237.942 318.626 240.523 318.277C243.784 317.824 244.673 319.149 244.098 323.649C243.976 324.66 245.179 326.195 246.783 327.137C249.155 328.392 249.609 330.066 249.19 336.031C248.806 341.629 249.051 342.745 250.254 340.669C252.399 336.99 254.718 338.769 254.718 344.07C254.718 347.401 255.608 348.657 258.433 349.302C260.396 349.798 262.452 349.798 264.415 349.302C265.272 349.168 266.149 349.3 266.929 349.68C267.709 350.061 268.353 350.671 268.774 351.43C270.085 353.138 271.925 354.365 274.006 354.917C274.992 355.175 275.869 355.74 276.512 356.53C277.155 357.321 277.529 358.295 277.581 359.312C278.244 364.125 280.825 367.334 283.266 366.392C284.295 365.991 286.632 367.386 288.498 369.497C290.364 371.607 292.998 373.072 294.428 372.775C297.113 372.235 297.113 371.956 295.265 358.527C294.585 353.505 294.794 352.737 296.416 354.307C299.816 357.568 303.967 356.679 303.548 352.772C303.13 348.866 308.78 347.139 312.861 350.348C315.111 352.092 315.233 352.092 313.698 350.087C311.762 347.593 312.617 339.85 314.989 338.385C315.773 337.914 317.639 338.612 319.139 339.954C320.489 341.246 322.197 342.103 324.04 342.413C327.913 343.091 331.723 344.094 335.427 345.413C351.297 350.645 365.074 353.034 370.114 351.569C373.811 350.505 375.346 350.854 377.735 353.313C379.342 354.944 381.447 355.993 383.717 356.295C386.141 356.295 386.629 357.254 386.35 361.527C386.349 363.741 385.854 365.928 384.903 367.927C382.444 370.386 383.978 373.159 387.798 373.159C390.71 373.159 391.565 373.787 390.919 375.478C390.414 376.734 390.919 377.798 391.896 377.833C393.705 378.214 395.397 379.021 396.831 380.187C399.238 381.931 399.465 382.768 397.86 383.675C396.256 384.582 396.43 385.192 398.627 386.116C403.859 388.314 409.701 388.401 411.794 386.308C413.311 384.791 415.596 384.564 419.956 385.401C425.188 386.413 425.554 386.727 422.554 387.686C418.194 389.081 418.229 390.11 422.781 395.028C424.804 397.208 426.147 399.3 425.746 399.701C425.345 400.103 426.112 404.061 427.49 408.526C429.005 414.343 429.819 420.321 429.914 426.331C429.914 433.917 430.402 436.028 432.216 436.028C432.823 436.023 433.404 435.778 433.832 435.347C434.26 434.916 434.5 434.333 434.5 433.726C434.5 429.819 438.912 431.179 441.319 435.836C443.726 440.492 448.661 442.811 451.259 440.161C452.428 438.992 454.451 439.254 458.235 441.085C462.647 443.178 463.624 444.573 463.624 448.287C463.624 451.165 464.409 452.909 465.716 452.909C467.024 452.909 468.42 455.158 469.204 457.914C470.408 462.152 471.419 462.971 475.936 463.39C479.29 463.752 482.421 465.247 484.813 467.628C486.766 469.703 488.841 471.115 489.416 470.749C491.551 470.026 493.754 469.523 495.991 469.249C504.1 467.959 506.455 466.721 505.583 464.349C505.007 462.832 506.019 462.274 509.071 462.396C513.471 462.029 517.791 461.006 521.888 459.361C528.358 456.885 530.695 456.571 531.864 457.984C532.701 458.995 535.648 459.605 538.403 459.344C542.118 458.978 543.635 459.571 544.385 461.646C545.868 465.831 549.739 469.86 551.361 468.883C551.905 468.67 552.497 468.61 553.073 468.712C553.648 468.813 554.184 469.072 554.622 469.459C556.727 470.658 559.031 471.467 561.423 471.848C565.452 472.615 567.143 472.04 570.37 468.796C573.212 465.953 573.858 464.349 572.707 463.181C569.847 460.303 570.963 453.327 574.887 448.584C576.92 446.274 578.283 443.452 578.828 440.422C578.828 437.475 579.142 437.301 579.996 439.48C581.165 442.428 591.122 448.322 594.907 448.322C598.691 448.322 606.364 452.822 606.364 455.106C606.364 458.298 614.892 466.738 618.119 466.721C620.65 466.421 623.101 465.639 625.338 464.419C631.843 461.035 642.778 461.402 644.661 465.064C645.037 465.951 645.737 466.661 646.618 467.05C647.5 467.439 648.496 467.477 649.405 467.157C651.48 466.616 653.677 467.505 655.7 469.685C658.299 472.458 660.322 472.981 667.664 472.702C672.512 472.528 677.203 472.824 678.127 473.365C679.051 473.906 680.917 472.981 682.417 471.342C684.594 469.338 687.278 467.969 690.178 467.383C693.666 466.721 695.409 465.395 696.09 462.901C696.578 460.966 699.438 457.914 702.438 456.135C707.355 453.258 708.332 453.153 712.081 455.089C715.569 456.833 716.738 456.833 718.935 455.263C721.133 453.694 722.824 453.763 728.387 455.751L735.189 458.193L739.461 453.641C743.228 449.613 743.751 447.834 743.891 438.696C743.978 432.941 744.85 427.465 745.844 426.488C748.774 423.576 748.024 416.339 744.606 414.194C740.176 411.438 740.787 408.962 746.89 404.968C749.82 403.067 752.244 400.818 752.244 399.963C752.244 398.219 754.18 397.923 770.695 396.772C781.472 396.039 782.466 396.231 786.39 399.893C788.675 402.038 791.256 403.8 792.145 403.8C792.549 403.786 792.943 403.931 793.24 404.206C793.537 404.48 793.714 404.861 793.732 405.265C793.732 406.067 795.476 408.648 797.708 411.002L801.702 415.292L798.109 416.251C794.622 417.141 794.622 417.245 797.586 418.292C801.074 419.513 802.452 420.315 807.928 424.204C812.34 427.325 817.903 428.738 818.967 426.994C819.385 426.349 822.333 426.07 825.542 426.384C828.75 426.697 833.145 427.029 835.36 427.116C838.203 427.256 840.121 428.738 842.057 432.348C845.143 438.103 849.939 440.004 853.165 436.777C854.095 435.724 855.304 434.955 856.653 434.563C857.351 434.563 858.397 432.958 858.798 431.075C859.643 428.703 861.315 426.716 863.507 425.477C865.6 424.361 867.204 423.018 866.995 422.512C866.611 421.117 871.023 414.664 872.366 414.664C873.011 414.664 873.517 416.321 873.517 418.327C873.553 420.412 874.39 422.404 875.854 423.89C877.598 425.39 877.755 426.314 876.377 427.988C874.999 429.662 875.069 431.11 876.569 434.301C881.644 445.009 881.696 445.235 879.795 447.537C879.134 448.232 878.739 449.138 878.682 450.096C878.625 451.053 878.908 452 879.481 452.769C881.626 456.798 879.917 462.291 876.412 462.535C874.825 462.64 872.924 462.814 871.965 462.919C871.006 463.024 869.489 464.89 868.355 467.069C866.611 470.557 866.611 471.447 869.035 474.394C871.326 477.887 873.127 481.678 874.389 485.66C876.9 493.211 876.883 493.647 874.215 495.6C871.546 497.553 871.547 497.641 874.581 497.641C877.092 497.641 877.947 496.368 878.749 491.415L879.726 485.189L886.23 486.078C891.637 486.793 893.398 486.357 896.781 483.305C902.013 478.545 907.541 466.11 906.373 461.489C905.863 459.669 905.967 457.733 906.669 455.978C908.588 452.874 909.006 447.782 909.739 418.379C910.419 390.598 910.419 390.476 906.251 382.349C904.383 378.483 902.14 374.809 899.554 371.38C896.275 367.892 893.102 357.429 894.322 354.342C894.898 352.842 893.206 349.912 889.753 346.477C886.736 343.46 884.295 340.495 884.329 339.867C884.329 338.821 879.621 337.321 870.378 335.438C866.14 334.583 861.275 338.385 864.257 340.233C866.698 341.733 866.193 345.64 863.559 345.64C862.947 345.644 862.362 345.891 861.93 346.325C861.499 346.76 861.257 347.347 861.257 347.959C861.257 348.57 861.015 349.155 860.583 349.587C860.151 350.019 859.566 350.261 858.955 350.261C858.345 350.261 857.759 350.019 857.328 349.587C856.896 349.155 856.653 348.57 856.653 347.959C856.653 344.698 853.584 345.082 853.532 348.343C853.532 350.505 852.747 350.191 849.782 346.808C847.724 344.489 845.667 343.32 845.126 344.14C844.585 344.96 842.161 345.64 839.667 345.64C836.18 345.64 835.151 344.942 835.151 342.675C835.112 341.948 835.23 341.221 835.498 340.543C835.766 339.866 836.177 339.255 836.703 338.751C837.825 337.417 838.377 335.694 838.237 333.955C838.338 331.536 838.932 329.162 839.981 326.98C840.923 325.236 841.621 319.289 841.533 313.778C841.446 308.267 842.126 302.861 843.033 301.78C843.94 300.699 844.777 296.374 844.952 292.171C845.126 287.968 845.736 284.009 846.382 283.364C847.027 282.719 847.097 279.876 846.573 277.103C845.457 271.174 847.759 266.954 856.374 259.053C860.246 255.566 862.635 254.31 863.821 255.304C865.007 256.298 865.565 255.949 865.373 254.118C865.46 253.189 865.79 252.299 866.328 251.537C866.867 250.775 867.596 250.168 868.442 249.776C874.162 246.846 876.273 244.439 877.162 239.731C877.982 235.598 880.109 234.255 884.678 234.97C885.306 235.074 885.829 234.046 885.829 232.685C885.829 230.941 886.771 230.436 888.898 230.941C890.642 231.395 892.386 231.098 892.875 230.296C893.363 229.494 895.09 229.267 896.711 229.773C898.63 230.383 899.641 229.982 899.641 228.57C899.641 227.157 901.385 224.942 903.478 223.111C905.571 221.28 907.332 218.978 907.332 218.001C907.332 217.025 906.094 217.321 904.35 218.891C901.525 221.472 901.315 221.385 899.205 217.147C897.545 212.888 896.506 208.413 896.118 203.858C895.63 198.958 894.375 193.97 893.468 192.802C891.602 190.535 892.805 181.309 894.985 181.309C895.648 181.309 896.589 179.931 897.025 178.24C897.193 177.462 897.593 176.754 898.172 176.209C898.751 175.664 899.483 175.308 900.269 175.188C900.897 175.202 901.505 174.968 901.962 174.538C902.419 174.107 902.688 173.513 902.711 172.886C902.711 169.538 905.257 170.043 907.942 173.932C909.105 175.682 910.817 176.994 912.808 177.664C914.831 177.961 915.127 177.124 914.395 173.339C913.812 170.18 913.491 166.978 913.436 163.765C913.35 160.771 912.277 157.89 910.384 155.569C906.896 151.749 906.599 149.378 909.442 145.611C912.285 141.844 914.674 142.315 914.674 146.936C914.852 148.511 915.339 150.035 916.108 151.421C916.877 152.807 917.913 154.027 919.156 155.011C926.846 161.986 927.771 163.73 925.539 167.34C923.899 169.956 924.021 171.7 926.236 177.664C928.12 182.774 928.416 185.39 927.265 186.785C926.114 188.18 926.131 189.035 927.265 189.715C927.789 190.193 928.203 190.779 928.48 191.432C928.757 192.085 928.89 192.79 928.87 193.499C928.996 195.308 929.821 196.997 931.172 198.208C934.014 200.562 934.345 216.676 931.625 219.397C930.509 220.513 930.422 221.228 931.381 221.228C933.351 221.228 936.613 227.959 936.613 232.057C936.613 237.202 960.33 259.106 973.148 265.768C977.057 267.886 980.659 270.526 983.856 273.615C989.471 279.562 993.43 279.492 993.43 273.458C993.43 267.424 987.309 253.49 984.71 253.49" fill="#C7C6C6"/>
</g>
<mask id="mask1_65_399" style="mask-type:luminance" maskUnits="userSpaceOnUse" x="121" y="103" width="20" height="19">
<path d="M140.962 103.757H121.726V121.301H140.962V103.757Z" fill="white"/>
</mask>
<g mask="url(#mask1_65_399)">
<path d="M126.696 112.162C127.664 112.088 128.632 112.303 129.477 112.782C130.322 113.26 131.006 113.979 131.44 114.848C132.069 116.505 132.907 118.076 133.933 119.522C136.846 123.254 140.351 120.882 140.909 114.831C141.258 110.453 140.804 109.093 138.973 109.093C137.665 109.093 136.584 108.57 136.549 107.942C136.6 107.41 136.539 106.873 136.371 106.366C136.202 105.858 135.929 105.392 135.569 104.996C135.21 104.6 134.771 104.284 134.282 104.068C133.793 103.852 133.265 103.74 132.73 103.74C132.195 103.74 131.667 103.852 131.178 104.068C130.689 104.284 130.25 104.6 129.891 104.996C129.531 105.392 129.258 105.858 129.09 106.366C128.921 106.873 128.86 107.41 128.911 107.942C128.911 110.471 128.213 110.837 124.935 110.017C122.371 109.372 121.325 109.581 121.97 110.61C122.618 111.185 123.375 111.624 124.196 111.9C125.017 112.175 125.885 112.283 126.748 112.215" fill="#C7C6C6"/>
</g>
<path d="M213.474 113.697C212.501 113.179 211.692 112.4 211.137 111.447C210.57 110.468 210.281 109.353 210.3 108.221C210.283 107.087 210.578 105.971 211.155 104.995C211.715 104.051 212.523 103.279 213.492 102.763C214.522 102.214 215.673 101.932 216.84 101.943C217.779 101.931 218.71 102.109 219.578 102.466C220.383 102.804 221.099 103.324 221.671 103.983L220.206 105.361C219.795 104.905 219.291 104.541 218.729 104.295C218.167 104.048 217.559 103.924 216.945 103.931C216.159 103.921 215.384 104.113 214.695 104.489C214.046 104.84 213.508 105.365 213.143 106.006C212.761 106.681 212.568 107.446 212.585 108.221C212.564 108.997 212.757 109.763 213.143 110.436C213.502 111.086 214.041 111.618 214.695 111.971C215.386 112.341 216.161 112.527 216.945 112.511C217.561 112.523 218.172 112.399 218.736 112.149C219.299 111.899 219.801 111.528 220.206 111.064L221.671 112.459C221.096 113.123 220.373 113.643 219.56 113.976C218.692 114.333 217.761 114.511 216.823 114.499C215.657 114.516 214.506 114.24 213.474 113.697Z" fill="#1D1D1B"/>
<path d="M232.675 105.902C233.061 106.287 233.359 106.752 233.549 107.264C233.739 107.775 233.815 108.322 233.774 108.866V114.325H231.716V113.191C231.434 113.612 231.033 113.94 230.565 114.133C230.01 114.352 229.417 114.458 228.821 114.447C228.193 114.466 227.567 114.347 226.99 114.098C226.5 113.885 226.077 113.541 225.769 113.104C225.488 112.674 225.342 112.17 225.351 111.657C225.335 111.273 225.41 110.891 225.571 110.542C225.732 110.194 225.973 109.888 226.275 109.651C227.144 109.072 228.182 108.802 229.222 108.884H231.629V108.744C231.644 108.466 231.598 108.188 231.496 107.93C231.394 107.671 231.237 107.437 231.036 107.244C230.541 106.857 229.918 106.67 229.292 106.721C228.765 106.724 228.242 106.806 227.74 106.965C227.279 107.117 226.849 107.347 226.467 107.646L225.612 106.059C226.139 105.673 226.729 105.384 227.356 105.204C228.066 105.006 228.799 104.906 229.536 104.908C230.67 104.832 231.791 105.187 232.675 105.902ZM230.687 112.494C231.107 112.251 231.429 111.868 231.594 111.412V110.331H229.344C228.089 110.331 227.461 110.75 227.461 111.569C227.454 111.753 227.494 111.936 227.576 112.1C227.658 112.265 227.781 112.406 227.932 112.511C228.316 112.77 228.777 112.893 229.24 112.86C229.746 112.869 230.246 112.743 230.687 112.494Z" fill="#1D1D1B"/>
<path d="M239.093 105.012H241.273V108.796H245.964V105.012H248.144V114.325H245.964V110.645H241.273V114.325H239.093V105.012Z" fill="#1D1D1B"/>
<path d="M257.544 110.593H255.869V114.325H253.689V105.012H255.869V108.779H257.613L260.369 105.012H262.688L259.305 109.494L262.915 114.325H260.369L257.544 110.593Z" fill="#1D1D1B"/>
<path d="M274.32 106.861H271.059V114.325H268.879V106.861H265.6V105.012H274.32V106.861Z" fill="#1D1D1B"/>
<path d="M282.569 108.57H277.773V110.384H282.569V108.57Z" fill="#1D1D1B"/>
<path d="M298.648 102.117V114.325H296.433V104.036H290.103V114.325H287.853V102.117H298.648Z" fill="#1D1D1B"/>
<path d="M313.14 110.366H305.833C305.946 111.023 306.309 111.61 306.845 112.005C307.43 112.418 308.135 112.626 308.85 112.598C309.319 112.615 309.786 112.534 310.221 112.36C310.657 112.186 311.051 111.922 311.379 111.587L312.547 112.93C312.128 113.441 311.58 113.832 310.96 114.063C310.175 114.351 309.34 114.478 308.505 114.439C307.669 114.401 306.85 114.196 306.095 113.837C305.356 113.438 304.75 112.831 304.351 112.093C303.92 111.339 303.698 110.484 303.706 109.616C303.693 108.761 303.91 107.918 304.333 107.175C304.739 106.441 305.344 105.837 306.077 105.431C306.838 105.021 307.69 104.811 308.554 104.82C309.407 104.809 310.248 105.019 310.995 105.431C311.737 105.825 312.344 106.433 312.739 107.175C313.143 107.949 313.347 108.813 313.332 109.686C313.346 109.901 313.346 110.116 313.332 110.331M306.897 107.245C306.404 107.659 306.086 108.245 306.008 108.884H311.239C311.173 108.249 310.868 107.662 310.385 107.245C309.889 106.851 309.274 106.637 308.641 106.637C308.008 106.637 307.393 106.851 306.897 107.245Z" fill="#1D1D1B"/>
<path d="M325.208 106.861H321.947V114.325H319.767V106.861H316.488V105.012H325.208V106.861Z" fill="#1D1D1B"/>
<path d="M337.694 110.366H330.387C330.5 111.023 330.863 111.61 331.399 112.005C331.984 112.418 332.689 112.626 333.404 112.598C333.873 112.615 334.34 112.534 334.776 112.36C335.211 112.186 335.605 111.922 335.933 111.587L337.102 112.93C336.682 113.441 336.134 113.832 335.515 114.063C334.729 114.351 333.894 114.478 333.059 114.439C332.224 114.401 331.404 114.196 330.649 113.837C329.91 113.438 329.304 112.831 328.905 112.093C328.474 111.339 328.252 110.484 328.26 109.616C328.248 108.761 328.464 107.918 328.888 107.175C329.294 106.441 329.898 105.837 330.632 105.431C331.392 105.021 332.244 104.811 333.108 104.82C333.961 104.809 334.802 105.019 335.549 105.431C336.291 105.825 336.899 106.433 337.293 107.175C337.698 107.949 337.901 108.813 337.886 109.686C337.901 109.901 337.901 110.116 337.886 110.331M331.329 107.279C330.836 107.694 330.518 108.279 330.44 108.919H335.671C335.605 108.283 335.3 107.697 334.817 107.279C334.321 106.886 333.706 106.672 333.073 106.672C332.44 106.672 331.825 106.886 331.329 107.279Z" fill="#1D1D1B"/>
<path d="M350.338 105.5C351.077 105.899 351.684 106.505 352.082 107.244C352.503 108.007 352.714 108.867 352.692 109.738C352.714 110.614 352.503 111.481 352.082 112.249C351.694 112.997 351.085 113.606 350.338 113.993C349.589 114.399 348.748 114.603 347.896 114.586C347.337 114.612 346.779 114.512 346.264 114.295C345.748 114.078 345.287 113.748 344.914 113.331V117.847H342.734V105.012H344.81V106.233C345.173 105.801 345.633 105.461 346.152 105.239C346.708 105.019 347.299 104.906 347.896 104.908C348.747 104.899 349.586 105.103 350.338 105.5ZM349.64 111.779C350.137 111.188 350.41 110.44 350.41 109.668C350.41 108.896 350.137 108.149 349.64 107.558C349.381 107.296 349.071 107.09 348.729 106.952C348.387 106.814 348.021 106.747 347.652 106.756C347.157 106.749 346.669 106.876 346.24 107.122C345.822 107.362 345.478 107.712 345.246 108.134C344.996 108.606 344.87 109.134 344.879 109.668C344.866 110.203 344.992 110.732 345.246 111.203C345.473 111.633 345.817 111.99 346.24 112.232C346.67 112.474 347.159 112.594 347.652 112.581C348.021 112.594 348.389 112.529 348.732 112.391C349.074 112.253 349.384 112.044 349.64 111.779Z" fill="#1D1D1B"/>
<path d="M364.778 106.041C365.44 106.41 365.989 106.952 366.365 107.611C366.75 108.322 366.943 109.121 366.923 109.93C366.939 110.769 366.722 111.597 366.295 112.319C365.883 113.013 365.276 113.571 364.551 113.924C363.749 114.32 362.864 114.518 361.97 114.499C361.264 114.539 360.557 114.415 359.907 114.137C359.257 113.858 358.679 113.433 358.22 112.895C357.256 111.555 356.787 109.921 356.895 108.273C356.812 106.701 357.234 105.143 358.098 103.826C359.014 102.674 360.326 101.903 361.778 101.664L366.103 100.74L366.417 102.693L362.493 103.495C361.555 103.644 360.679 104.055 359.964 104.681C359.374 105.328 359.028 106.16 358.988 107.035C359.406 106.548 359.923 106.155 360.505 105.884C361.185 105.583 361.925 105.441 362.668 105.468C363.411 105.495 364.139 105.691 364.795 106.041M363.975 111.971C364.47 111.429 364.733 110.715 364.708 109.982C364.724 109.627 364.667 109.272 364.541 108.939C364.415 108.606 364.223 108.303 363.975 108.047C363.716 107.799 363.41 107.606 363.074 107.48C362.738 107.354 362.38 107.298 362.022 107.314C361.662 107.299 361.302 107.357 360.963 107.482C360.625 107.608 360.315 107.8 360.052 108.047C359.802 108.302 359.607 108.605 359.478 108.938C359.349 109.27 359.289 109.626 359.302 109.982C359.287 110.349 359.348 110.714 359.48 111.056C359.612 111.398 359.812 111.709 360.069 111.971C360.323 112.228 360.628 112.429 360.964 112.562C361.301 112.694 361.661 112.754 362.022 112.738C362.384 112.756 362.745 112.697 363.082 112.565C363.418 112.432 363.723 112.23 363.975 111.971Z" fill="#1D1D1B"/>
<path d="M380.16 105.012L375.8 115.075C375.522 115.917 375.007 116.662 374.317 117.22C373.695 117.638 372.957 117.852 372.207 117.83C371.739 117.831 371.273 117.755 370.829 117.603C370.414 117.483 370.032 117.268 369.713 116.975L370.585 115.371C370.799 115.579 371.055 115.74 371.335 115.842C371.605 115.958 371.896 116.017 372.19 116.016C372.535 116.037 372.876 115.931 373.149 115.72C373.451 115.447 373.684 115.106 373.829 114.726L373.986 114.36L369.923 105.012H372.19L375.12 111.901L378.067 105.012H380.16Z" fill="#1D1D1B"/>
<path d="M391.914 105.5C392.653 105.899 393.259 106.505 393.657 107.244C394.079 108.007 394.29 108.867 394.268 109.738C394.289 110.614 394.079 111.481 393.657 112.249C393.27 112.997 392.661 113.606 391.914 113.993C391.165 114.399 390.324 114.603 389.472 114.586C388.913 114.612 388.355 114.512 387.839 114.295C387.323 114.078 386.863 113.748 386.49 113.331V117.847H384.31V105.012H386.385V106.233C386.749 105.801 387.209 105.461 387.728 105.239C388.283 105.019 388.875 104.906 389.472 104.908C390.323 104.899 391.162 105.103 391.914 105.5ZM391.216 111.779C391.713 111.188 391.985 110.44 391.985 109.668C391.985 108.896 391.713 108.149 391.216 107.558C390.957 107.296 390.647 107.09 390.305 106.952C389.963 106.814 389.597 106.747 389.228 106.756C388.733 106.749 388.245 106.876 387.815 107.122C387.398 107.362 387.054 107.712 386.821 108.134C386.572 108.606 386.446 109.134 386.455 109.668C386.441 110.203 386.568 110.732 386.821 111.203C387.048 111.633 387.393 111.99 387.815 112.232C388.246 112.474 388.734 112.594 389.228 112.581C389.597 112.594 389.965 112.529 390.307 112.391C390.65 112.253 390.959 112.044 391.216 111.779Z" fill="#1D1D1B"/>
<path d="M406.126 106.861H401.156V114.325H398.976V105.012H406.126V106.861Z" fill="#1D1D1B"/>
<path d="M244.656 126.236H229.519V141.373H244.656V126.236Z" fill="#931F2B"/>
<path d="M230.094 214.932H214.957V230.069H230.094V214.932Z" fill="#931F2B"/>
<path d="M217.503 208.793L217.485 200.702L213.474 207.398H212.463L208.452 200.806V208.793H206.307V196.586H208.173L213.003 204.66L217.782 196.586H219.63L219.665 208.793H217.503Z" fill="#1D1D1B"/>
<path d="M227.06 208.305C226.321 207.906 225.716 207.3 225.316 206.561C224.893 205.808 224.67 204.958 224.67 204.094C224.67 203.229 224.893 202.38 225.316 201.626C225.726 200.896 226.33 200.293 227.06 199.882C227.852 199.481 228.727 199.271 229.615 199.271C230.502 199.271 231.378 199.481 232.17 199.882C232.902 200.29 233.506 200.894 233.913 201.626C234.319 202.385 234.532 203.233 234.532 204.094C234.532 204.955 234.319 205.802 233.913 206.561C233.516 207.301 232.91 207.908 232.17 208.305C231.378 208.707 230.502 208.916 229.615 208.916C228.727 208.916 227.852 208.707 227.06 208.305ZM231.594 206.247C232.101 205.661 232.38 204.912 232.38 204.137C232.38 203.362 232.101 202.613 231.594 202.027C231.335 201.765 231.025 201.558 230.683 201.42C230.341 201.283 229.974 201.216 229.606 201.225C229.24 201.214 228.875 201.28 228.536 201.418C228.197 201.556 227.89 201.764 227.635 202.027C227.128 202.613 226.849 203.362 226.849 204.137C226.849 204.912 227.128 205.661 227.635 206.247C227.888 206.514 228.194 206.723 228.534 206.861C228.874 206.999 229.239 207.064 229.606 207.05C229.975 207.063 230.343 206.998 230.685 206.86C231.028 206.722 231.337 206.513 231.594 206.247Z" fill="#1D1D1B"/>
<path d="M240.976 208.305C240.241 207.901 239.636 207.296 239.232 206.561C238.809 205.808 238.587 204.958 238.587 204.094C238.587 203.229 238.809 202.38 239.232 201.626C239.646 200.898 240.249 200.296 240.976 199.882C241.779 199.468 242.672 199.258 243.575 199.272C244.416 199.256 245.249 199.447 245.999 199.83C246.672 200.188 247.215 200.749 247.551 201.434L245.807 202.411C245.568 202.008 245.224 201.676 244.813 201.452C244.276 201.169 243.664 201.063 243.063 201.147C242.462 201.232 241.903 201.503 241.465 201.922C240.946 202.506 240.66 203.26 240.66 204.041C240.66 204.822 240.946 205.576 241.465 206.16C241.731 206.421 242.048 206.625 242.396 206.76C242.743 206.895 243.115 206.958 243.488 206.945C243.948 206.951 244.404 206.843 244.813 206.631C245.235 206.458 245.602 206.175 245.877 205.811L247.621 206.788C247.278 207.478 246.73 208.045 246.051 208.41C245.31 208.798 244.481 208.99 243.645 208.968C242.741 208.988 241.847 208.778 241.046 208.357" fill="#1D1D1B"/>
<path d="M255.956 205.062H254.265V208.794H252.085V199.498H254.265V203.265H256.009L258.764 199.498H261.101L257.718 203.963L261.328 208.794H258.764L255.956 205.062Z" fill="#1D1D1B"/>
<path d="M273.954 206.178C273.973 206.553 273.897 206.928 273.732 207.267C273.567 207.605 273.32 207.896 273.012 208.113C272.175 208.623 271.2 208.861 270.222 208.794H265.479V199.481H270.03C270.962 199.426 271.889 199.644 272.698 200.109C272.997 200.29 273.244 200.546 273.412 200.852C273.58 201.158 273.665 201.503 273.658 201.853C273.67 202.294 273.542 202.728 273.291 203.091C273.017 203.455 272.65 203.738 272.228 203.911C272.738 204.011 273.196 204.291 273.516 204.701C273.836 205.111 273.998 205.623 273.971 206.143M267.571 203.335H269.856C270.989 203.335 271.6 202.951 271.6 202.167C271.6 201.382 271.042 201.033 269.856 201.033H267.571V203.335ZM271.861 206.003C271.871 205.829 271.838 205.656 271.765 205.498C271.692 205.339 271.581 205.202 271.443 205.096C271.05 204.858 270.593 204.748 270.135 204.782H267.571V207.172H270.065C271.268 207.172 271.809 206.788 271.809 206.003" fill="#1D1D1B"/>
<path d="M285.516 200.37C285.9 200.757 286.196 201.222 286.382 201.734C286.569 202.246 286.643 202.792 286.598 203.335V208.793H284.54V207.66C284.269 208.084 283.873 208.413 283.406 208.602C282.85 208.817 282.258 208.923 281.662 208.916C281.034 208.935 280.409 208.816 279.831 208.567C279.345 208.354 278.928 208.01 278.628 207.573C278.341 207.145 278.19 206.64 278.192 206.125C278.157 205.742 278.212 205.356 278.355 204.998C278.497 204.64 278.722 204.322 279.012 204.067C279.875 203.491 280.906 203.221 281.941 203.3H284.348V203.161C284.365 202.884 284.322 202.607 284.223 202.348C284.124 202.089 283.97 201.855 283.773 201.661C283.276 201.277 282.655 201.091 282.029 201.138C281.508 201.141 280.99 201.223 280.494 201.382C280.028 201.533 279.592 201.763 279.203 202.062L278.349 200.475C278.877 200.093 279.467 199.804 280.093 199.62C280.803 199.423 281.536 199.323 282.273 199.324C283.413 199.246 284.54 199.601 285.429 200.318M283.441 206.91C283.857 206.667 284.172 206.284 284.331 205.829V204.748H282.081C280.825 204.748 280.197 205.166 280.197 205.986C280.191 206.17 280.23 206.352 280.313 206.517C280.395 206.681 280.517 206.822 280.668 206.927C281.053 207.187 281.514 207.309 281.976 207.276C282.488 207.286 282.994 207.16 283.441 206.91Z" fill="#1D1D1B"/>
<path d="M353.094 314.423H337.957V329.561H353.094V314.423Z" fill="#931F2B"/>
<path d="M318.668 302.076V303.977H309.513V291.77H318.424V293.671H311.78V296.845H317.674V298.711H311.78V302.076H318.668Z" fill="#1D1D1B"/>
<path d="M327.44 300.245H325.749V303.977H323.569V294.665H325.749V298.431H327.493L330.248 294.665H332.585L329.202 299.146L332.812 303.977H330.248L327.44 300.245Z" fill="#1D1D1B"/>
<path d="M343.415 295.554C343.797 295.942 344.091 296.407 344.277 296.919C344.464 297.43 344.538 297.976 344.496 298.519V303.977H342.438V302.844C342.161 303.258 341.766 303.58 341.304 303.768C340.752 303.997 340.158 304.11 339.561 304.099C338.933 304.11 338.309 303.991 337.729 303.751C337.243 303.538 336.827 303.194 336.526 302.757C336.233 302.331 336.081 301.825 336.09 301.309C336.078 300.924 336.157 300.542 336.32 300.193C336.484 299.845 336.728 299.54 337.032 299.304C337.893 298.722 338.926 298.451 339.962 298.536H342.368V298.397C342.385 298.12 342.343 297.843 342.243 297.584C342.144 297.326 341.99 297.091 341.793 296.897C341.294 296.516 340.674 296.33 340.049 296.374C339.528 296.377 339.01 296.459 338.514 296.618C338.043 296.755 337.604 296.987 337.224 297.298L336.369 295.711C336.894 295.322 337.485 295.033 338.113 294.857C338.823 294.658 339.556 294.558 340.293 294.56C341.433 294.482 342.56 294.837 343.45 295.554M341.461 302.146C341.873 301.899 342.187 301.517 342.351 301.065V299.984H340.049C338.793 299.984 338.165 300.402 338.165 301.222C338.159 301.406 338.198 301.588 338.281 301.753C338.363 301.917 338.485 302.059 338.636 302.164C339.025 302.415 339.482 302.537 339.944 302.512C340.456 302.52 340.961 302.393 341.409 302.146" fill="#1D1D1B"/>
<path d="M357.191 296.513H353.93V303.977H351.75V296.513H348.472V294.665H357.191V296.513Z" fill="#1D1D1B"/>
<path d="M369.695 299.984H362.371C362.486 300.639 362.848 301.226 363.382 301.623C364.076 302.072 364.9 302.275 365.722 302.199C366.545 302.123 367.318 301.773 367.917 301.204L369.085 302.547C368.661 303.054 368.115 303.444 367.498 303.681C366.809 303.948 366.075 304.078 365.336 304.064C364.429 304.073 363.534 303.87 362.72 303.472C361.982 303.072 361.376 302.466 360.976 301.728C360.559 300.975 360.34 300.129 360.34 299.269C360.34 298.408 360.559 297.562 360.976 296.81C361.371 296.068 361.978 295.461 362.72 295.066C363.48 294.654 364.332 294.444 365.196 294.455C366.049 294.444 366.891 294.654 367.638 295.066C368.38 295.46 368.987 296.068 369.382 296.81C369.794 297.581 369.998 298.447 369.975 299.321C369.975 299.478 369.975 299.687 369.975 299.966M363.539 296.879C363.046 297.294 362.728 297.879 362.65 298.519H367.882C367.804 298.049 367.604 297.608 367.302 297.241C366.999 296.873 366.605 296.592 366.159 296.426C365.713 296.259 365.232 296.214 364.762 296.293C364.293 296.373 363.853 296.575 363.487 296.879" fill="#1D1D1B"/>
<path d="M382.322 295.153C383.062 295.551 383.668 296.157 384.066 296.897C384.482 297.661 384.693 298.521 384.677 299.391C384.686 300.266 384.476 301.129 384.066 301.902C383.668 302.641 383.062 303.248 382.322 303.646C381.573 304.052 380.732 304.256 379.881 304.239C379.322 304.264 378.764 304.165 378.248 303.948C377.732 303.73 377.271 303.401 376.899 302.983V307.5H374.719V294.752H376.794V295.973C377.154 295.537 377.615 295.196 378.137 294.979C378.689 294.749 379.283 294.636 379.881 294.647C380.732 294.63 381.573 294.834 382.322 295.24M381.625 301.518C382.122 300.927 382.394 300.18 382.394 299.408C382.394 298.636 382.122 297.889 381.625 297.298C381.368 297.032 381.059 296.824 380.716 296.685C380.374 296.547 380.006 296.483 379.637 296.496C379.141 296.489 378.653 296.615 378.224 296.862C377.803 297.097 377.458 297.448 377.23 297.874C376.989 298.349 376.864 298.875 376.864 299.408C376.864 299.941 376.989 300.467 377.23 300.943C377.462 301.369 377.806 301.725 378.224 301.972C378.658 302.205 379.144 302.325 379.637 302.321C380.006 302.334 380.374 302.269 380.716 302.131C381.059 301.993 381.368 301.784 381.625 301.518Z" fill="#1D1D1B"/>
<path d="M389.384 294.665H391.564V300.803L396.709 294.665H398.697V303.977H396.517V297.838L391.39 303.977H389.384V294.665Z" fill="#1D1D1B"/>
<path d="M404.243 294.665H406.423V298.449H411.114V294.665H413.294V303.977H411.114V300.297H406.423V303.977H404.243V294.665Z" fill="#1D1D1B"/>
<path d="M426.217 295.694C426.887 296.052 427.438 296.597 427.804 297.263C428.182 297.977 428.374 298.775 428.362 299.583C428.378 300.416 428.161 301.238 427.734 301.954C427.317 302.649 426.713 303.211 425.99 303.576C425.188 303.971 424.303 304.168 423.409 304.152C422.703 304.19 421.997 304.066 421.347 303.787C420.697 303.509 420.119 303.085 419.66 302.547C418.684 301.212 418.214 299.575 418.334 297.926C418.252 296.353 418.673 294.795 419.538 293.479C420.445 292.317 421.761 291.544 423.217 291.316L427.542 290.392L427.856 292.345L423.932 293.147C422.991 293.285 422.111 293.698 421.404 294.333C420.807 294.976 420.46 295.811 420.427 296.688C420.835 296.19 421.355 295.795 421.944 295.537C422.556 295.253 423.223 295.11 423.897 295.118C424.713 295.101 425.52 295.3 426.234 295.694M425.415 301.605C425.661 301.342 425.853 301.032 425.979 300.694C426.105 300.355 426.162 299.995 426.147 299.635C426.163 299.279 426.106 298.924 425.98 298.591C425.854 298.259 425.662 297.955 425.415 297.699C424.87 297.228 424.173 296.968 423.453 296.968C422.732 296.968 422.036 297.228 421.491 297.699C421.238 297.952 421.04 298.254 420.911 298.588C420.782 298.921 420.724 299.278 420.741 299.635C420.726 300.001 420.787 300.366 420.919 300.708C421.051 301.05 421.251 301.361 421.508 301.623C421.764 301.878 422.069 302.078 422.405 302.21C422.741 302.342 423.101 302.403 423.461 302.39C423.824 302.404 424.185 302.341 424.522 302.206C424.858 302.071 425.162 301.866 425.415 301.605Z" fill="#1D1D1B"/>
<path d="M441.616 294.752L437.256 304.814C436.972 305.654 436.458 306.397 435.773 306.959C435.15 307.376 434.413 307.589 433.663 307.57C433.194 307.572 432.729 307.496 432.286 307.343C431.876 307.209 431.497 306.996 431.169 306.715L432.041 305.111C432.261 305.311 432.515 305.471 432.791 305.582C433.061 305.7 433.352 305.759 433.646 305.756C433.989 305.765 434.326 305.661 434.605 305.46C434.907 305.187 435.14 304.846 435.285 304.466L435.442 304.099L431.379 294.752H433.646L436.576 301.64L439.453 294.752H441.616Z" fill="#1D1D1B"/>
<path d="M453.404 295.153C454.144 295.551 454.75 296.157 455.148 296.897C455.564 297.661 455.775 298.521 455.759 299.391C455.768 300.266 455.558 301.129 455.148 301.902C454.75 302.641 454.144 303.248 453.404 303.646C452.656 304.052 451.814 304.256 450.963 304.239C450.404 304.264 449.846 304.165 449.33 303.948C448.814 303.73 448.353 303.401 447.981 302.983V307.5H445.801V294.752H447.876V295.973C448.236 295.537 448.697 295.196 449.219 294.979C449.771 294.749 450.365 294.636 450.963 294.647C451.814 294.63 452.656 294.834 453.404 295.24M452.707 301.518C453.204 300.927 453.476 300.18 453.476 299.408C453.476 298.636 453.204 297.889 452.707 297.298C452.45 297.032 452.141 296.824 451.798 296.685C451.455 296.547 451.088 296.483 450.719 296.496C450.223 296.489 449.735 296.615 449.306 296.862C448.885 297.097 448.54 297.448 448.312 297.874C448.071 298.349 447.946 298.875 447.946 299.408C447.946 299.941 448.071 300.467 448.312 300.943C448.544 301.369 448.888 301.725 449.306 301.972C449.74 302.205 450.226 302.325 450.719 302.321C451.088 302.334 451.455 302.269 451.798 302.131C452.141 301.993 452.45 301.784 452.707 301.518Z" fill="#1D1D1B"/>
<path d="M467.565 296.513H462.594V303.977H460.415V294.665H467.565V296.513Z" fill="#1D1D1B"/>
<path d="M437.831 215.734H422.693V230.872H437.831V215.734Z" fill="#931F2B"/>
<path d="M363.121 207.224C362.152 206.701 361.343 205.923 360.784 204.974C360.217 203.995 359.928 202.88 359.947 201.748C359.927 200.62 360.223 199.508 360.802 198.539C361.356 197.587 362.166 196.808 363.139 196.289C364.17 195.747 365.321 195.471 366.487 195.487C367.424 195.47 368.356 195.642 369.225 195.993C370.027 196.344 370.742 196.868 371.318 197.528L369.853 198.905C369.446 198.443 368.943 198.075 368.381 197.825C367.818 197.575 367.207 197.45 366.592 197.458C365.806 197.447 365.031 197.64 364.342 198.016C363.688 198.368 363.149 198.901 362.79 199.551C362.424 200.228 362.232 200.986 362.232 201.757C362.232 202.527 362.424 203.285 362.79 203.963C363.149 204.613 363.688 205.145 364.342 205.497C365.033 205.868 365.808 206.054 366.592 206.038C367.208 206.05 367.819 205.926 368.383 205.676C368.946 205.426 369.448 205.055 369.853 204.591L371.318 205.986C370.743 206.65 370.02 207.17 369.207 207.503C368.339 207.86 367.408 208.038 366.47 208.026C365.304 208.043 364.153 207.767 363.121 207.224Z" fill="#1D1D1B"/>
<path d="M382.322 199.429C382.708 199.818 383.006 200.285 383.196 200.8C383.386 201.315 383.462 201.864 383.42 202.411V207.869H381.363V206.718C381.085 207.143 380.683 207.471 380.212 207.66C379.658 207.885 379.065 207.998 378.468 207.991C377.844 207.978 377.231 207.829 376.671 207.555C376.184 207.338 375.762 206.995 375.451 206.561C375.169 206.132 375.024 205.627 375.032 205.114C375.022 204.731 375.1 204.351 375.26 204.003C375.42 203.655 375.659 203.349 375.956 203.108C376.827 202.536 377.865 202.271 378.904 202.358H381.31V202.323C381.337 202.047 381.297 201.768 381.193 201.51C381.09 201.253 380.927 201.023 380.717 200.841C380.225 200.447 379.602 200.254 378.973 200.301C378.445 200.301 377.921 200.389 377.421 200.562C376.954 200.698 376.521 200.929 376.148 201.242L375.294 199.638C375.82 199.252 376.41 198.963 377.038 198.783C377.747 198.585 378.481 198.485 379.218 198.487C380.352 198.41 381.473 198.765 382.357 199.481M380.369 206.073C380.789 205.839 381.111 205.461 381.275 205.009V203.928H379.026C377.77 203.928 377.142 204.329 377.142 205.166C377.139 205.349 377.18 205.531 377.262 205.695C377.344 205.859 377.464 206.001 377.613 206.108C378.002 206.359 378.459 206.481 378.921 206.457C379.429 206.46 379.929 206.328 380.369 206.073Z" fill="#1D1D1B"/>
<path d="M397.18 198.557V207.869H395V200.405H391.512L391.425 202.254C391.382 203.29 391.266 204.321 391.076 205.34C390.956 206.057 390.662 206.733 390.221 207.311C390.023 207.55 389.771 207.739 389.487 207.863C389.202 207.987 388.892 208.043 388.582 208.026C388.175 208.018 387.771 207.96 387.379 207.852L387.484 206.021H387.902C388.101 206.025 388.297 205.978 388.471 205.883C388.646 205.788 388.792 205.649 388.896 205.48C389.117 205.087 389.259 204.654 389.315 204.207C389.315 203.719 389.437 203.004 389.489 202.097L389.646 198.504L397.18 198.557Z" fill="#1D1D1B"/>
<path d="M411.411 203.91H404.104C404.208 204.561 404.565 205.144 405.098 205.532C405.687 205.951 406.398 206.165 407.121 206.143C407.588 206.152 408.053 206.068 408.488 205.894C408.922 205.72 409.317 205.461 409.649 205.131L410.818 206.474C410.385 206.971 409.841 207.359 409.231 207.608C408.539 207.866 407.806 207.996 407.068 207.991C406.131 208.01 405.203 207.801 404.365 207.381C403.63 206.977 403.025 206.372 402.621 205.637C402.198 204.887 401.982 204.039 401.993 203.178C401.974 202.318 402.184 201.469 402.604 200.719C403.005 199.982 403.611 199.376 404.348 198.975C405.103 198.575 405.944 198.366 406.798 198.366C407.652 198.366 408.493 198.575 409.248 198.975C409.99 199.37 410.597 199.977 410.992 200.719C411.405 201.497 411.615 202.367 411.603 203.248C411.603 203.387 411.603 203.614 411.603 203.893M405.15 200.789C404.662 201.212 404.351 201.804 404.278 202.446H409.51C409.427 201.977 409.224 201.538 408.92 201.172C408.616 200.807 408.221 200.526 407.776 200.359C407.331 200.192 406.85 200.144 406.38 200.219C405.91 200.294 405.468 200.491 405.098 200.789" fill="#1D1D1B"/>
<path d="M422.013 207.869L419.624 204.625L417.218 207.869H414.811L418.438 203.126L414.968 198.539H417.392L419.677 201.591L421.961 198.539H424.315L420.828 203.091L424.472 207.869H422.013Z" fill="#1D1D1B"/>
<path d="M435.075 199.429C435.462 199.818 435.76 200.285 435.949 200.8C436.139 201.315 436.216 201.864 436.174 202.411V207.869H434.116V206.718C433.834 207.139 433.433 207.467 432.965 207.66C432.412 207.885 431.819 207.998 431.221 207.991C430.591 208.005 429.966 207.88 429.39 207.625C428.9 207.412 428.477 207.068 428.169 206.631C427.888 206.201 427.742 205.697 427.751 205.184C427.736 204.8 427.813 204.419 427.973 204.07C428.134 203.722 428.374 203.416 428.675 203.178C429.546 202.605 430.584 202.341 431.622 202.428H434.029V202.324C434.045 202.048 434 201.773 433.897 201.516C433.795 201.26 433.637 201.03 433.436 200.841C432.944 200.447 432.321 200.254 431.692 200.301C431.164 200.301 430.639 200.389 430.14 200.562C429.673 200.698 429.239 200.929 428.867 201.242L428.012 199.638C428.539 199.252 429.129 198.963 429.756 198.783C430.466 198.585 431.199 198.485 431.936 198.487C433.07 198.411 434.191 198.766 435.075 199.481M433.087 206.073C433.502 205.833 433.823 205.457 433.994 205.009V203.928H431.744C430.489 203.928 429.861 204.329 429.861 205.166C429.857 205.349 429.898 205.531 429.98 205.695C430.062 205.859 430.183 206.001 430.332 206.108C430.72 206.359 431.178 206.481 431.64 206.457C432.148 206.46 432.648 206.328 433.087 206.073Z" fill="#1D1D1B"/>
<path d="M449.08 199.045C449.822 199.44 450.429 200.047 450.824 200.789C451.224 201.559 451.433 202.414 451.433 203.283C451.433 204.151 451.224 205.006 450.824 205.776C450.421 206.513 449.816 207.118 449.08 207.52C448.334 207.918 447.501 208.122 446.656 208.113C446.097 208.139 445.539 208.039 445.023 207.822C444.507 207.605 444.046 207.275 443.674 206.858V211.374H441.494V198.679H443.569V199.899C443.912 199.454 444.371 199.111 444.894 198.905C445.447 198.678 446.04 198.565 446.638 198.574C447.484 198.557 448.32 198.761 449.062 199.167M448.365 205.445C448.872 204.859 449.15 204.11 449.15 203.335C449.15 202.56 448.872 201.811 448.365 201.225C448.111 200.96 447.805 200.751 447.465 200.613C447.126 200.474 446.761 200.41 446.394 200.423C445.9 200.409 445.412 200.53 444.982 200.771C444.559 201.013 444.214 201.37 443.987 201.8C443.734 202.271 443.608 202.8 443.621 203.335C443.612 203.869 443.738 204.397 443.987 204.87C444.22 205.291 444.564 205.641 444.982 205.881C445.411 206.128 445.899 206.254 446.394 206.247C446.76 206.256 447.124 206.189 447.463 206.051C447.802 205.913 448.109 205.707 448.365 205.445Z" fill="#1D1D1B"/>
<path d="M465.995 206.021V209.944H463.955V207.869H456.77V209.944H454.747V206.021H455.148C455.741 206.021 456.142 205.637 456.352 204.87C456.609 203.848 456.755 202.801 456.787 201.748L456.91 198.557H464.583V206.021H465.995ZM458.549 204.521C458.464 205.077 458.222 205.598 457.851 206.021H462.438V200.405H458.863V201.905C458.83 202.781 458.742 203.655 458.601 204.521" fill="#1D1D1B"/>
<path d="M992.401 243.306H977.264V258.443H992.401V243.306Z" fill="#931F2B"/>
<path d="M801.336 222.222V234.429H799.121V224.14H792.79V234.429H790.558V222.222H801.336Z" fill="#1D1D1B"/>
<path d="M815.828 230.471H808.521C808.638 231.121 809 231.701 809.532 232.092C810.115 232.511 810.82 232.726 811.538 232.703C812.005 232.712 812.47 232.628 812.905 232.454C813.339 232.28 813.734 232.021 814.066 231.691L815.235 233.034C814.806 233.535 814.261 233.924 813.648 234.168C812.957 234.428 812.224 234.558 811.485 234.551C810.549 234.566 809.622 234.357 808.782 233.941C808.049 233.535 807.444 232.931 807.038 232.197C806.622 231.444 806.403 230.598 806.403 229.738C806.403 228.878 806.622 228.032 807.038 227.279C807.443 226.544 808.048 225.94 808.782 225.535C809.542 225.139 810.385 224.933 811.241 224.933C812.097 224.933 812.941 225.139 813.7 225.535C814.442 225.93 815.049 226.537 815.444 227.279C815.851 228.059 816.055 228.928 816.037 229.808C816.051 230.023 816.051 230.238 816.037 230.453M809.602 227.349C809.109 227.771 808.792 228.362 808.712 229.006H813.944C813.882 228.369 813.576 227.782 813.09 227.366C812.606 226.948 811.985 226.725 811.346 226.739C810.71 226.728 810.092 226.944 809.602 227.349Z" fill="#1D1D1B"/>
<path d="M827.896 226.965H824.635V234.429H822.455V226.965H819.176V225.117H827.896V226.965Z" fill="#1D1D1B"/>
<path d="M839.703 225.605C840.45 225.992 841.059 226.602 841.447 227.349C841.847 228.119 842.056 228.974 842.056 229.843C842.056 230.711 841.847 231.566 841.447 232.336C841.052 233.078 840.445 233.686 839.703 234.08C838.951 234.478 838.112 234.682 837.261 234.673C836.702 234.699 836.144 234.599 835.628 234.382C835.113 234.165 834.652 233.835 834.279 233.418V237.934H832.099V225.239H834.174V226.459C834.528 226.017 834.991 225.674 835.517 225.465C836.07 225.237 836.663 225.124 837.261 225.134C838.113 225.117 838.954 225.321 839.703 225.727M839.005 232.005C839.502 231.414 839.774 230.667 839.774 229.895C839.774 229.123 839.502 228.376 839.005 227.785C838.748 227.519 838.439 227.31 838.096 227.172C837.754 227.034 837.386 226.969 837.017 226.983C836.523 226.969 836.035 227.09 835.604 227.331C835.182 227.573 834.837 227.93 834.61 228.36C834.357 228.831 834.23 229.36 834.244 229.895C834.235 230.429 834.361 230.957 834.61 231.43C834.843 231.851 835.187 232.201 835.604 232.441C836.034 232.688 836.522 232.814 837.017 232.807C837.385 232.816 837.752 232.75 838.094 232.612C838.436 232.474 838.746 232.267 839.005 232.005Z" fill="#1D1D1B"/>
<path d="M848.37 233.941C847.637 233.534 847.032 232.93 846.626 232.197C846.197 231.449 845.975 230.6 845.98 229.738C845.969 228.875 846.192 228.025 846.626 227.279C847.025 226.541 847.631 225.935 848.37 225.535C849.161 225.134 850.037 224.925 850.924 224.925C851.812 224.925 852.687 225.134 853.479 225.535C854.219 225.932 854.826 226.539 855.223 227.279C855.65 228.027 855.867 228.877 855.851 229.738C855.863 230.599 855.646 231.447 855.223 232.197C854.819 232.932 854.214 233.536 853.479 233.941C852.687 234.342 851.812 234.552 850.924 234.552C850.037 234.552 849.161 234.342 848.37 233.941ZM852.904 231.883C853.411 231.297 853.69 230.548 853.69 229.773C853.69 228.998 853.411 228.249 852.904 227.663C852.647 227.397 852.338 227.188 851.995 227.05C851.653 226.912 851.285 226.847 850.916 226.861C850.549 226.848 850.184 226.913 849.844 227.051C849.505 227.189 849.198 227.398 848.945 227.663C848.438 228.249 848.159 228.998 848.159 229.773C848.159 230.548 848.438 231.297 848.945 231.883C849.201 232.145 849.508 232.351 849.847 232.489C850.186 232.627 850.55 232.694 850.916 232.685C851.284 232.694 851.651 232.628 851.993 232.49C852.335 232.352 852.645 232.145 852.904 231.883Z" fill="#1D1D1B"/>
<path d="M869.575 225.117V234.429H867.413V226.965H862.826V234.429H860.646V225.117H869.575Z" fill="#1D1D1B"/>
<path d="M881.766 225.989C882.149 226.379 882.444 226.848 882.631 227.362C882.817 227.877 882.891 228.425 882.847 228.971V234.429H880.789V233.296C880.512 233.71 880.117 234.032 879.656 234.22C879.102 234.443 878.509 234.556 877.912 234.551C877.311 234.553 876.717 234.428 876.168 234.185C875.682 233.973 875.265 233.628 874.965 233.191C874.68 232.768 874.529 232.27 874.529 231.761C874.516 231.374 874.595 230.989 874.759 230.637C874.922 230.286 875.166 229.978 875.47 229.738C876.336 229.168 877.367 228.904 878.4 228.988H880.667V228.849C880.687 228.572 880.645 228.294 880.546 228.035C880.446 227.776 880.291 227.542 880.092 227.349C879.595 226.966 878.974 226.779 878.348 226.826C877.826 226.82 877.307 226.903 876.813 227.07C876.342 227.207 875.903 227.439 875.523 227.75L874.668 226.163C875.188 225.767 875.781 225.477 876.412 225.308C877.12 225.103 877.855 225.003 878.592 225.012C879.73 224.929 880.857 225.278 881.748 225.989M879.76 232.581C880.171 232.34 880.485 231.964 880.65 231.517V230.436H878.4C877.145 230.436 876.517 230.837 876.517 231.674C876.513 231.857 876.554 232.039 876.636 232.203C876.718 232.367 876.839 232.508 876.988 232.616C877.376 232.867 877.834 232.989 878.296 232.964C878.81 232.979 879.319 232.846 879.76 232.581Z" fill="#1D1D1B"/>
<path d="M896.642 231.813C896.659 232.189 896.582 232.563 896.418 232.901C896.253 233.239 896.007 233.531 895.7 233.749C894.863 234.259 893.888 234.496 892.91 234.429H888.167V225.117H892.718C893.65 225.062 894.577 225.28 895.386 225.744C895.685 225.925 895.931 226.182 896.1 226.488C896.268 226.794 896.353 227.139 896.346 227.488C896.356 227.929 896.228 228.362 895.979 228.727C895.704 229.09 895.337 229.372 894.916 229.546C895.426 229.646 895.884 229.927 896.204 230.337C896.524 230.747 896.686 231.259 896.659 231.778M890.259 228.971H892.544C893.677 228.971 894.288 228.57 894.288 227.802C894.288 227.035 893.73 226.669 892.544 226.669H890.259V228.971ZM894.549 231.639C894.562 231.462 894.53 231.285 894.457 231.124C894.384 230.962 894.272 230.822 894.131 230.715C893.736 230.482 893.279 230.378 892.823 230.418H890.259V232.807H892.753C893.956 232.807 894.497 232.406 894.497 231.639" fill="#1D1D1B"/>
<path d="M910.018 225.117V234.429H907.838V226.965H904.35L904.263 228.814C904.234 229.85 904.123 230.882 903.931 231.9C903.811 232.617 903.518 233.294 903.077 233.871C902.867 234.125 902.598 234.324 902.295 234.452C901.991 234.579 901.661 234.631 901.333 234.604C900.926 234.587 900.522 234.522 900.129 234.412L900.234 232.668H900.653C900.852 232.678 901.051 232.633 901.226 232.538C901.402 232.443 901.547 232.3 901.647 232.127C901.885 231.741 902.034 231.306 902.083 230.854C902.083 230.366 902.205 229.651 902.24 228.744L902.397 225.151L910.018 225.117Z" fill="#1D1D1B"/>
<path d="M917.168 233.941C916.435 233.534 915.831 232.93 915.424 232.197C914.996 231.449 914.773 230.6 914.779 229.738C914.768 228.875 914.991 228.025 915.424 227.279C915.824 226.541 916.43 225.935 917.168 225.535C917.96 225.134 918.835 224.925 919.723 224.925C920.611 224.925 921.486 225.134 922.278 225.535C923.018 225.932 923.624 226.539 924.022 227.279C924.449 228.027 924.665 228.877 924.649 229.738C924.661 230.599 924.445 231.447 924.022 232.197C923.617 232.932 923.012 233.536 922.278 233.941C921.486 234.342 920.611 234.552 919.723 234.552C918.835 234.552 917.96 234.342 917.168 233.941ZM921.702 231.883C922.209 231.297 922.488 230.548 922.488 229.773C922.488 228.998 922.209 228.249 921.702 227.663C921.446 227.397 921.136 227.188 920.793 227.05C920.451 226.912 920.083 226.847 919.714 226.861C919.347 226.847 918.982 226.911 918.642 227.049C918.302 227.188 917.996 227.397 917.743 227.663C917.237 228.249 916.958 228.998 916.958 229.773C916.958 230.548 917.237 231.297 917.743 231.883C917.998 232.147 918.305 232.354 918.644 232.492C918.983 232.63 919.348 232.696 919.714 232.685C920.083 232.694 920.449 232.628 920.791 232.49C921.133 232.352 921.443 232.145 921.702 231.883Z" fill="#1D1D1B"/>
<path d="M937.92 231.813C937.938 232.189 937.86 232.563 937.696 232.901C937.531 233.239 937.285 233.531 936.978 233.749C936.141 234.259 935.166 234.496 934.188 234.429H929.497V225.117H934.049C934.98 225.062 935.908 225.28 936.717 225.744C937.016 225.925 937.262 226.182 937.43 226.488C937.599 226.794 937.684 227.139 937.676 227.488C937.686 227.929 937.558 228.362 937.31 228.727C937.034 229.09 936.667 229.372 936.246 229.546C936.757 229.646 937.214 229.927 937.534 230.337C937.855 230.747 938.016 231.259 937.99 231.778M931.59 228.971H933.874C935.008 228.971 935.618 228.57 935.618 227.802C935.618 227.035 935.06 226.669 933.874 226.669H931.59V228.971ZM935.88 231.639C935.893 231.462 935.861 231.285 935.788 231.124C935.715 230.962 935.603 230.822 935.461 230.715C935.067 230.482 934.61 230.378 934.153 230.418H931.59V232.807H934.084C935.287 232.807 935.828 232.406 935.828 231.639" fill="#1D1D1B"/>
<path d="M944.495 233.941C943.765 233.53 943.162 232.927 942.751 232.197C942.323 231.449 942.1 230.6 942.106 229.738C942.095 228.875 942.318 228.025 942.751 227.279C943.155 226.544 943.76 225.939 944.495 225.535C945.294 225.11 946.189 224.9 947.094 224.925C947.936 224.901 948.77 225.093 949.518 225.483C950.197 225.833 950.742 226.397 951.07 227.087L949.326 228.064C949.092 227.652 948.747 227.314 948.332 227.087C947.792 226.818 947.182 226.718 946.584 226.802C945.986 226.886 945.428 227.15 944.983 227.558C944.465 228.142 944.178 228.896 944.178 229.677C944.178 230.458 944.465 231.212 944.983 231.796C945.248 232.06 945.564 232.267 945.912 232.405C946.26 232.543 946.632 232.609 947.006 232.598C947.469 232.598 947.924 232.485 948.332 232.267C948.743 232.042 949.086 231.711 949.326 231.308L951.07 232.284C950.727 232.97 950.178 233.531 949.5 233.889C948.76 234.282 947.932 234.481 947.094 234.464C946.191 234.475 945.299 234.266 944.495 233.854" fill="#1D1D1B"/>
<path d="M959.476 230.697H957.784V234.429H955.604V225.117H957.784V228.884H959.528L962.283 225.117H964.62L961.237 229.599L964.847 234.429H962.283L959.476 230.697Z" fill="#1D1D1B"/>
<path d="M981.17 229.285H978.903V234.429H976.671V222.222H978.903V227.331H981.24L984.745 222.222H987.152L982.984 228.134L987.309 234.429H984.745L981.17 229.285Z" fill="#1D1D1B"/>
<path d="M997.964 225.989C998.347 226.379 998.642 226.848 998.829 227.362C999.015 227.877 999.089 228.425 999.045 228.971V234.429H996.987V233.296C996.71 233.71 996.315 234.032 995.853 234.22C995.299 234.441 994.707 234.554 994.11 234.551C993.509 234.553 992.915 234.428 992.366 234.185C991.88 233.973 991.463 233.628 991.162 233.191C990.878 232.768 990.726 232.27 990.726 231.761C990.714 231.374 990.793 230.989 990.956 230.637C991.12 230.286 991.364 229.978 991.668 229.738C992.534 229.168 993.565 228.904 994.598 228.988H997.005V228.849C997.024 228.572 996.982 228.294 996.883 228.035C996.784 227.776 996.629 227.542 996.429 227.349C995.932 226.966 995.311 226.779 994.685 226.826C994.163 226.82 993.645 226.903 993.15 227.07C992.679 227.207 992.24 227.439 991.86 227.75L991.005 226.163C991.526 225.767 992.118 225.477 992.749 225.308C993.457 225.103 994.192 225.003 994.929 225.012C996.067 224.929 997.194 225.278 998.086 225.989M996.098 232.581C996.508 232.34 996.823 231.964 996.987 231.517V230.436H994.737C993.482 230.436 992.854 230.837 992.854 231.674C992.85 231.857 992.891 232.039 992.973 232.203C993.055 232.367 993.176 232.508 993.325 232.616C993.713 232.867 994.171 232.989 994.633 232.964C995.147 232.977 995.655 232.844 996.098 232.581Z" fill="#1D1D1B"/>
<path d="M1013.52 234.429V228.256L1010.38 233.453H1009.44L1006.35 228.238V234.429H1004.36V225.117H1006.65L1009.96 230.941L1013.43 225.117H1015.47L1015.49 234.429H1013.52Z" fill="#1D1D1B"/>
<path d="M1028.9 225.117V234.429H1026.72V230.819C1025.84 231.24 1024.89 231.46 1023.91 231.465C1022.92 231.528 1021.95 231.231 1021.16 230.627C1020.82 230.302 1020.56 229.907 1020.4 229.47C1020.23 229.033 1020.16 228.565 1020.2 228.099V225.117H1022.38V227.959C1022.36 228.205 1022.4 228.452 1022.49 228.682C1022.58 228.911 1022.72 229.117 1022.9 229.285C1023.33 229.594 1023.86 229.748 1024.38 229.721C1025.19 229.724 1025.99 229.545 1026.72 229.197V225.117H1028.9Z" fill="#1D1D1B"/>
<path d="M1041.11 225.989C1041.49 226.379 1041.79 226.848 1041.97 227.362C1042.16 227.877 1042.23 228.425 1042.19 228.971V234.429H1040.13V233.296C1039.86 233.71 1039.46 234.032 1039 234.22C1038.44 234.441 1037.85 234.554 1037.26 234.551C1036.65 234.553 1036.06 234.428 1035.51 234.185C1035.03 233.973 1034.61 233.628 1034.31 233.191C1034.02 232.768 1033.87 232.27 1033.87 231.761C1033.86 231.374 1033.94 230.989 1034.1 230.637C1034.27 230.286 1034.51 229.978 1034.81 229.738C1035.68 229.168 1036.71 228.904 1037.74 228.988H1040.15V228.849C1040.17 228.572 1040.13 228.294 1040.03 228.035C1039.93 227.776 1039.77 227.542 1039.57 227.349C1039.08 226.966 1038.46 226.779 1037.83 226.826C1037.31 226.82 1036.79 226.903 1036.3 227.07C1035.82 227.207 1035.39 227.439 1035.01 227.75L1034.15 226.163C1034.67 225.767 1035.26 225.477 1035.89 225.308C1036.6 225.103 1037.34 225.003 1038.07 225.012C1039.21 224.929 1040.34 225.278 1041.23 225.989M1039.24 232.581C1039.65 232.34 1039.97 231.964 1040.13 231.517V230.436H1037.88C1036.63 230.436 1036 230.837 1036 231.674C1036 231.857 1036.04 232.039 1036.12 232.203C1036.2 232.367 1036.32 232.508 1036.47 232.616C1036.86 232.867 1037.32 232.989 1037.78 232.964C1038.29 232.977 1038.8 232.844 1039.24 232.581Z" fill="#1D1D1B"/>
<path d="M1054.89 226.965H1051.63V234.429H1049.45V226.965H1046.17V225.117H1054.89V226.965Z" fill="#1D1D1B"/>
<path d="M1060.29 233.941C1059.56 233.53 1058.96 232.927 1058.55 232.197C1058.12 231.449 1057.9 230.6 1057.9 229.738C1057.89 228.875 1058.11 228.025 1058.55 227.279C1058.95 226.544 1059.56 225.939 1060.29 225.535C1061.09 225.11 1061.99 224.9 1062.89 224.925C1063.73 224.901 1064.57 225.093 1065.31 225.483C1065.99 225.841 1066.53 226.403 1066.87 227.087L1065.12 228.064C1064.89 227.652 1064.54 227.314 1064.13 227.087C1063.59 226.818 1062.98 226.718 1062.38 226.802C1061.78 226.886 1061.23 227.15 1060.78 227.558C1060.51 227.84 1060.3 228.174 1060.16 228.54C1060.02 228.906 1059.96 229.295 1059.98 229.686C1059.96 230.074 1060.02 230.462 1060.16 230.825C1060.3 231.188 1060.51 231.519 1060.78 231.796C1061.05 232.06 1061.36 232.267 1061.71 232.405C1062.06 232.543 1062.43 232.609 1062.8 232.598C1063.27 232.598 1063.72 232.485 1064.13 232.267C1064.54 232.042 1064.88 231.711 1065.12 231.308L1066.87 232.284C1066.52 232.966 1065.97 233.526 1065.3 233.889C1064.56 234.282 1063.73 234.481 1062.89 234.464C1061.99 234.475 1061.1 234.266 1060.29 233.854" fill="#1D1D1B"/>
<path d="M1075.31 230.697H1073.62V234.429H1071.44V225.117H1073.62V228.884H1075.36L1078.11 225.117H1080.45L1077.07 229.599L1080.68 234.429H1078.11L1075.31 230.697Z" fill="#1D1D1B"/>
<path d="M1084.83 225.117H1087.01V231.255L1092.15 225.117H1094.14V234.429H1091.96V228.291L1086.83 234.429H1084.83V225.117Z" fill="#1D1D1B"/>
<path d="M1099.69 225.117H1101.87V231.255L1107.01 225.117H1109V234.429H1106.82V228.291L1101.69 234.429H1099.69V225.117ZM1102.06 223.373C1101.8 223.131 1101.6 222.836 1101.46 222.507C1101.33 222.179 1101.27 221.826 1101.29 221.472H1102.74C1102.74 221.656 1102.77 221.839 1102.84 222.01C1102.91 222.181 1103.01 222.336 1103.14 222.466C1103.28 222.594 1103.45 222.693 1103.63 222.756C1103.81 222.819 1104 222.845 1104.19 222.832C1104.58 222.855 1104.96 222.723 1105.25 222.466C1105.38 222.34 1105.48 222.191 1105.54 222.026C1105.61 221.861 1105.64 221.684 1105.63 221.507H1107.12C1107.14 221.861 1107.08 222.215 1106.95 222.544C1106.82 222.873 1106.61 223.168 1106.35 223.408C1105.73 223.887 1104.96 224.122 1104.19 224.07C1103.41 224.123 1102.65 223.887 1102.04 223.408" fill="#1D1D1B"/>
<path d="M480.522 233.767H465.385V248.904H480.522V233.767Z" fill="#931F2B"/>
<path d="M450.404 254.345V266.552H448.137V261.321H441.824V266.552H439.557V254.345H441.824V259.385H448.137V254.345H450.404Z" fill="#1D1D1B"/>
<path d="M457.781 266.064C457.047 265.659 456.443 265.054 456.038 264.32C455.614 263.567 455.392 262.717 455.392 261.853C455.392 260.988 455.614 260.139 456.038 259.385C456.448 258.655 457.051 258.051 457.781 257.641C458.573 257.24 459.449 257.03 460.336 257.03C461.224 257.03 462.099 257.24 462.891 257.641C463.624 258.049 464.228 258.653 464.635 259.385C465.041 260.144 465.254 260.992 465.254 261.853C465.254 262.714 465.041 263.561 464.635 264.32C464.233 265.057 463.628 265.662 462.891 266.064C462.099 266.466 461.224 266.675 460.336 266.675C459.449 266.675 458.573 266.466 457.781 266.064ZM462.316 264.006C462.822 263.42 463.101 262.671 463.101 261.896C463.101 261.121 462.822 260.372 462.316 259.786C462.056 259.524 461.746 259.317 461.405 259.179C461.063 259.041 460.696 258.975 460.328 258.984C459.962 258.975 459.598 259.042 459.259 259.18C458.92 259.318 458.613 259.524 458.357 259.786C457.85 260.372 457.571 261.121 457.571 261.896C457.571 262.671 457.85 263.42 458.357 264.006C458.61 264.272 458.917 264.48 459.256 264.618C459.596 264.757 459.961 264.821 460.328 264.809C460.697 264.822 461.064 264.757 461.407 264.619C461.749 264.481 462.059 264.272 462.316 264.006Z" fill="#1D1D1B"/>
<path d="M478.552 263.937C478.569 264.312 478.492 264.686 478.327 265.024C478.163 265.363 477.916 265.654 477.61 265.872C476.772 266.38 475.797 266.617 474.82 266.552H470.076V257.24H474.628C475.559 257.189 476.485 257.407 477.296 257.868C477.593 258.051 477.837 258.308 478.005 258.614C478.173 258.919 478.259 259.263 478.255 259.612C478.262 260.055 478.127 260.488 477.872 260.85C477.608 261.217 477.245 261.502 476.825 261.669C477.336 261.77 477.793 262.05 478.114 262.46C478.434 262.87 478.596 263.382 478.569 263.902M472.169 261.094H474.453C475.57 261.094 476.197 260.71 476.197 259.926C476.197 259.141 475.622 258.792 474.453 258.792H472.169V261.094ZM476.459 263.762C476.472 263.588 476.44 263.413 476.367 263.255C476.294 263.096 476.181 262.959 476.04 262.855C475.648 262.617 475.191 262.507 474.732 262.541H472.169V264.931H474.663C475.849 264.931 476.407 264.547 476.407 263.762" fill="#1D1D1B"/>
<path d="M490.724 261.111C491.06 261.38 491.33 261.723 491.511 262.114C491.693 262.504 491.781 262.931 491.771 263.361C491.795 263.811 491.713 264.26 491.532 264.672C491.35 265.084 491.073 265.448 490.724 265.733C489.873 266.339 488.837 266.629 487.794 266.552H483.557V257.24H485.737V260.292H488.108C489.076 260.231 490.034 260.515 490.811 261.094M489.067 264.582C489.243 264.433 489.38 264.245 489.468 264.033C489.556 263.82 489.592 263.59 489.573 263.361C489.593 263.144 489.558 262.925 489.473 262.724C489.388 262.524 489.255 262.347 489.085 262.21C488.641 261.934 488.124 261.8 487.603 261.826H485.754V264.983H487.603C488.124 265.034 488.645 264.891 489.067 264.582ZM492.991 257.257H495.171V266.57H492.991V257.257Z" fill="#1D1D1B"/>
<path d="M500.595 257.24H502.775V263.361L507.919 257.223H509.907V266.535H507.727V260.396L502.6 266.535H500.595V257.24ZM502.966 255.496C502.711 255.248 502.51 254.949 502.378 254.619C502.246 254.288 502.185 253.933 502.199 253.578H503.647C503.646 253.949 503.79 254.305 504.048 254.572C504.188 254.7 504.354 254.799 504.533 254.862C504.713 254.925 504.904 254.951 505.094 254.938C505.483 254.96 505.865 254.829 506.158 254.572C506.291 254.444 506.396 254.289 506.465 254.118C506.534 253.946 506.566 253.762 506.559 253.578H508.041C508.064 253.934 508.007 254.292 507.874 254.623C507.741 254.955 507.536 255.253 507.274 255.496C506.657 255.969 505.887 256.198 505.111 256.141C504.341 256.199 503.577 255.969 502.966 255.496Z" fill="#1D1D1B"/>
<path d="M533.625 254.345L528.393 264.198C527.983 264.988 527.384 265.665 526.649 266.169C526.034 266.592 525.304 266.817 524.557 266.814C523.955 266.807 523.362 266.677 522.813 266.43L523.371 264.686C523.752 264.824 524.152 264.9 524.557 264.913C524.921 264.893 525.274 264.777 525.58 264.578C525.885 264.38 526.134 264.104 526.301 263.78L526.493 263.483L521.627 254.38H524.051L527.661 261.547L531.376 254.38L533.625 254.345Z" fill="#1D1D1B"/>
<path d="M544.804 257.728C545.538 258.133 546.142 258.738 546.548 259.472C546.962 260.237 547.172 261.096 547.158 261.966C547.168 262.841 546.958 263.704 546.548 264.477C546.147 265.215 545.541 265.821 544.804 266.221C544.056 266.629 543.214 266.834 542.362 266.814C541.803 266.838 541.246 266.738 540.73 266.521C540.215 266.304 539.753 265.975 539.38 265.558V270.075H537.2V257.379H539.275V258.6C539.639 258.168 540.099 257.828 540.618 257.606C541.173 257.386 541.765 257.274 542.362 257.275C543.213 257.264 544.053 257.468 544.804 257.868M544.106 264.146C544.603 263.555 544.876 262.808 544.876 262.036C544.876 261.264 544.603 260.516 544.106 259.926C543.849 259.666 543.542 259.46 543.203 259.322C542.864 259.185 542.501 259.117 542.136 259.123C541.64 259.112 541.151 259.239 540.723 259.49C540.297 259.724 539.946 260.075 539.711 260.501C539.467 260.975 539.348 261.503 539.363 262.036C539.344 262.569 539.464 263.098 539.711 263.57C539.945 264.001 540.296 264.358 540.723 264.599C541.155 264.837 541.642 264.957 542.136 264.948C542.502 264.959 542.866 264.893 543.205 264.755C543.545 264.617 543.852 264.409 544.106 264.146Z" fill="#1D1D1B"/>
<path d="M560.552 262.594H553.244C553.357 263.25 553.72 263.838 554.256 264.233C554.841 264.645 555.546 264.854 556.261 264.826C556.73 264.843 557.197 264.762 557.633 264.587C558.068 264.413 558.462 264.15 558.79 263.814L559.959 265.157C559.539 265.668 558.991 266.06 558.372 266.291C557.586 266.578 556.751 266.706 555.916 266.667C555.081 266.628 554.261 266.423 553.506 266.064C552.771 265.66 552.167 265.055 551.762 264.32C551.331 263.566 551.109 262.712 551.117 261.844C551.103 260.988 551.32 260.145 551.745 259.402C552.151 258.669 552.755 258.064 553.489 257.658C554.249 257.249 555.101 257.039 555.965 257.048C556.818 257.036 557.659 257.247 558.406 257.658C559.148 258.053 559.756 258.66 560.15 259.402C560.56 260.175 560.765 261.039 560.743 261.914C560.758 262.128 560.758 262.344 560.743 262.559M554.308 259.472C553.815 259.886 553.497 260.472 553.419 261.111H558.651C558.585 260.476 558.279 259.89 557.796 259.472C557.3 259.079 556.685 258.865 556.052 258.865C555.419 258.865 554.804 259.079 554.308 259.472Z" fill="#1D1D1B"/>
<path d="M565.591 257.24H567.771V261.024H572.462V257.24H574.642V266.552H572.462V262.873H567.771V266.552H565.591V257.24Z" fill="#1D1D1B"/>
<path d="M587.338 259.088H582.385V266.552H580.188V257.24H587.338V259.088Z" fill="#1D1D1B"/>
<path d="M592.745 266.064C592.011 265.659 591.406 265.054 591.001 264.32C590.578 263.567 590.355 262.717 590.355 261.853C590.355 260.988 590.578 260.139 591.001 259.385C591.411 258.655 592.015 258.051 592.745 257.641C593.537 257.24 594.412 257.03 595.3 257.03C596.187 257.03 597.063 257.24 597.855 257.641C598.587 258.049 599.191 258.653 599.598 259.385C600.005 260.144 600.217 260.992 600.217 261.853C600.217 262.714 600.005 263.561 599.598 264.32C599.196 265.057 598.591 265.662 597.855 266.064C597.063 266.466 596.187 266.675 595.3 266.675C594.412 266.675 593.537 266.466 592.745 266.064ZM597.279 264.006C597.786 263.42 598.065 262.671 598.065 261.896C598.065 261.121 597.786 260.372 597.279 259.786C597.02 259.524 596.71 259.317 596.368 259.179C596.026 259.041 595.659 258.975 595.291 258.984C594.925 258.975 594.561 259.042 594.222 259.18C593.883 259.318 593.576 259.524 593.32 259.786C592.813 260.372 592.535 261.121 592.535 261.896C592.535 262.671 592.813 263.42 593.32 264.006C593.574 264.272 593.88 264.48 594.22 264.618C594.559 264.757 594.924 264.821 595.291 264.809C595.66 264.822 596.028 264.757 596.37 264.619C596.713 264.481 597.022 264.272 597.279 264.006Z" fill="#1D1D1B"/>
<path d="M605.022 257.24H607.202V263.361L612.346 257.223H614.334V266.535H612.102V260.396L606.975 266.535H604.969L605.022 257.24ZM607.393 255.496C607.138 255.248 606.937 254.949 606.805 254.619C606.673 254.288 606.612 253.933 606.626 253.578H608.073C608.073 253.949 608.217 254.305 608.475 254.572C608.615 254.7 608.781 254.799 608.96 254.862C609.14 254.925 609.331 254.951 609.521 254.938C609.91 254.96 610.292 254.829 610.585 254.572C610.718 254.444 610.823 254.289 610.892 254.118C610.961 253.946 610.993 253.762 610.986 253.578H612.468C612.491 253.934 612.434 254.292 612.301 254.623C612.168 254.955 611.963 255.253 611.701 255.496C611.083 255.969 610.314 256.198 609.538 256.141C608.768 256.199 608.004 255.969 607.393 255.496Z" fill="#1D1D1B"/>
<path d="M427.124 357.359H411.986V372.496H427.124V357.359Z" fill="#931F2B"/>
<path d="M405.812 350.383C404.831 349.871 404.014 349.091 403.458 348.134C402.882 347.163 402.586 346.053 402.603 344.925C402.586 343.791 402.881 342.675 403.458 341.698C404.014 340.741 404.831 339.961 405.812 339.449C406.849 338.903 408.006 338.627 409.178 338.647C410.349 338.627 411.507 338.903 412.544 339.449C413.518 339.971 414.332 340.749 414.898 341.698C415.471 342.676 415.767 343.792 415.753 344.925C415.761 346.057 415.466 347.171 414.898 348.151C414.326 349.092 413.513 349.862 412.544 350.383C411.509 350.935 410.351 351.217 409.178 351.203C408.005 351.217 406.847 350.935 405.812 350.383ZM411.375 348.639C412.017 348.277 412.548 347.746 412.91 347.105C413.283 346.433 413.476 345.676 413.468 344.907C413.476 344.133 413.283 343.37 412.91 342.692C412.542 342.055 412.013 341.526 411.375 341.158C410.701 340.792 409.945 340.606 409.178 340.617C408.411 340.601 407.653 340.787 406.981 341.158C406.335 341.516 405.804 342.047 405.446 342.692C405.064 343.367 404.871 344.132 404.888 344.907C404.872 345.677 405.065 346.436 405.446 347.105C405.798 347.754 406.331 348.287 406.981 348.639C407.651 349.015 408.409 349.208 409.178 349.197C409.946 349.204 410.703 349.011 411.375 348.639Z" fill="#1D1D1B"/>
<path d="M429.791 351.028V344.855L426.652 350.052H425.711L422.624 344.837V351.028H420.636V341.716H422.92L426.234 347.541L429.704 341.716H431.745L431.762 351.028H429.791Z" fill="#1D1D1B"/>
<path d="M438.947 350.558C438.213 350.152 437.609 349.547 437.203 348.814C436.78 348.063 436.557 347.216 436.557 346.355C436.557 345.493 436.78 344.646 437.203 343.896C437.605 343.159 438.21 342.554 438.947 342.152C439.753 341.73 440.653 341.52 441.563 341.542C442.399 341.517 443.228 341.71 443.969 342.1C444.651 342.452 445.201 343.015 445.539 343.704L443.795 344.681C443.545 344.276 443.197 343.94 442.783 343.704C442.38 343.494 441.931 343.387 441.475 343.39C441.103 343.377 440.731 343.44 440.383 343.575C440.036 343.71 439.719 343.914 439.452 344.175C438.941 344.762 438.659 345.515 438.659 346.294C438.659 347.073 438.941 347.825 439.452 348.413C439.719 348.68 440.038 348.889 440.389 349.027C440.74 349.165 441.116 349.229 441.493 349.215C441.95 349.222 442.402 349.107 442.801 348.884C443.214 348.655 443.562 348.325 443.812 347.924L445.556 348.901C445.206 349.587 444.652 350.148 443.969 350.505C443.236 350.899 442.413 351.097 441.58 351.081C440.677 351.094 439.784 350.885 438.982 350.471" fill="#1D1D1B"/>
<path d="M453.927 347.296H452.236V351.028H450.056V341.716H452.236V345.483H453.98L456.735 341.716H459.072L455.689 346.198L459.299 351.028H456.735L453.927 347.296Z" fill="#1D1D1B"/>
<path d="M542.624 347.82H527.486V362.957H542.624V347.82Z" fill="#931F2B"/>
<path d="M527.312 327.625H523.266V337.914H521.017V327.625H516.988V325.707H527.312V327.625Z" fill="#1D1D1B"/>
<path d="M532.282 337.426C531.549 337.019 530.945 336.415 530.538 335.682C530.115 334.931 529.893 334.084 529.893 333.223C529.893 332.361 530.115 331.514 530.538 330.764C530.944 330.03 531.548 329.425 532.282 329.02C533.074 328.619 533.949 328.409 534.837 328.409C535.725 328.409 536.6 328.619 537.392 329.02C538.121 329.432 538.724 330.035 539.136 330.764C539.548 331.518 539.764 332.364 539.764 333.223C539.764 334.082 539.548 334.928 539.136 335.682C538.722 336.409 538.119 337.012 537.392 337.426C536.6 337.827 535.725 338.036 534.837 338.036C533.949 338.036 533.074 337.827 532.282 337.426ZM536.816 335.368C537.323 334.782 537.602 334.033 537.602 333.258C537.602 332.483 537.323 331.734 536.816 331.148C536.56 330.882 536.25 330.673 535.908 330.535C535.565 330.397 535.197 330.332 534.828 330.345C534.462 330.331 534.096 330.396 533.756 330.534C533.417 330.672 533.11 330.882 532.858 331.148C532.351 331.734 532.072 332.483 532.072 333.258C532.072 334.033 532.351 334.782 532.858 335.368C533.11 335.634 533.417 335.843 533.756 335.982C534.096 336.12 534.462 336.184 534.828 336.17C535.197 336.183 535.565 336.119 535.908 335.981C536.25 335.842 536.56 335.634 536.816 335.368Z" fill="#1D1D1B"/>
<path d="M553.715 337.914V331.74L550.576 336.937H549.634L546.547 331.723V337.914H544.559V328.601H546.844L550.157 334.426L553.628 328.601H555.668L555.685 337.914H553.715Z" fill="#1D1D1B"/>
<path d="M562.871 337.426C562.137 337.02 561.533 336.415 561.127 335.682C560.703 334.931 560.481 334.084 560.481 333.223C560.481 332.361 560.703 331.514 561.127 330.764C561.536 330.033 562.139 329.429 562.871 329.02C563.673 328.604 564.566 328.394 565.469 328.41C566.311 328.394 567.143 328.585 567.893 328.968C568.566 329.326 569.109 329.887 569.445 330.572L567.701 331.549C567.462 331.141 567.119 330.804 566.707 330.572C566.297 330.362 565.842 330.255 565.382 330.258C565.009 330.246 564.638 330.31 564.29 330.444C563.943 330.579 563.626 330.783 563.359 331.043C563.087 331.324 562.875 331.658 562.737 332.024C562.599 332.39 562.538 332.78 562.557 333.171C562.536 333.559 562.597 333.947 562.735 334.31C562.873 334.674 563.086 335.004 563.359 335.281C563.797 335.7 564.356 335.971 564.957 336.056C565.558 336.14 566.17 336.034 566.707 335.752C567.122 335.532 567.467 335.199 567.701 334.792L569.445 335.769C569.097 336.451 568.55 337.011 567.876 337.373C567.136 337.767 566.307 337.965 565.469 337.949C564.566 337.96 563.674 337.751 562.871 337.339" fill="#1D1D1B"/>
<path d="M577.851 334.182H576.159V337.914H573.979V328.601H576.159V332.368H577.903L580.659 328.601H582.996L579.612 333.083L583.222 337.914H580.659L577.851 334.182Z" fill="#1D1D1B"/>
<path d="M137.718 99.0828H122.581V114.22H137.718V99.0828Z" fill="#931F2B"/>
<path d="M4.49934 128.66H2.23223V133.804H0V121.597H2.23223V126.707H4.56912L8.09184 121.597H10.4985L6.31305 127.509L10.6554 133.804H8.09184L4.49934 128.66Z" fill="#1D1D1B"/>
<path d="M21.2932 125.381C21.6781 125.767 21.9742 126.232 22.1609 126.744C22.3477 127.256 22.4205 127.803 22.3745 128.346V133.804H20.3166V132.671C20.0397 133.085 19.6448 133.407 19.1831 133.595C18.6312 133.826 18.0372 133.939 17.4391 133.926C16.8406 133.926 16.2481 133.807 15.6952 133.578C15.2092 133.365 14.7924 133.021 14.4919 132.584C14.2073 132.155 14.0556 131.651 14.0559 131.136C14.0436 130.751 14.1225 130.369 14.2862 130.02C14.4499 129.672 14.6936 129.367 14.9976 129.131C15.8609 128.554 16.8925 128.284 17.9274 128.363H20.3341V128.224C20.3511 127.947 20.3085 127.67 20.2092 127.411C20.11 127.153 19.9563 126.918 19.7586 126.724C19.2616 126.341 18.6406 126.154 18.0146 126.201C17.4937 126.204 16.9762 126.286 16.48 126.445C16.0084 126.582 15.5694 126.814 15.1895 127.125L14.3349 125.538C14.8593 125.149 15.4503 124.86 16.0789 124.684C16.7887 124.486 17.5221 124.387 18.2588 124.387C19.3986 124.309 20.5259 124.664 21.4153 125.381M19.4272 131.973C19.839 131.726 20.1531 131.344 20.3166 130.892V129.811H17.9449C16.6893 129.811 16.0614 130.229 16.0614 131.049C16.0548 131.233 16.0944 131.415 16.1767 131.58C16.259 131.744 16.3813 131.886 16.5323 131.991C16.9207 132.242 17.3784 132.364 17.8403 132.339C18.3526 132.351 18.8585 132.224 19.3052 131.973" fill="#1D1D1B"/>
<path d="M36.1341 124.492V133.804H33.9542V126.34H30.4663V128.189C30.4394 129.225 30.3286 130.258 30.135 131.276C30.0182 131.993 29.7245 132.671 29.2805 133.246C29.0793 133.488 28.8252 133.68 28.5378 133.807C28.2504 133.934 27.9376 133.993 27.6237 133.979C27.2165 133.962 26.8127 133.898 26.4204 133.787L26.525 131.956H26.9436C27.1434 131.968 27.3426 131.924 27.5185 131.829C27.6943 131.733 27.8396 131.59 27.9376 131.415C28.1759 131.029 28.3248 130.594 28.3736 130.142C28.3736 129.654 28.4957 128.956 28.5306 128.032L28.6875 124.44L36.1341 124.492Z" fill="#1D1D1B"/>
<path d="M41.6802 124.492H43.8601V130.631L49.0047 124.492H50.9928V133.805H48.8128V127.666L43.6857 133.805H41.6802V124.492Z" fill="#1D1D1B"/>
<path d="M56.5381 124.492H58.718V128.276H63.4092V124.492H65.5891V133.805H63.4092V130.125H58.718V133.805H56.5381V124.492Z" fill="#1D1D1B"/>
<path d="M71.1348 124.492H73.3147V130.631L78.4593 124.492H80.4473V133.805H78.2674V127.666L73.1403 133.805H71.1348V124.492Z" fill="#1D1D1B"/>
<path d="M85.9932 124.492H88.1731V128.276H92.8642V124.492H95.0441V133.805H92.8642V130.125H88.1731V133.805H85.9932V124.492Z" fill="#1D1D1B"/>
<path d="M107.74 126.341H102.77V133.805H100.59V124.492H107.74V126.341Z" fill="#1D1D1B"/>
<path d="M119.546 124.98C120.286 125.378 120.892 125.985 121.29 126.724C121.691 127.494 121.9 128.35 121.9 129.218C121.9 130.086 121.691 130.941 121.29 131.712C120.896 132.454 120.288 133.061 119.546 133.456C118.798 133.861 117.956 134.066 117.105 134.049C116.546 134.074 115.988 133.974 115.472 133.757C114.956 133.54 114.495 133.211 114.123 132.793V137.31H111.943V124.614H114.018V125.835C114.382 125.403 114.842 125.062 115.361 124.841C115.914 124.612 116.507 124.499 117.105 124.509C117.956 124.492 118.798 124.697 119.546 125.102M118.849 131.38C119.346 130.79 119.618 130.042 119.618 129.27C119.618 128.498 119.346 127.751 118.849 127.16C118.592 126.894 118.283 126.686 117.94 126.547C117.598 126.409 117.23 126.345 116.861 126.358C116.368 126.353 115.882 126.473 115.448 126.707C115.03 126.953 114.686 127.309 114.454 127.736C114.214 128.211 114.088 128.737 114.088 129.27C114.088 129.803 114.214 130.329 114.454 130.805C114.682 131.23 115.027 131.581 115.448 131.816C115.878 132.063 116.366 132.19 116.861 132.183C117.23 132.196 117.598 132.131 117.94 131.993C118.283 131.855 118.592 131.646 118.849 131.38Z" fill="#1D1D1B"/>
<path d="M133.114 125.381C133.499 125.767 133.795 126.232 133.982 126.744C134.168 127.256 134.241 127.803 134.195 128.346V133.804H132.137V132.671C131.86 133.085 131.466 133.407 131.004 133.595C130.452 133.826 129.858 133.939 129.26 133.926C128.661 133.926 128.069 133.807 127.516 133.578C127.03 133.365 126.613 133.021 126.313 132.584C126.028 132.155 125.876 131.651 125.877 131.136C125.864 130.751 125.943 130.369 126.107 130.02C126.271 129.672 126.514 129.367 126.818 129.131C127.682 128.554 128.713 128.284 129.748 128.363H132.155V128.224C132.172 127.947 132.129 127.67 132.03 127.411C131.931 127.153 131.777 126.918 131.579 126.724C131.082 126.341 130.461 126.154 129.835 126.201C129.314 126.204 128.797 126.286 128.301 126.445C127.829 126.582 127.39 126.814 127.01 127.125L126.156 125.538C126.68 125.149 127.271 124.86 127.9 124.684C128.61 124.486 129.343 124.387 130.08 124.387C131.219 124.309 132.347 124.664 133.236 125.381M131.248 131.973C131.66 131.726 131.974 131.344 132.137 130.892V129.811H129.888C128.632 129.811 128.004 130.229 128.004 131.049C127.998 131.233 128.037 131.415 128.12 131.58C128.202 131.744 128.324 131.886 128.475 131.991C128.864 132.242 129.321 132.364 129.783 132.339C130.295 132.351 130.801 132.224 131.248 131.973Z" fill="#1D1D1B"/>
<path d="M149.455 131.956V135.88H147.414V133.805H140.23V135.88H138.207V131.956H138.643C139.235 131.956 139.654 131.555 139.863 130.805C140.113 129.782 140.254 128.736 140.282 127.683L140.404 124.492H148.077V131.956H149.455ZM142.008 130.456C141.943 131.018 141.698 131.544 141.311 131.956H145.897V126.341H142.322V127.84C142.307 128.718 142.219 129.593 142.061 130.456" fill="#1D1D1B"/>
</svg>
