<svg width="24" height="25" viewBox="0 0 24 25" fill="none" xmlns="http://www.w3.org/2000/svg">
<path d="M12 22.5189C17.5228 22.5189 22 20.5041 22 18.0189C22 16.7522 20.837 15.6078 18.9654 14.79C17.8233 16.8859 16.0817 18.6924 13.8695 19.6378C12.6804 20.1459 11.3196 20.1459 10.1305 19.6378C7.91828 18.6924 6.17666 16.8859 5.03458 14.79C3.16295 15.6078 2 16.7522 2 18.0189C2 20.5041 6.47715 22.5189 12 22.5189Z" fill="#91202B"/>
<path fill-rule="evenodd" clip-rule="evenodd" d="M5 9.03319C5 5.43526 8.13401 2.51855 12 2.51855C15.866 2.51855 19 5.43526 19 9.03319C19 12.6029 16.7658 16.7685 13.2801 18.2581C12.4675 18.6054 11.5325 18.6054 10.7199 18.2581C7.23416 16.7685 5 12.6029 5 9.03319ZM12 11.5186C13.1046 11.5186 14 10.6231 14 9.51855C14 8.41399 13.1046 7.51855 12 7.51855C10.8954 7.51855 10 8.41399 10 9.51855C10 10.6231 10.8954 11.5186 12 11.5186Z" fill="#91202B"/>
</svg>
