<svg width="73" height="38" viewBox="0 0 73 38" fill="none" xmlns="http://www.w3.org/2000/svg">
<path fill-rule="evenodd" clip-rule="evenodd" d="M0 0.435059H21.1597V37.602H0V0.435059ZM6.40464 23.0284H17.5385V20.2603H3.62117V34.101H17.5385V25.7965H9.18811V28.5647H14.7551V31.3328H6.40464V23.0284ZM3.62117 3.9361V17.7716H6.40464V6.69898H9.18811V12.2353H11.9716V6.70425H14.7551V17.7768H17.5385V3.9361H3.62117Z" fill="#666060"/>
<path fill-rule="evenodd" clip-rule="evenodd" d="M39.7639 4.90622V16.7328H37.7598V8.37036L34.812 15.1141H33.2214L30.2683 8.344V16.7328H28.3119V4.90622H30.4857L33.9319 12.4409L37.3675 4.90622H39.7639ZM44.1485 12.6939V14.4866C44.1363 14.5796 44.1427 14.674 44.1672 14.7645C44.1918 14.855 44.2341 14.9397 44.2917 15.0139C44.4329 15.1241 44.6116 15.1751 44.7901 15.1563H47.0009C47.0904 15.1795 47.1844 15.179 47.2737 15.1549C47.3629 15.1308 47.4443 15.0839 47.5096 15.0189C47.575 14.9539 47.6222 14.873 47.6464 14.7842C47.6706 14.6955 47.6711 14.602 47.6478 14.513V13.7959H49.5989V14.5025C49.6532 15.1141 49.4627 15.7223 49.0687 16.195C48.8337 16.3898 48.5625 16.5366 48.2705 16.6271C47.9785 16.7175 47.6714 16.7499 47.3668 16.7222H44.4401C43.8252 16.7763 43.2136 16.5868 42.7382 16.195C42.3442 15.7223 42.1537 15.1141 42.2081 14.5025V9.83616C42.1807 9.53407 42.2134 9.22959 42.3044 8.94009C42.3954 8.65059 42.5428 8.38174 42.7382 8.14891C43.2136 7.75706 43.8252 7.56758 44.4401 7.62164H47.3615C47.6661 7.59401 47.9732 7.62635 48.2652 7.71682C48.5572 7.8073 48.8284 7.95412 49.0634 8.14891C49.2588 8.38174 49.4062 8.65059 49.4972 8.94009C49.5882 9.22959 49.6209 9.53407 49.5935 9.83616V12.6939H44.1485ZM47.0009 9.21398H44.7954C44.6169 9.19511 44.4382 9.24619 44.297 9.35635C44.1864 9.49885 44.1351 9.6782 44.1538 9.85725V11.3283H47.6531V9.85725C47.6718 9.6782 47.6205 9.49885 47.5099 9.35635C47.4353 9.29907 47.3501 9.25701 47.2591 9.23258C47.1681 9.20815 47.0732 9.20183 46.9797 9.21398H47.0009ZM54.1213 7.54255C54.7483 7.50829 55.3747 7.62024 55.9505 7.86946C56.4329 8.14053 56.8607 8.49807 57.2123 8.92399V4.39478H59.1687V16.7328H57.2123V15.4146C56.8618 15.8416 56.4338 16.1993 55.9505 16.4692C55.374 16.716 54.7482 16.8278 54.1213 16.7961C53.4078 16.8676 52.6923 16.6804 52.1066 16.2688C51.8854 16.0276 51.7173 15.743 51.6132 15.4334C51.5091 15.1237 51.4713 14.7959 51.5022 14.4708V9.88888C51.4707 9.5638 51.5082 9.23576 51.6123 8.92601C51.7164 8.61627 51.8848 8.33175 52.1066 8.09091C52.6911 7.6767 53.4076 7.48918 54.1213 7.56364V7.54255ZM53.4586 10.0418V14.3021C53.4456 14.4104 53.4564 14.5203 53.4903 14.6241C53.5242 14.7278 53.5803 14.8231 53.6548 14.9032C53.8957 15.0349 54.1714 15.0901 54.4447 15.0614C54.9573 15.0736 55.4691 15.0169 55.9664 14.8926C56.4039 14.7597 56.8225 14.5719 57.2123 14.3337V10.0102C56.8237 9.76983 56.4047 9.58189 55.9664 9.45125C55.4696 9.32444 54.9574 9.26764 54.4447 9.28253C54.1714 9.25383 53.8957 9.30903 53.6548 9.44071C53.5794 9.52021 53.5227 9.61537 53.4887 9.71932C53.4548 9.82327 53.4445 9.93341 53.4586 10.0418ZM63.5692 6.47747H61.5015V4.51605H63.5904V6.47747H63.5692ZM63.5003 7.60582V16.7328H61.5545V7.60582H63.5003ZM68.0546 7.60582H70.7586C71.3735 7.55176 71.9851 7.74124 72.4604 8.13309C72.6559 8.36592 72.8033 8.63477 72.8943 8.92427C72.9853 9.21377 73.018 9.51826 72.9906 9.82034V16.7328H71.0448V15.3672C70.7202 15.8056 70.3088 16.1734 69.836 16.4481C69.2739 16.7127 68.6544 16.8341 68.0334 16.8013C67.684 16.8352 67.3312 16.7979 66.9967 16.6919C66.6622 16.5858 66.3529 16.4132 66.0876 16.1844C65.6452 15.6019 65.4372 14.8762 65.5044 14.1492C65.44 13.4462 65.6466 12.7451 66.0823 12.1878C66.5688 11.7357 67.199 11.4671 67.8637 11.4285C68.7014 11.3125 69.7618 11.2229 71.0448 11.1596V9.85725C71.0682 9.76827 71.0677 9.67476 71.0435 9.58602C71.0193 9.49727 70.9721 9.41637 70.9067 9.35135C70.8413 9.28633 70.76 9.23944 70.6708 9.21534C70.5815 9.19124 70.4875 9.19078 70.398 9.21398H68.3939C68.2159 9.20002 68.0393 9.25478 67.9009 9.36689C67.7885 9.5046 67.7352 9.68075 67.7524 9.85725V10.3107H65.8278V9.83616C65.7981 9.53394 65.8297 9.22887 65.9208 8.93903C66.0118 8.64919 66.1605 8.3805 66.358 8.14891C66.8279 7.75851 67.434 7.56895 68.044 7.62164L68.0546 7.60582ZM71.0448 12.425L68.2243 12.8627C67.9865 12.8752 67.7618 12.9747 67.5933 13.1421C67.4533 13.4039 67.3942 13.7011 67.4237 13.9963C67.3932 14.3102 67.4579 14.626 67.6092 14.9032C67.7083 14.99 67.8247 15.0551 67.9507 15.0942C68.0768 15.1333 68.2098 15.1454 68.3409 15.1299C68.8185 15.141 69.2948 15.0751 69.7512 14.9348C70.2022 14.7665 70.6355 14.5546 71.0448 14.3021V12.425ZM34.6688 25.148V23.8614C34.6867 23.7755 34.6827 23.6865 34.6572 23.6025C34.6318 23.5184 34.5856 23.4421 34.5229 23.3803C34.4603 23.3185 34.3831 23.2732 34.2984 23.2486C34.2137 23.224 34.1242 23.2208 34.0379 23.2393H30.6765C30.5016 23.2232 30.3272 23.2741 30.1888 23.3816C30.0805 23.5171 30.0292 23.6891 30.0456 23.8614V30.7159C30.028 30.8883 30.0795 31.0607 30.1888 31.1957C30.3272 31.3032 30.5016 31.3541 30.6765 31.3381H34.0379C34.2129 31.3552 34.3878 31.3042 34.5257 31.1957C34.635 31.0607 34.6864 30.8883 34.6688 30.7159V28.6068H32.1345V26.7983H36.71V30.8213C36.71 32.3961 35.9165 33.1852 34.3295 33.1888H30.3849C28.8014 33.1888 28.0079 32.3996 28.0044 30.8213V23.7454C28.0044 22.1671 28.7979 21.378 30.3849 21.378H34.3295C35.913 21.378 36.7065 22.1671 36.71 23.7454V25.148H34.6688ZM44.3553 25.923H43.3692C42.5107 25.9424 41.6727 26.188 40.9409 26.6348V33.2098H38.9845V24.0829H40.9409V25.4696C41.27 25.054 41.6681 24.6974 42.1179 24.4151C42.5936 24.1699 43.1256 24.0536 43.6608 24.0776H44.3553V25.9178V25.923ZM47.7538 24.0829H50.7812C51.0867 24.0336 51.3996 24.0574 51.694 24.1521C51.9885 24.2469 52.256 24.4099 52.4746 24.6278C52.6932 24.8457 52.8565 25.1122 52.9511 25.4052C53.0457 25.6983 53.0688 26.0095 53.0185 26.3132V30.9795C53.069 31.2837 53.0459 31.5955 52.951 31.889C52.8562 32.1826 52.6923 32.4494 52.4731 32.6674C52.2539 32.8854 51.9856 33.0484 51.6904 33.1427C51.3953 33.237 51.0817 33.26 50.7759 33.2098H47.7538C47.4479 33.26 47.1344 33.237 46.8392 33.1427C46.5441 33.0484 46.2758 32.8854 46.0565 32.6674C45.8373 32.4494 45.6735 32.1826 45.5786 31.889C45.4838 31.5955 45.4606 31.2837 45.5111 30.9795V26.3132C45.4606 26.009 45.4838 25.6972 45.5786 25.4037C45.6735 25.1101 45.8373 24.8433 46.0565 24.6253C46.2758 24.4073 46.5441 24.2444 46.8392 24.15C47.1344 24.0557 47.4479 24.0327 47.7538 24.0829ZM51.0834 30.8582V26.4345C51.0977 26.3408 51.0914 26.2451 51.0648 26.154C51.0383 26.063 50.9921 25.9788 50.9296 25.9072C50.791 25.8002 50.6167 25.7493 50.4418 25.7649H48.109C47.9327 25.7505 47.7572 25.8012 47.616 25.9072C47.5555 25.9799 47.5111 26.0644 47.4855 26.1552C47.46 26.246 47.4538 26.3412 47.4675 26.4345V30.8582C47.4576 30.9474 47.4656 31.0375 47.491 31.1236C47.5165 31.2096 47.559 31.2896 47.616 31.3591C47.7572 31.4652 47.9327 31.5158 48.109 31.5015H50.4418C50.6167 31.5171 50.791 31.4662 50.9296 31.3591C50.9886 31.2907 51.0327 31.2109 51.0591 31.1247C51.0856 31.0385 51.0938 30.9478 51.0834 30.8582ZM60.6267 33.2098V31.9075C60.2817 32.3297 59.8633 32.6869 59.3914 32.962C58.8412 33.2159 58.2368 33.3317 57.6312 33.2995C56.9429 33.3661 56.254 33.1784 55.696 32.7722C55.4793 32.5402 55.3143 32.2652 55.212 31.9654C55.1096 31.6655 55.0722 31.3475 55.1022 31.0322V24.0829H57.0533V30.8582C57.0449 30.9538 57.0566 31.05 57.0876 31.1407C57.1186 31.2315 57.1683 31.3149 57.2335 31.3855C57.4463 31.5097 57.6933 31.5632 57.9387 31.5384C58.4241 31.5524 58.9092 31.501 59.3808 31.3855C59.8101 31.2489 60.2213 31.0612 60.6055 30.8266V24.0829H62.5619V33.2098H60.6267ZM69.9845 24.0143C70.698 23.9428 71.4135 24.13 71.9992 24.5416C72.2185 24.7849 72.385 25.0707 72.4881 25.381C72.5912 25.6913 72.6287 26.0194 72.5983 26.3448V30.9057C72.6287 31.2311 72.5912 31.5592 72.4881 31.8695C72.385 32.1798 72.2185 32.4656 71.9992 32.7089C71.4135 33.1205 70.698 33.3077 69.9845 33.2362C69.3514 33.2687 68.7195 33.1531 68.1394 32.8988C67.6604 32.6271 67.2362 32.2696 66.8882 31.8442V35.8673H64.9371V24.0829H66.8882V25.401C67.2362 24.9757 67.6604 24.6182 68.1394 24.3465C68.7195 24.0922 69.3514 23.9766 69.9845 24.0091V24.0143ZM70.6472 30.7739V26.5188C70.6598 26.4105 70.6488 26.3008 70.615 26.197C70.5811 26.0933 70.5252 25.9981 70.451 25.9178C70.2108 25.7839 69.935 25.7269 69.6611 25.7543C69.1485 25.742 68.6367 25.7988 68.1394 25.923C67.7015 26.0591 67.2814 26.2468 66.8882 26.4819V30.8108C67.2814 31.046 67.7015 31.2336 68.1394 31.3697C68.6367 31.4939 69.1485 31.5507 69.6611 31.5384C69.9352 31.5687 70.2118 31.5115 70.451 31.375C70.5252 31.2947 70.5811 31.1994 70.615 31.0957C70.6488 30.992 70.6598 30.8822 70.6472 30.7739Z" fill="#666060"/>
</svg>
