<svg width="61" height="61" viewBox="0 0 61 61" fill="none" xmlns="http://www.w3.org/2000/svg">
<path fill-rule="evenodd" clip-rule="evenodd" d="M36.3635 5.89916C35.4377 5.51855 34.264 5.51855 31.9165 5.51855C29.5691 5.51855 28.3953 5.51855 27.4695 5.89916C26.235 6.40663 25.2542 7.38 24.7429 8.60514C24.5095 9.16441 24.4181 9.81481 24.3824 10.7635C24.3298 12.1578 23.6094 13.4483 22.3919 14.1459C21.1744 14.8435 19.6881 14.8174 18.4452 14.1655C17.5995 13.7218 16.9862 13.4751 16.3815 13.3961C15.0567 13.223 13.717 13.5793 12.6569 14.3866C11.8618 14.992 11.275 16.0008 10.1013 18.0184C8.92754 20.036 8.34068 21.0448 8.20987 22.0308C8.03547 23.3456 8.39446 24.6752 9.20787 25.7273C9.57914 26.2074 10.1009 26.6111 10.9108 27.1161C12.1013 27.8585 12.8673 29.1232 12.8672 30.5186C12.8672 31.9139 12.1012 33.1784 10.9108 33.9207C10.1008 34.4257 9.57893 34.8294 9.20762 35.3097C8.39421 36.3617 8.03522 37.6914 8.20962 39.0061C8.34043 39.9922 8.92729 41.001 10.101 43.0186C11.2747 45.0361 11.8616 46.0449 12.6566 46.6504C13.7167 47.4576 15.0565 47.8139 16.3812 47.6408C16.9859 47.5618 17.5991 47.3152 18.4448 46.8716C19.6878 46.2196 21.1743 46.1935 22.3918 46.8911C23.6094 47.5888 24.3298 48.8794 24.3824 50.2737C24.4181 51.2224 24.5095 51.8727 24.7429 52.432C25.2542 53.6571 26.235 54.6305 27.4695 55.1379C28.3953 55.5186 29.5691 55.5186 31.9165 55.5186C34.264 55.5186 35.4377 55.5186 36.3635 55.1379C37.598 54.6305 38.5788 53.6571 39.0901 52.432C39.3235 51.8727 39.4149 51.2223 39.4506 50.2735C39.5032 48.8793 40.2235 47.5888 41.4409 46.8911C42.6585 46.1934 44.145 46.2194 45.388 46.8714C46.2337 47.315 46.8468 47.5617 47.4515 47.6407C48.7763 47.8138 50.1161 47.4575 51.1761 46.6502C51.9712 46.0448 52.558 45.036 53.7317 43.0184C54.9055 41.0008 55.4923 39.992 55.6231 39.0059C55.7975 37.6912 55.4385 36.3616 54.6251 35.3095C54.2538 34.8293 53.732 34.4256 52.9221 33.9206C51.7317 33.1782 50.9657 31.9136 50.9658 30.5183C50.9659 29.1232 51.7318 27.8588 52.9221 27.1165C53.7321 26.6114 54.2541 26.2077 54.6254 25.7274C55.4388 24.6754 55.7978 23.3457 55.6234 22.031C55.4926 21.0449 54.9057 20.0361 53.732 18.0186C52.5583 16.001 51.9714 14.9922 51.1764 14.3867C50.1163 13.5795 48.7765 13.2232 47.4518 13.3963C46.8471 13.4753 46.2339 13.7219 45.3882 14.1655C44.1452 14.8175 42.6587 14.8436 41.4412 14.146C40.2236 13.4483 39.5032 12.1577 39.4506 10.7634C39.4149 9.81475 39.3235 9.16438 39.0901 8.60514C38.5788 7.38 37.598 6.40663 36.3635 5.89916ZM31.9165 38.0186C36.0902 38.0186 39.4736 34.6607 39.4736 30.5186C39.4736 26.3764 36.0902 23.0186 31.9165 23.0186C27.7428 23.0186 24.3594 26.3764 24.3594 30.5186C24.3594 34.6607 27.7428 38.0186 31.9165 38.0186Z" fill="#91202B"/>
</svg>
