<svg width="20" height="21" viewBox="0 0 20 21" fill="none" xmlns="http://www.w3.org/2000/svg">
<path fill-rule="evenodd" clip-rule="evenodd" d="M3.93141 3.07691C4.95323 2.00113 6.64341 2.20268 7.48807 3.39733L8.5389 4.88357C9.21451 5.83913 9.15744 7.1676 8.35113 8.0165L8.14708 8.23132C8.14651 8.2328 8.14592 8.23441 8.1453 8.23615C8.13452 8.26645 8.10725 8.36294 8.13408 8.54606C8.18971 8.92568 8.48275 9.69708 9.67246 10.9496C10.8659 12.2061 11.5898 12.5022 11.9253 12.5567C12.07 12.5802 12.1457 12.5598 12.1698 12.5513L12.5103 12.1928C13.2385 11.4262 14.3738 11.2752 15.2892 11.8021L16.8813 12.7184C18.242 13.5017 18.5587 15.4177 17.4713 16.5626L16.2875 17.8089C15.918 18.1979 15.4142 18.5299 14.7917 18.5914C13.2718 18.7414 9.75082 18.546 6.05967 14.6599C2.61537 11.0337 1.96105 7.8796 1.87834 6.33858L2.43342 6.30879L1.87834 6.33858C1.83747 5.57719 2.17687 4.92411 2.62341 4.45399L3.93141 3.07691ZM6.46742 4.11897C6.04046 3.5151 5.27343 3.47907 4.83774 3.93777L3.52974 5.31485C3.25358 5.60559 3.10868 5.93884 3.12654 6.27159C3.19407 7.52977 3.73589 10.3983 6.96599 13.799C10.3528 17.3647 13.473 17.4654 14.6689 17.3474C14.9053 17.3241 15.1486 17.1929 15.3811 16.948L16.5649 15.7017C17.0756 15.1641 16.9417 14.1955 16.2577 13.8018L14.6656 12.8854C14.2384 12.6395 13.7379 12.7155 13.4167 13.0537L13.0371 13.4532L12.5978 13.036C13.0371 13.4533 13.0365 13.4539 13.036 13.4545L13.0348 13.4557L13.0323 13.4583L13.027 13.4636L13.0151 13.4754C13.0065 13.4837 12.9966 13.4929 12.9854 13.5027C12.963 13.5223 12.9353 13.5447 12.902 13.5683C12.8352 13.6157 12.7463 13.6678 12.6338 13.7121C12.4038 13.8028 12.1001 13.8515 11.7249 13.7906C10.9936 13.6718 10.0352 13.1466 8.76614 11.8105C7.49335 10.4705 7.00622 9.47071 6.89729 8.72728C6.84185 8.34889 6.88622 8.04589 6.96764 7.81708C7.00768 7.70456 7.05495 7.61484 7.09855 7.54671C7.12029 7.51274 7.14101 7.48429 7.15933 7.46114C7.16849 7.44957 7.17705 7.43931 7.18485 7.43035L7.19595 7.41786L7.20104 7.41233L7.20346 7.40974L7.20463 7.40849C7.20521 7.40788 7.20578 7.40728 7.64884 7.8281L7.20579 7.40727L7.4448 7.15564C7.81608 6.76475 7.87003 6.10276 7.51824 5.60521L6.46742 4.11897Z" fill="#91202B"/>
<path d="M11.0494 2.06685C11.1046 1.72611 11.4267 1.49496 11.7674 1.55013C11.7885 1.55417 11.8564 1.56685 11.8919 1.57477C11.963 1.59061 12.0622 1.61499 12.1859 1.65101C12.4332 1.72304 12.7787 1.84171 13.1934 2.03183C14.0236 2.41246 15.1285 3.07829 16.275 4.22479C17.4215 5.37129 18.0873 6.47614 18.468 7.30637C18.6581 7.72105 18.7767 8.06655 18.8488 8.31387C18.8848 8.43754 18.9092 8.53673 18.925 8.60784C18.9329 8.6434 18.9387 8.67194 18.9428 8.69304L18.9475 8.71903C19.0027 9.05977 18.7737 9.39521 18.4329 9.45037C18.0932 9.50538 17.7731 9.27535 17.7166 8.93621C17.7148 8.9271 17.71 8.90264 17.7049 8.87956C17.6946 8.83341 17.6768 8.76022 17.6486 8.66343C17.5922 8.46982 17.4943 8.18204 17.3317 7.82731C17.0068 7.11872 16.4227 6.14023 15.3911 5.10868C14.3595 4.07713 13.3811 3.49296 12.6725 3.1681C12.3177 3.00547 12.03 2.90753 11.8364 2.85114C11.7396 2.82294 11.6179 2.79502 11.5717 2.78474C11.2326 2.72822 10.9944 2.40662 11.0494 2.06685Z" fill="#91202B"/>
<path fill-rule="evenodd" clip-rule="evenodd" d="M11.2386 4.94125C11.3334 4.60936 11.6793 4.41717 12.0112 4.512L11.8395 5.11295C12.0112 4.512 12.0115 4.51209 12.0118 4.51217L12.0124 4.51235L12.0137 4.51271L12.0165 4.51353L12.0229 4.51545L12.0394 4.52059C12.052 4.52461 12.0677 4.52984 12.0864 4.53648C12.1238 4.54976 12.1733 4.56865 12.234 4.59465C12.3554 4.64668 12.5212 4.72703 12.725 4.84762C13.1329 5.08903 13.6897 5.49001 14.3439 6.14415C14.998 6.79829 15.399 7.35512 15.6404 7.763C15.761 7.96676 15.8413 8.13265 15.8934 8.25405C15.9194 8.31473 15.9382 8.36419 15.9515 8.40162C15.9582 8.42033 15.9634 8.43602 15.9674 8.44858L15.9725 8.46507L15.9745 8.47153L15.9753 8.47431L15.9757 8.47559L15.9758 8.4762C15.9759 8.47649 15.976 8.47679 15.375 8.64849L15.976 8.47679C16.0708 8.80868 15.8786 9.15461 15.5468 9.24944C15.2177 9.34346 14.8748 9.15533 14.7766 8.82861L14.7735 8.81963C14.769 8.80711 14.7599 8.78245 14.7444 8.74645C14.7136 8.67451 14.6577 8.55681 14.5647 8.39965C14.3789 8.0857 14.0433 7.61133 13.46 7.02803C12.8767 6.44474 12.4023 6.10915 12.0883 5.92334C11.9312 5.83033 11.8135 5.77442 11.7416 5.74358C11.7055 5.72815 11.6809 5.71896 11.6684 5.71452L11.6594 5.71144C11.3327 5.6132 11.1445 5.27033 11.2386 4.94125Z" fill="#91202B"/>
</svg>
