<svg width="24" height="25" viewBox="0 0 24 25" fill="none" xmlns="http://www.w3.org/2000/svg">
<path d="M15.5562 15.0663L15.1007 15.5458C15.1007 15.5458 14.0181 16.6855 11.0631 13.5745C8.10812 10.4634 9.1907 9.32363 9.1907 9.32363L9.47752 9.02167C10.1841 8.2778 10.2507 7.08352 9.63424 6.21165L8.37326 4.42817C7.61028 3.34905 6.13596 3.2065 5.26145 4.1272L3.69185 5.77969C3.25823 6.23621 2.96765 6.82801 3.00289 7.48449C3.09304 9.16401 3.81071 12.7776 7.81536 16.9937C12.0621 21.4648 16.0468 21.6425 17.6763 21.4816C18.1917 21.4308 18.6399 21.1528 19.0011 20.7726L20.4217 19.277C21.3806 18.2675 21.1102 16.5367 19.8833 15.8305L17.9728 14.7309C17.1672 14.2672 16.1858 14.4034 15.5562 15.0663Z" fill="#91202B"/>
<path d="M13.2595 2.39863C13.3257 1.98974 13.7122 1.71237 14.1211 1.77856C14.1464 1.78341 14.2279 1.79863 14.2705 1.80813C14.3559 1.82713 14.4749 1.85639 14.6233 1.89962C14.9201 1.98606 15.3347 2.12847 15.8323 2.3566C16.8286 2.81336 18.1544 3.61236 19.5302 4.98816C20.906 6.36396 21.705 7.68977 22.1617 8.68605C22.3899 9.18367 22.5323 9.59827 22.6187 9.89505C22.6619 10.0435 22.6912 10.1625 22.7102 10.2478C22.7197 10.2905 22.7267 10.3247 22.7315 10.3501L22.7373 10.3812C22.8034 10.7901 22.5286 11.1927 22.1197 11.2589C21.712 11.3249 21.3279 11.0488 21.2601 10.6419C21.258 10.6309 21.2522 10.6016 21.2461 10.5739C21.2337 10.5185 21.2124 10.4307 21.1786 10.3145C21.1109 10.0822 20.9934 9.73685 20.7982 9.31118C20.4084 8.46087 19.7074 7.28668 18.4695 6.04882C17.2317 4.81096 16.0575 4.10996 15.2072 3.72013C14.7815 3.52498 14.4362 3.40744 14.2038 3.33977C14.0877 3.30594 13.9417 3.27243 13.8863 3.26009C13.4793 3.19227 13.1935 2.80635 13.2595 2.39863Z" fill="#91202B"/>
<path fill-rule="evenodd" clip-rule="evenodd" d="M13.4857 5.8481C13.5995 5.44982 14.0146 5.2192 14.4129 5.33299L14.2069 6.05414C14.4129 5.33299 14.4129 5.33299 14.4129 5.33299L14.4144 5.33341L14.4159 5.33385L14.4192 5.33482L14.427 5.33714L14.4468 5.3433C14.4618 5.34812 14.4807 5.3544 14.5031 5.36237C14.548 5.37831 14.6074 5.40097 14.6802 5.43217C14.8259 5.49461 15.0249 5.59103 15.2695 5.73574C15.7589 6.02542 16.4271 6.5066 17.2121 7.29157C17.9971 8.07654 18.4782 8.74473 18.7679 9.2342C18.9126 9.47871 19.009 9.67777 19.0715 9.82346C19.1027 9.89626 19.1254 9.95562 19.1413 10.0005C19.1493 10.023 19.1555 10.0418 19.1604 10.0569L19.1665 10.0767L19.1688 10.0844L19.1698 10.0878L19.1702 10.0893C19.1702 10.0893 19.1707 10.0907 18.4495 10.2968L19.1707 10.0907C19.2845 10.489 19.0538 10.9041 18.6556 11.0179C18.2607 11.1307 17.8492 10.905 17.7313 10.5129L17.7276 10.5021C17.7223 10.4871 17.7113 10.4575 17.6928 10.4143C17.6558 10.328 17.5887 10.1868 17.4771 9.99818C17.2541 9.62143 16.8514 9.05219 16.1514 8.35223C15.4515 7.65228 14.8822 7.24958 14.5055 7.02661C14.3169 6.91499 14.1757 6.84789 14.0893 6.81089C14.0461 6.79238 14.0165 6.78134 14.0015 6.77601L13.9907 6.77232C13.5987 6.65444 13.3729 6.24299 13.4857 5.8481Z" fill="#91202B"/>
</svg>
