<svg width="61" height="61" viewBox="0 0 61 61" fill="none" xmlns="http://www.w3.org/2000/svg">
<path fill-rule="evenodd" clip-rule="evenodd" d="M31.4028 5.51855C28.6182 5.51855 26.0823 7.02032 21.0105 10.0238L19.2951 11.0397C14.2233 14.0432 11.6874 15.545 10.2951 18.0186C8.90283 20.4921 8.90283 23.4956 8.90283 29.5027V31.5344C8.90283 37.5415 8.90283 40.545 10.2951 43.0186C11.6874 45.4921 14.2233 46.9939 19.2951 49.9974L21.0105 51.0133C26.0823 54.0168 28.6182 55.5186 31.4028 55.5186C34.1874 55.5186 36.7233 54.0168 41.7951 51.0133L43.5105 49.9974C48.5823 46.9939 51.1182 45.4921 52.5105 43.0186C53.9028 40.545 53.9028 37.5415 53.9028 31.5344V29.5027C53.9028 23.4957 53.9028 20.4921 52.5105 18.0186C51.1182 15.545 48.5823 14.0432 43.5105 11.0397L41.7951 10.0238C36.7233 7.02032 34.1874 5.51855 31.4028 5.51855ZM22.0278 30.5186C22.0278 25.3409 26.2252 21.1436 31.4028 21.1436C36.5805 21.1436 40.7778 25.3409 40.7778 30.5186C40.7778 35.6962 36.5805 39.8936 31.4028 39.8936C26.2252 39.8936 22.0278 35.6962 22.0278 30.5186Z" fill="#91202B"/>
</svg>
