<svg width="60" height="61" viewBox="0 0 60 61" fill="none" xmlns="http://www.w3.org/2000/svg">
<path d="M20.625 5.51855H15C10.286 5.51855 7.92893 5.51855 6.46447 6.98302C5 8.44749 5 10.8045 5 15.5186V21.1436H12.5C13.5355 21.1436 14.375 21.983 14.375 23.0186C14.375 24.0541 13.5355 24.8936 12.5 24.8936H5V28.6436H10C11.0355 28.6436 11.875 29.483 11.875 30.5186C11.875 31.5541 11.0355 32.3936 10 32.3936H5V36.1436L12.5 36.1436C13.5355 36.1436 14.375 36.983 14.375 38.0186C14.375 39.0541 13.5355 39.8936 12.5 39.8936L5 39.8936V43.6436H10C11.0355 43.6436 11.875 44.483 11.875 45.5186C11.875 46.5541 11.0355 47.3936 10 47.3936H5.00019C5.00315 50.4927 5.05155 52.1124 5.84265 53.2964C6.20744 53.8424 6.6762 54.3111 7.22215 54.6759C8.48327 55.5186 10.2388 55.5186 13.75 55.5186C17.2612 55.5186 19.0167 55.5186 20.2778 54.6759C20.8238 54.3111 21.2926 53.8424 21.6573 53.2964C22.5 52.0353 22.5 50.2797 22.5 46.7686V28.0186C22.5 25.6615 22.5 24.483 23.2322 23.7508C23.9645 23.0186 25.143 23.0186 27.5 23.0186H46.25C49.7612 23.0186 51.5167 23.0186 52.7778 22.1759C53.3238 21.8111 53.7926 21.3424 54.1573 20.7964C55 19.5353 55 17.7797 55 14.2686C55 10.7574 55 9.00182 54.1573 7.7407C53.7926 7.19475 53.3238 6.726 52.7778 6.36121C51.5939 5.57011 49.9741 5.52171 46.875 5.51875V10.5186C46.875 11.5541 46.0355 12.3936 45 12.3936C43.9645 12.3936 43.125 11.5541 43.125 10.5186V5.51855H39.375V13.0186C39.375 14.0541 38.5355 14.8936 37.5 14.8936C36.4645 14.8936 35.625 14.0541 35.625 13.0186V5.51855H31.875V10.5186C31.875 11.5541 31.0355 12.3936 30 12.3936C28.9645 12.3936 28.125 11.5541 28.125 10.5186V5.51855H24.375L24.375 13.0186C24.375 14.0541 23.5355 14.8936 22.5 14.8936C21.4645 14.8936 20.625 14.0541 20.625 13.0186L20.625 5.51855Z" fill="#91202B"/>
</svg>
