<svg width="232" height="88" viewBox="0 0 232 88" fill="none" xmlns="http://www.w3.org/2000/svg">
<path d="M231.936 59.5429H0.178711V87.7951H231.936V59.5429Z" fill="#7FA92A"/>
<path d="M231.701 18.5516C231.613 17.0615 231.061 15.6363 230.122 14.4759C229.263 13.5056 228.193 12.7438 226.995 12.2484C225.797 11.7529 224.503 11.5369 223.209 11.6166C217.703 11.6166 212.198 11.6166 206.693 11.6166C204.977 11.56 203.26 11.6099 201.55 11.7659C199.714 11.9001 197.996 12.7214 196.738 14.066C195.48 15.4107 194.776 17.1799 194.764 19.021C194.764 23.2887 194.764 27.5138 194.764 31.6961C194.736 33.2094 195.202 34.6907 196.091 35.9153C196.981 37.1399 198.246 38.0409 199.694 38.4817C201.272 38.9858 202.924 39.2168 204.58 39.1646H221.651C222.974 39.1969 224.298 39.0896 225.599 38.8445C227.049 38.6471 228.404 38.0091 229.48 37.0169C230.556 36.0247 231.302 34.7261 231.616 33.2965C231.808 32.507 231.616 31.6961 232 30.9706V19.6825C231.68 19.3411 231.787 18.9357 231.765 18.5516M225.791 30.4585C225.853 30.9254 225.808 31.4004 225.658 31.8469C225.508 32.2933 225.257 32.6994 224.925 33.0335C224.593 33.3676 224.188 33.6209 223.743 33.7738C223.297 33.9267 222.822 33.9751 222.355 33.9153C216.338 33.9153 210.299 33.9153 204.26 33.9153C203.796 33.9806 203.322 33.9364 202.878 33.7861C202.433 33.6359 202.03 33.3838 201.7 33.05C201.371 32.7162 201.124 32.31 200.979 31.8637C200.834 31.4175 200.796 30.9435 200.867 30.4798V20.1733C200.811 19.7161 200.86 19.252 201.011 18.8169C201.162 18.3817 201.411 17.987 201.739 17.6633C202.067 17.3397 202.465 17.0956 202.902 16.9499C203.339 16.8042 203.804 16.7609 204.26 16.8232H222.248C222.731 16.7463 223.225 16.7849 223.69 16.9357C224.155 17.0865 224.577 17.3453 224.923 17.6909C225.268 18.0365 225.527 18.459 225.678 18.9239C225.829 19.3887 225.867 19.8827 225.791 20.3654V30.4585Z" fill="#1D1D1B"/>
<path d="M29.3909 23.3741C27.8726 22.7967 26.2563 22.5213 24.6324 22.5632C19.3832 22.5632 14.1552 22.5632 8.90597 22.5632C7.56164 22.5632 6.62274 21.9657 6.4947 20.8134C6.19597 18.5515 6.3026 16.7165 9.6314 16.7805H29.6256C30.5218 16.7805 31.0339 16.6098 31.2046 15.6495C31.4138 14.5757 31.7064 13.5198 32.0796 12.4914C32.3356 11.7232 32.0795 11.5739 31.3326 11.5739C24.3123 11.5739 17.2707 11.5739 10.2289 11.5739C9.00938 11.5314 7.78838 11.5957 6.58001 11.7659C5.50369 11.8549 4.46463 12.202 3.55089 12.7777C2.63715 13.3535 1.87558 14.1409 1.33069 15.0733C0.640395 16.4891 0.281738 18.0434 0.281738 19.6185C0.281738 21.1935 0.640395 22.7479 1.33069 24.1636C1.5754 24.708 1.93171 25.1951 2.37639 25.5933C3.93484 27.0315 5.99698 27.7981 8.11645 27.7271C13.2804 27.7271 18.4655 27.7271 23.6295 27.7271C24.3447 27.7338 25.0583 27.798 25.7633 27.9192C26.2651 27.9573 26.7331 28.1867 27.0707 28.56C27.4082 28.9332 27.5896 29.4219 27.5772 29.925C27.5772 30.3518 27.5772 30.7998 27.5772 31.2266C27.5772 33.0404 26.8303 33.8086 25.0165 33.8939H3.20849C2.4403 33.8939 2.05624 34.086 1.90687 34.8542C1.68336 35.9547 1.38394 37.0385 1.01069 38.0976C0.690614 39.0152 1.01072 39.1645 1.84292 39.1645C5.89724 39.1645 9.95156 39.1645 13.9845 39.1645H21.6664C23.6486 39.236 25.6333 39.136 27.5984 38.8658C28.961 38.722 30.2417 38.1449 31.2519 37.2192C32.2621 36.2935 32.9485 35.0682 33.2104 33.7232C33.5947 31.8795 33.5947 29.9763 33.2104 28.1325C33.0417 27.0637 32.591 26.0592 31.9045 25.2228C31.2181 24.3863 30.321 23.7481 29.3056 23.3741" fill="#1D1D1B"/>
<path d="M108.834 11.5737C107.477 11.6484 106.116 11.6484 104.758 11.5737C103.926 11.5737 103.777 11.8511 103.777 12.5979C103.777 15.4573 103.777 18.338 103.777 21.1333C103.777 21.9655 103.564 22.2856 102.667 22.2642H83.4627C82.5878 22.2642 82.3317 22.0082 82.353 21.1547C82.353 18.2313 82.353 15.3293 82.353 12.4272C82.353 11.6804 82.1396 11.467 81.3928 11.4883C79.9631 11.4883 78.5548 11.4883 77.1251 11.4883C76.4422 11.4883 76.2715 11.723 76.2715 12.3418C76.2715 20.9626 76.2715 29.5834 76.2715 38.2041C76.2715 38.9296 76.5702 39.1003 77.2317 39.079C78.5547 39.079 79.8778 39.079 81.2008 39.079C82.0757 39.079 82.4171 38.8657 82.3958 37.9268C82.3958 34.7473 82.3958 31.5252 82.3958 28.4097C82.3958 27.6202 82.5878 27.3002 83.4413 27.3002C89.8429 27.3002 96.2444 27.3002 102.646 27.3002C103.457 27.3002 103.734 27.5562 103.713 28.3884C103.713 31.6106 103.713 34.79 103.713 38.0974C103.713 38.823 103.905 39.1003 104.673 39.079C106.017 39.079 107.383 39.079 108.749 39.079C109.56 39.079 109.837 38.8443 109.816 38.0121C109.816 33.7444 109.816 29.4767 109.816 25.209C109.816 20.9413 109.816 16.6736 109.816 12.4059C109.816 11.6163 109.581 11.403 108.813 11.4243" fill="#1D1D1B"/>
<path d="M152.237 12.342C152.237 11.7018 151.981 11.5738 151.404 11.5951C150.017 11.5951 148.609 11.5951 147.137 11.5951C146.326 11.5951 146.049 11.7659 146.07 12.6194C146.07 18.5515 146.07 24.4623 146.07 30.3731C146.146 30.8613 146.107 31.3607 145.953 31.8306C145.8 32.3005 145.539 32.7276 145.189 33.077C144.84 33.4265 144.412 33.6885 143.943 33.8415C143.473 33.9946 142.973 34.0345 142.485 33.9579H126.972C124.305 33.9579 123.259 32.891 123.259 30.2237C123.259 24.3342 123.259 18.4519 123.259 12.5767C123.259 11.8726 123.11 11.5738 122.32 11.5951C120.898 11.5951 119.475 11.5951 118.052 11.5951C117.306 11.5951 117.071 11.7872 117.092 12.534C117.092 15.7348 117.092 18.9356 117.092 22.1577C117.092 25.3585 117.092 28.5593 117.092 31.76C117.087 33.3974 117.645 34.9868 118.671 36.2625C119.452 37.1624 120.42 37.8808 121.507 38.3673C122.594 38.8539 123.775 39.0968 124.966 39.0791C130.514 39.3565 136.041 39.0792 141.589 39.1859C142.882 39.1999 144.174 39.1071 145.451 38.9085C147.213 38.7282 148.844 37.8984 150.028 36.5809C151.211 35.2633 151.862 33.5524 151.853 31.7814C151.959 25.3799 151.853 18.8503 151.853 12.3633" fill="#1D1D1B"/>
<path d="M188.961 34.9182C188.79 34.086 188.406 33.9152 187.616 33.9152H168.604C168.139 33.9825 167.665 33.9408 167.219 33.7933C166.773 33.6459 166.367 33.3968 166.034 33.0656C165.701 32.7345 165.449 32.3305 165.299 31.8854C165.148 31.4403 165.104 30.9664 165.168 30.5011V20.3013C165.168 17.9114 166.278 16.8017 168.689 16.7591H187.488C188.235 16.7591 188.641 16.5883 188.79 15.7988C189.025 14.6477 189.338 13.5141 189.729 12.406C189.985 11.6591 189.729 11.5738 189.11 11.5738C185.781 11.5738 182.474 11.5738 179.145 11.5738C174.877 11.5738 170.417 11.3391 166.043 11.7445C164.218 11.8102 162.488 12.5762 161.213 13.8834C159.937 15.1906 159.214 16.9387 159.193 18.7649C159.087 23.1606 159.193 27.5563 159.193 31.9521C159.205 33.658 159.86 35.2967 161.028 36.5398C162.552 38.0825 164.622 38.964 166.79 38.9938C170.545 39.2926 174.28 38.9938 177.331 39.1218C181.748 39.1218 185.461 39.1218 189.174 39.1218C189.964 39.1218 190.134 38.9084 189.899 38.1616C189.502 37.0847 189.189 35.979 188.961 34.8541" fill="#1D1D1B"/>
<path d="M69.5506 35.2596C69.3586 34.1286 68.7824 33.8939 67.7155 33.9152C61.4847 33.9152 55.2538 33.9152 49.023 33.9152C46.8891 33.9152 45.6514 32.8269 45.6301 30.9492C45.6301 27.2149 45.6301 23.4807 45.6301 19.7678C45.6232 19.0635 45.8727 18.3807 46.3321 17.8468C46.7914 17.3128 47.4293 16.9641 48.1268 16.8657C49.0443 16.7237 49.9751 16.6879 50.9008 16.7591H67.9716C68.7398 16.7591 69.1664 16.6097 69.3371 15.7561C69.5534 14.6561 69.8458 13.5723 70.2121 12.5127C70.4682 11.7872 70.3401 11.5525 69.5079 11.5525C66.1151 11.5525 62.7436 11.5525 59.3507 11.5525C55.083 11.5525 50.8153 11.2964 46.5476 11.7232C44.758 11.8201 43.0717 12.5917 41.8284 13.8826C40.5851 15.1734 39.8772 16.8875 39.8474 18.6795C39.7194 22.9472 39.8474 27.2149 39.8474 31.4826C39.8514 32.2717 39.9737 33.0557 40.2101 33.8085C40.7112 35.3419 41.69 36.6746 43.0031 37.6114C44.3163 38.5483 45.8949 39.0402 47.5079 39.0151C51.2208 39.2498 54.9337 39.0151 57.9211 39.1218C62.3595 39.1218 66.0724 39.1218 69.7853 39.1218C70.5535 39.1218 70.8095 38.9084 70.5535 38.1402C70.2156 37.1802 69.9517 36.1958 69.7639 35.1956" fill="#1D1D1B"/>
<path d="M131.816 6.64473C131.944 7.17819 132.157 7.41286 132.734 7.39153C134.056 7.39153 135.379 7.39153 136.702 7.39153C136.807 7.40644 136.913 7.3998 137.014 7.37192C137.116 7.34405 137.211 7.29555 137.293 7.22951C137.375 7.16347 137.442 7.08131 137.491 6.98804C137.54 6.89478 137.57 6.79242 137.577 6.68738C138.068 4.72424 138.559 2.73978 139.092 0.776639C139.242 0.200499 139.092 0.0084393 138.495 0.0297778H134.718C133.502 0.0297778 132.285 0.0297778 131.048 0.0297778C130.322 0.0297778 130.152 0.221788 130.322 0.925959C130.856 2.82509 131.347 4.74556 131.816 6.66602" fill="#1D1D1B"/>
<path d="M143.168 7.39145H145.515C145.693 7.40074 145.869 7.3596 146.024 7.27273C146.179 7.18587 146.306 7.05686 146.39 6.9007C147.692 4.76685 148.993 2.76105 150.316 0.712548C150.701 0.136409 150.509 0.00834108 149.911 0.00834108C147.777 0.00834108 145.793 0.00834108 143.744 0.00834108C143.516 -0.0229198 143.284 0.0350501 143.097 0.170164C142.911 0.305278 142.783 0.507137 142.741 0.733843C142.336 2.09951 141.866 3.42255 141.418 4.78821C141.162 5.59908 140.501 6.75132 140.8 7.15676C141.098 7.56219 142.443 7.28476 143.168 7.39145Z" fill="#1D1D1B"/>
<path d="M123.857 7.37019H128.936C128.167 4.98028 127.421 2.69704 126.674 0.413819C126.503 -0.0769666 126.119 0.0297416 125.777 0.0297416C123.985 0.0297416 122.193 0.0297416 120.4 0.0297416C119.885 -0.0301049 119.362 0.013415 118.864 0.157768L123.131 6.98612C123.191 7.1037 123.283 7.20206 123.397 7.26997C123.51 7.33789 123.64 7.37261 123.772 7.37019" fill="#1D1D1B"/>
</svg>
