<svg width="16" height="17" viewBox="0 0 16 17" xmlns="http://www.w3.org/2000/svg">
  <path
    d="M8.93996 8.49998L11.8066 5.63998C11.9322 5.51445 12.0027 5.34418 12.0027 5.16665C12.0027 4.98911 11.9322 4.81885 11.8066 4.69331C11.6811 4.56778 11.5108 4.49725 11.3333 4.49725C11.1558 4.49725 10.9855 4.56778 10.86 4.69331L7.99996 7.55998L5.13996 4.69331C5.01442 4.56778 4.84416 4.49725 4.66663 4.49725C4.48909 4.49725 4.31883 4.56778 4.19329 4.69331C4.06776 4.81885 3.99723 4.98911 3.99723 5.16665C3.99723 5.34418 4.06776 5.51445 4.19329 5.63998L7.05996 8.49998L4.19329 11.36C4.13081 11.422 4.08121 11.4957 4.04737 11.5769C4.01352 11.6582 3.99609 11.7453 3.99609 11.8333C3.99609 11.9213 4.01352 12.0085 4.04737 12.0897C4.08121 12.1709 4.13081 12.2447 4.19329 12.3066C4.25527 12.3691 4.329 12.4187 4.41024 12.4526C4.49148 12.4864 4.57862 12.5038 4.66663 12.5038C4.75463 12.5038 4.84177 12.4864 4.92301 12.4526C5.00425 12.4187 5.07798 12.3691 5.13996 12.3066L7.99996 9.43998L10.86 12.3066C10.9219 12.3691 10.9957 12.4187 11.0769 12.4526C11.1581 12.4864 11.2453 12.5038 11.3333 12.5038C11.4213 12.5038 11.5084 12.4864 11.5897 12.4526C11.6709 12.4187 11.7446 12.3691 11.8066 12.3066C11.8691 12.2447 11.9187 12.1709 11.9526 12.0897C11.9864 12.0085 12.0038 11.9213 12.0038 11.8333C12.0038 11.7453 11.9864 11.6582 11.9526 11.5769C11.9187 11.4957 11.8691 11.422 11.8066 11.36L8.93996 8.49998Z" />
</svg>